G04 Layer_Physical_Order=2*
G04 Layer_Color=16711680*
%FSLAX43Y43*%
%MOMM*%
G71*
G01*
G75*
%ADD12R,1.300X1.000*%
%ADD13R,1.000X1.300*%
%ADD27R,1.000X0.700*%
%ADD28C,0.300*%
%ADD29C,0.400*%
%ADD31C,1.000*%
%ADD32C,0.500*%
%ADD33C,0.800*%
%ADD35C,0.150*%
%ADD36C,4.500*%
%ADD37C,1.700*%
%ADD38O,4.000X3.500*%
%ADD39O,2.200X2.500*%
%ADD40O,3.500X4.200*%
%ADD41R,1.700X1.700*%
%ADD42C,6.000*%
%ADD43C,1.000*%
%ADD44R,1.800X1.800*%
%ADD45R,1.600X3.200*%
%ADD46R,1.400X0.600*%
%ADD47R,0.600X0.500*%
%ADD48R,1.905X3.429*%
%ADD49O,0.600X2.200*%
%ADD50R,1.000X2.300*%
%ADD51R,4.000X3.000*%
%ADD52R,0.700X0.350*%
%ADD53R,1.600X1.100*%
%ADD54R,1.100X1.600*%
%ADD55R,0.700X1.000*%
G36*
X89199Y98435D02*
X89163Y98407D01*
X88986Y98177D01*
X88874Y97908D01*
X88836Y97620D01*
X88874Y97332D01*
X88986Y97063D01*
X89163Y96833D01*
X89393Y96656D01*
X89662Y96544D01*
X89838Y96521D01*
Y77964D01*
X89712Y77868D01*
X89591Y77710D01*
X89515Y77527D01*
X89489Y77330D01*
X89515Y77133D01*
X89591Y76950D01*
X89712Y76792D01*
X89870Y76671D01*
X90053Y76595D01*
X90250Y76570D01*
X90447Y76595D01*
X90538Y76633D01*
X90777Y76517D01*
X90838Y76453D01*
Y74414D01*
X90346D01*
Y72906D01*
X92154D01*
Y74250D01*
X92454Y74335D01*
X92609Y74081D01*
X92942Y73692D01*
X93331Y73359D01*
X93768Y73092D01*
X94241Y72896D01*
X94739Y72776D01*
X95236Y72737D01*
X95250Y72735D01*
Y72735D01*
X95250Y72735D01*
X98000D01*
X98000Y72735D01*
X98000Y72735D01*
X98277Y72679D01*
X98370Y72641D01*
X98523Y72523D01*
X98641Y72370D01*
X98714Y72191D01*
X98737Y72017D01*
X98735Y72000D01*
Y1265D01*
X50750D01*
X50617Y1565D01*
X50659Y1620D01*
X50733Y1800D01*
X49267D01*
X49341Y1620D01*
X49383Y1565D01*
X49250Y1265D01*
X22899D01*
X22797Y1565D01*
X22986Y1709D01*
X23203Y1992D01*
X23339Y2322D01*
X23386Y2675D01*
Y2975D01*
X23339Y3328D01*
X23203Y3658D01*
X22986Y3941D01*
X22703Y4158D01*
X22432Y4270D01*
Y7151D01*
X22924D01*
Y8659D01*
X21116D01*
Y7151D01*
X21608D01*
Y4270D01*
X21337Y4158D01*
X21054Y3941D01*
X20837Y3658D01*
X20701Y3328D01*
X20654Y2975D01*
Y2675D01*
X20701Y2322D01*
X20837Y1992D01*
X21054Y1709D01*
X21243Y1565D01*
X21141Y1265D01*
X17899D01*
X17797Y1565D01*
X17986Y1709D01*
X18203Y1992D01*
X18339Y2322D01*
X18379Y2625D01*
X17020D01*
X15661D01*
X15701Y2322D01*
X15837Y1992D01*
X16054Y1709D01*
X16243Y1565D01*
X16141Y1265D01*
X1265D01*
X1265Y25056D01*
X1565Y25158D01*
X1573Y25148D01*
X1803Y24971D01*
X2072Y24859D01*
X2160Y24848D01*
Y25935D01*
Y27022D01*
X2072Y27011D01*
X1803Y26899D01*
X1573Y26722D01*
X1565Y26712D01*
X1265Y26814D01*
Y27596D01*
X1565Y27698D01*
X1573Y27688D01*
X1803Y27511D01*
X2072Y27399D01*
X2360Y27361D01*
X2648Y27399D01*
X2917Y27511D01*
X3147Y27688D01*
X3324Y27918D01*
X3436Y28187D01*
X3474Y28475D01*
X3436Y28763D01*
X3376Y28908D01*
X8348Y33881D01*
X8545Y33800D01*
X8620Y33729D01*
X8599Y33570D01*
X8625Y33373D01*
X8701Y33190D01*
X8822Y33032D01*
X8980Y32911D01*
X9163Y32835D01*
X9360Y32809D01*
X9557Y32835D01*
X9740Y32911D01*
X9898Y33032D01*
X9994Y33158D01*
X17226D01*
X17286Y33013D01*
X17463Y32783D01*
X17693Y32606D01*
X17962Y32494D01*
X18250Y32456D01*
X18538Y32494D01*
X18807Y32606D01*
X19037Y32783D01*
X19214Y33013D01*
X19326Y33282D01*
X19364Y33570D01*
X19326Y33858D01*
X19214Y34127D01*
X19037Y34357D01*
X18807Y34534D01*
X18538Y34646D01*
X18250Y34684D01*
X17962Y34646D01*
X17693Y34534D01*
X17463Y34357D01*
X17286Y34127D01*
X17226Y33982D01*
X9994D01*
X9898Y34108D01*
X9740Y34229D01*
X9557Y34305D01*
X9360Y34331D01*
X9201Y34310D01*
X9130Y34385D01*
X9049Y34582D01*
X10166Y35698D01*
X13171D01*
X13267Y35572D01*
X13425Y35451D01*
X13608Y35375D01*
X13805Y35349D01*
X14002Y35375D01*
X14185Y35451D01*
X14343Y35572D01*
X14464Y35730D01*
X14540Y35913D01*
X14566Y36110D01*
X14545Y36269D01*
X14620Y36340D01*
X14817Y36421D01*
X15419Y35819D01*
X15552Y35729D01*
X15710Y35698D01*
X17226D01*
X17286Y35553D01*
X17463Y35323D01*
X17693Y35146D01*
X17962Y35034D01*
X18250Y34996D01*
X18538Y35034D01*
X18807Y35146D01*
X19037Y35323D01*
X19214Y35553D01*
X19326Y35822D01*
X19364Y36110D01*
X19326Y36398D01*
X19214Y36667D01*
X19037Y36897D01*
X18807Y37074D01*
X18538Y37186D01*
X18250Y37224D01*
X17962Y37186D01*
X17693Y37074D01*
X17463Y36897D01*
X17286Y36667D01*
X17238Y36551D01*
X16948Y36550D01*
X16856Y36822D01*
X16883Y36842D01*
X17004Y37000D01*
X17078Y37180D01*
X15562D01*
X15530Y37150D01*
X15333Y37069D01*
X12236Y40166D01*
X12103Y40256D01*
X11945Y40287D01*
X10213D01*
Y40779D01*
X8705D01*
Y38971D01*
X10213D01*
Y39463D01*
X11774D01*
X14116Y37122D01*
X14035Y36925D01*
X13964Y36850D01*
X13805Y36871D01*
X13608Y36845D01*
X13425Y36769D01*
X13267Y36648D01*
X13171Y36522D01*
X9995D01*
X9837Y36491D01*
X9704Y36401D01*
X2793Y29491D01*
X2648Y29551D01*
X2360Y29589D01*
X2072Y29551D01*
X1803Y29439D01*
X1573Y29262D01*
X1565Y29252D01*
X1265Y29354D01*
Y32706D01*
X1565Y32808D01*
X1573Y32798D01*
X1803Y32621D01*
X2072Y32509D01*
X2360Y32471D01*
X2648Y32509D01*
X2917Y32621D01*
X3147Y32798D01*
X3324Y33028D01*
X3436Y33297D01*
X3474Y33585D01*
X3436Y33873D01*
X3324Y34142D01*
X3147Y34372D01*
X2917Y34549D01*
X2648Y34661D01*
X2360Y34699D01*
X2072Y34661D01*
X1803Y34549D01*
X1573Y34372D01*
X1565Y34362D01*
X1265Y34464D01*
Y35246D01*
X1565Y35348D01*
X1573Y35338D01*
X1803Y35161D01*
X2072Y35049D01*
X2360Y35011D01*
X2648Y35049D01*
X2917Y35161D01*
X3147Y35338D01*
X3324Y35568D01*
X3436Y35837D01*
X3474Y36125D01*
X3436Y36413D01*
X3324Y36682D01*
X3147Y36912D01*
X2917Y37089D01*
X2648Y37201D01*
X2360Y37239D01*
X2072Y37201D01*
X1803Y37089D01*
X1573Y36912D01*
X1565Y36902D01*
X1265Y37004D01*
Y37786D01*
X1565Y37888D01*
X1573Y37878D01*
X1803Y37701D01*
X2072Y37589D01*
X2360Y37551D01*
X2648Y37589D01*
X2917Y37701D01*
X3147Y37878D01*
X3324Y38108D01*
X3436Y38377D01*
X3474Y38665D01*
X3436Y38953D01*
X3324Y39222D01*
X3147Y39452D01*
X2917Y39629D01*
X2648Y39741D01*
X2360Y39779D01*
X2072Y39741D01*
X1803Y39629D01*
X1573Y39452D01*
X1565Y39442D01*
X1265Y39544D01*
Y40965D01*
X1565Y41067D01*
X1588Y41038D01*
X1818Y40861D01*
X2087Y40749D01*
X2375Y40711D01*
X2663Y40749D01*
X2932Y40861D01*
X3162Y41038D01*
X3339Y41268D01*
X3451Y41537D01*
X3489Y41825D01*
X3451Y42113D01*
X3339Y42382D01*
X3162Y42612D01*
X2932Y42789D01*
X2663Y42901D01*
X2375Y42939D01*
X2087Y42901D01*
X1818Y42789D01*
X1588Y42612D01*
X1565Y42583D01*
X1265Y42685D01*
Y43506D01*
X1565Y43607D01*
X1588Y43578D01*
X1818Y43401D01*
X2087Y43289D01*
X2375Y43251D01*
X2663Y43289D01*
X2932Y43401D01*
X3162Y43578D01*
X3339Y43808D01*
X3451Y44077D01*
X3489Y44365D01*
X3451Y44653D01*
X3339Y44922D01*
X3162Y45152D01*
X2932Y45329D01*
X2663Y45441D01*
X2375Y45479D01*
X2087Y45441D01*
X1818Y45329D01*
X1588Y45152D01*
X1565Y45123D01*
X1265Y45225D01*
Y46046D01*
X1565Y46147D01*
X1588Y46118D01*
X1818Y45941D01*
X2087Y45829D01*
X2375Y45791D01*
X2663Y45829D01*
X2932Y45941D01*
X3162Y46118D01*
X3339Y46348D01*
X3451Y46617D01*
X3489Y46905D01*
X3451Y47193D01*
X3339Y47462D01*
X3162Y47692D01*
X2932Y47869D01*
X2663Y47981D01*
X2375Y48019D01*
X2087Y47981D01*
X1818Y47869D01*
X1588Y47692D01*
X1565Y47663D01*
X1265Y47764D01*
Y51125D01*
X1565Y51227D01*
X1588Y51198D01*
X1818Y51021D01*
X2087Y50909D01*
X2375Y50871D01*
X2663Y50909D01*
X2808Y50969D01*
X9809Y43969D01*
X9942Y43879D01*
X10100Y43848D01*
X11901D01*
X11997Y43722D01*
X12155Y43601D01*
X12338Y43525D01*
X12535Y43499D01*
X12732Y43525D01*
X12915Y43601D01*
X13073Y43722D01*
X13194Y43880D01*
X13270Y44063D01*
X13295Y44260D01*
X13270Y44457D01*
X13194Y44640D01*
X13073Y44798D01*
X12915Y44919D01*
X12732Y44995D01*
X12535Y45021D01*
X12338Y44995D01*
X12155Y44919D01*
X11997Y44798D01*
X11901Y44672D01*
X10271D01*
X3391Y51552D01*
X3451Y51697D01*
X3489Y51985D01*
X3451Y52273D01*
X3339Y52542D01*
X3162Y52772D01*
X2932Y52949D01*
X2663Y53061D01*
X2375Y53099D01*
X2087Y53061D01*
X1818Y52949D01*
X1588Y52772D01*
X1565Y52743D01*
X1265Y52845D01*
Y53666D01*
X1565Y53767D01*
X1588Y53738D01*
X1818Y53561D01*
X2087Y53449D01*
X2175Y53438D01*
Y54525D01*
Y55612D01*
X2087Y55601D01*
X1818Y55489D01*
X1588Y55312D01*
X1565Y55283D01*
X1265Y55384D01*
X1265Y58745D01*
X1565Y58847D01*
X1588Y58818D01*
X1818Y58641D01*
X2087Y58529D01*
X2175Y58518D01*
Y59605D01*
Y60692D01*
X2087Y60681D01*
X1818Y60569D01*
X1588Y60392D01*
X1565Y60363D01*
X1265Y60465D01*
Y61285D01*
X1565Y61387D01*
X1588Y61358D01*
X1818Y61181D01*
X2087Y61069D01*
X2375Y61031D01*
X2663Y61069D01*
X2932Y61181D01*
X3162Y61358D01*
X3339Y61588D01*
X3399Y61733D01*
X3645D01*
X3803Y61764D01*
X3936Y61854D01*
X4931Y62848D01*
X5024Y62847D01*
X5231Y62646D01*
Y61591D01*
X5231D01*
Y61429D01*
X5231D01*
Y60459D01*
X5231Y60240D01*
X5231Y60021D01*
Y59051D01*
X5773D01*
Y58334D01*
X5647Y58238D01*
X5526Y58080D01*
X5450Y57897D01*
X5424Y57700D01*
X5450Y57503D01*
X5526Y57320D01*
X5647Y57162D01*
X5805Y57041D01*
X5988Y56965D01*
X6185Y56939D01*
X6382Y56965D01*
X6565Y57041D01*
X6723Y57162D01*
X6844Y57320D01*
X6920Y57503D01*
X6945Y57700D01*
X6920Y57897D01*
X6844Y58080D01*
X6723Y58238D01*
X6597Y58334D01*
Y59051D01*
X7139D01*
X7139Y60106D01*
X7346Y60307D01*
X7439Y60308D01*
X8313Y59434D01*
Y49445D01*
X8344Y49287D01*
X8434Y49154D01*
X11160Y46427D01*
X11139Y46270D01*
X11165Y46073D01*
X11241Y45890D01*
X11362Y45732D01*
X11520Y45611D01*
X11703Y45535D01*
X11900Y45509D01*
X12097Y45535D01*
X12280Y45611D01*
X12438Y45732D01*
X12559Y45890D01*
X12635Y46073D01*
X12660Y46270D01*
X12635Y46467D01*
X12559Y46650D01*
X12438Y46808D01*
Y47002D01*
X12559Y47160D01*
X12635Y47343D01*
X12660Y47540D01*
X12635Y47737D01*
X12559Y47920D01*
X12438Y48078D01*
X12280Y48199D01*
X12097Y48275D01*
X11900Y48301D01*
X11743Y48280D01*
X10407Y49616D01*
Y59605D01*
X10376Y59763D01*
X10286Y59896D01*
X7746Y62436D01*
X7613Y62526D01*
X7455Y62557D01*
X7351D01*
X7139Y62769D01*
X7139Y62999D01*
Y63831D01*
X7218Y63929D01*
X7609Y63949D01*
X9704Y61854D01*
X9837Y61764D01*
X9995Y61733D01*
X10819D01*
X11031Y61521D01*
X11031Y61291D01*
Y60321D01*
X11031D01*
Y60159D01*
X11031D01*
Y59051D01*
X11573D01*
Y58454D01*
X11081D01*
Y56946D01*
X12889D01*
Y58454D01*
X12397D01*
Y59051D01*
X12939D01*
Y60159D01*
X13155Y60361D01*
X13170D01*
X13367Y60400D01*
X13533Y60512D01*
X14168Y61147D01*
X14280Y61313D01*
X14319Y61510D01*
Y68917D01*
X18590Y73188D01*
X36667D01*
X36851Y72888D01*
X36840Y72862D01*
X36814Y72665D01*
X36840Y72468D01*
X36876Y72382D01*
X36755Y72137D01*
X36694Y72082D01*
X32219D01*
X32123Y72208D01*
X31965Y72329D01*
X31782Y72405D01*
X31585Y72431D01*
X31388Y72405D01*
X31205Y72329D01*
X31047Y72208D01*
X30926Y72050D01*
X30850Y71867D01*
X30824Y71670D01*
X30850Y71473D01*
X30926Y71290D01*
X31047Y71132D01*
X31205Y71011D01*
X31388Y70935D01*
X31585Y70909D01*
X31782Y70935D01*
X31965Y71011D01*
X32123Y71132D01*
X32219Y71258D01*
X36052D01*
X36154Y70958D01*
X36127Y70938D01*
X36006Y70780D01*
X35932Y70600D01*
X37398D01*
X37324Y70780D01*
X37203Y70938D01*
X37176Y70958D01*
X37278Y71258D01*
X39206D01*
X39302Y71132D01*
X39460Y71011D01*
X39643Y70935D01*
X39840Y70909D01*
X40037Y70935D01*
X40220Y71011D01*
X40378Y71132D01*
X40499Y71290D01*
X40575Y71473D01*
X40600Y71670D01*
X40575Y71867D01*
X40499Y72050D01*
X40378Y72208D01*
X40220Y72329D01*
X40037Y72405D01*
X39840Y72431D01*
X39643Y72405D01*
X39460Y72329D01*
X39302Y72208D01*
X39206Y72082D01*
X38456D01*
X38395Y72137D01*
X38274Y72382D01*
X38310Y72468D01*
X38335Y72665D01*
X38310Y72862D01*
X38299Y72888D01*
X38483Y73188D01*
X47826D01*
Y72948D01*
X49634D01*
Y73188D01*
X57530D01*
X58473Y72245D01*
X58390Y71945D01*
X58390D01*
Y70590D01*
X58383Y70541D01*
Y68127D01*
X55880D01*
Y69220D01*
X53772D01*
Y65538D01*
X53772Y65512D01*
X53709Y65238D01*
X40765D01*
X40640Y65538D01*
X45398Y70295D01*
X45555Y70274D01*
X45752Y70300D01*
X45935Y70376D01*
X46093Y70497D01*
X46214Y70655D01*
X46263Y70773D01*
X46320Y70848D01*
X46606Y70945D01*
X46628Y70935D01*
X46825Y70909D01*
X47022Y70935D01*
X47205Y71011D01*
X47363Y71132D01*
X47459Y71258D01*
X47826D01*
Y70916D01*
X49634D01*
Y72424D01*
X47826D01*
Y72082D01*
X47459D01*
X47363Y72208D01*
X47205Y72329D01*
X47022Y72405D01*
X46825Y72431D01*
X46628Y72405D01*
X46445Y72329D01*
X46287Y72208D01*
X46166Y72050D01*
X46117Y71932D01*
X46060Y71857D01*
X45774Y71760D01*
X45752Y71770D01*
X45555Y71796D01*
X45358Y71770D01*
X45336Y71760D01*
X45050Y71857D01*
X44993Y71932D01*
X44944Y72050D01*
X44823Y72208D01*
X44665Y72329D01*
X44482Y72405D01*
X44285Y72431D01*
X44088Y72405D01*
X43905Y72329D01*
X43747Y72208D01*
X43626Y72050D01*
X43550Y71867D01*
X43524Y71670D01*
X43545Y71513D01*
X39034Y67002D01*
X21814D01*
X21754Y67147D01*
X21577Y67377D01*
X21347Y67554D01*
X21078Y67666D01*
X20790Y67704D01*
X20502Y67666D01*
X20233Y67554D01*
X20003Y67377D01*
X19826Y67147D01*
X19714Y66878D01*
X19676Y66590D01*
X19714Y66302D01*
X19826Y66033D01*
X20003Y65803D01*
X20233Y65626D01*
X20502Y65514D01*
X20790Y65476D01*
X21078Y65514D01*
X21347Y65626D01*
X21577Y65803D01*
X21754Y66033D01*
X21814Y66178D01*
X39205D01*
X39363Y66209D01*
X39496Y66299D01*
X44128Y70930D01*
X44285Y70909D01*
X44444Y70930D01*
X44515Y70855D01*
X44596Y70658D01*
X38399Y64462D01*
X21814D01*
X21754Y64607D01*
X21577Y64837D01*
X21347Y65014D01*
X21078Y65126D01*
X20790Y65164D01*
X20502Y65126D01*
X20233Y65014D01*
X20003Y64837D01*
X19826Y64607D01*
X19714Y64338D01*
X19676Y64050D01*
X19714Y63762D01*
X19826Y63493D01*
X20003Y63263D01*
X20233Y63086D01*
X20502Y62974D01*
X20790Y62936D01*
X21078Y62974D01*
X21347Y63086D01*
X21577Y63263D01*
X21754Y63493D01*
X21814Y63638D01*
X37957D01*
X38059Y63338D01*
X38032Y63318D01*
X37911Y63160D01*
X37835Y62977D01*
X37809Y62780D01*
X37835Y62583D01*
X37911Y62400D01*
X38032Y62242D01*
X38190Y62121D01*
X38373Y62045D01*
X38570Y62019D01*
X38767Y62045D01*
X38950Y62121D01*
X39108Y62242D01*
X39229Y62400D01*
X39305Y62583D01*
X39331Y62780D01*
X39310Y62937D01*
X40787Y64414D01*
X53552D01*
X53772Y64220D01*
X53772Y64114D01*
Y62566D01*
X54826D01*
X55880D01*
Y64114D01*
X55880Y64220D01*
X56100Y64414D01*
X58578D01*
X60383Y62609D01*
Y60930D01*
X59891D01*
Y59422D01*
X61699D01*
Y60930D01*
X61207D01*
Y62368D01*
X78099D01*
X78247Y62068D01*
X78246Y62067D01*
X78134Y61798D01*
X78123Y61710D01*
X79210D01*
X80297D01*
X80286Y61798D01*
X80174Y62067D01*
X80173Y62068D01*
X80321Y62368D01*
X80639D01*
X80787Y62068D01*
X80786Y62067D01*
X80674Y61798D01*
X80636Y61510D01*
X80674Y61222D01*
X80786Y60953D01*
X80963Y60723D01*
X81193Y60546D01*
X81462Y60434D01*
X81750Y60396D01*
X82038Y60434D01*
X82307Y60546D01*
X82537Y60723D01*
X82714Y60953D01*
X82826Y61222D01*
X82864Y61510D01*
X82826Y61798D01*
X82714Y62067D01*
X82713Y62068D01*
X82733Y62180D01*
X82849Y62385D01*
X82924Y62399D01*
X83057Y62489D01*
X84581Y64013D01*
X84671Y64146D01*
X84702Y64304D01*
Y66339D01*
X89579Y71216D01*
X90346D01*
Y70874D01*
X92154D01*
Y72382D01*
X90346D01*
Y72040D01*
X89408D01*
X89250Y72009D01*
X89117Y71919D01*
X83999Y66801D01*
X83909Y66668D01*
X83878Y66510D01*
Y64475D01*
X83119Y63715D01*
X82838Y63859D01*
X82864Y64050D01*
X82826Y64338D01*
X82714Y64607D01*
X82537Y64837D01*
X82307Y65014D01*
X82038Y65126D01*
X81750Y65164D01*
X81462Y65126D01*
X81193Y65014D01*
X80963Y64837D01*
X80786Y64607D01*
X80674Y64338D01*
X80636Y64050D01*
X80674Y63762D01*
X80786Y63493D01*
X80787Y63492D01*
X80639Y63192D01*
X80321D01*
X80173Y63492D01*
X80174Y63493D01*
X80286Y63762D01*
X80324Y64050D01*
X80286Y64338D01*
X80174Y64607D01*
X79997Y64837D01*
X79767Y65014D01*
X79498Y65126D01*
X79210Y65164D01*
X78922Y65126D01*
X78653Y65014D01*
X78423Y64837D01*
X78325Y64710D01*
X74904D01*
Y64804D01*
X73096D01*
Y64710D01*
X71904D01*
Y64804D01*
X70096D01*
Y64710D01*
X69054D01*
Y64854D01*
X66946D01*
Y64710D01*
X66275D01*
X64884Y66101D01*
Y81830D01*
X64861Y82001D01*
X64795Y82160D01*
X64690Y82296D01*
X60520Y86466D01*
X60384Y86571D01*
X60225Y86637D01*
X60054Y86660D01*
X53054D01*
Y88354D01*
X50946D01*
Y86660D01*
X45054D01*
Y88354D01*
X42946D01*
Y86660D01*
X38154D01*
Y87054D01*
X35846D01*
Y86660D01*
X33175D01*
Y87968D01*
X30762D01*
Y84032D01*
X31173D01*
Y79686D01*
X30831D01*
Y77878D01*
X32339D01*
Y79686D01*
X31997D01*
Y84032D01*
X33175D01*
Y85340D01*
X35846D01*
Y84746D01*
X38154D01*
Y85340D01*
X42946D01*
Y84646D01*
X45054D01*
Y85340D01*
X50946D01*
Y84646D01*
X53054D01*
Y85340D01*
X59781D01*
X63564Y81557D01*
Y78095D01*
X61644D01*
Y76341D01*
Y74587D01*
X63564D01*
Y71945D01*
X62990D01*
Y69137D01*
X63564D01*
Y66291D01*
X62660D01*
X62603Y66366D01*
X62445Y66487D01*
X62262Y66563D01*
X62065Y66589D01*
X61868Y66563D01*
X61685Y66487D01*
X61527Y66366D01*
X61406Y66208D01*
X61330Y66025D01*
X61304Y65828D01*
X61330Y65631D01*
X61406Y65448D01*
X61527Y65290D01*
X61685Y65169D01*
X61868Y65093D01*
X62065Y65067D01*
X62262Y65093D01*
X62445Y65169D01*
X62603Y65290D01*
X62660Y65365D01*
X63755D01*
X63758Y65362D01*
X65536Y63584D01*
X65655Y63492D01*
X65657Y63460D01*
X65513Y63192D01*
X60966D01*
X59040Y65117D01*
X58907Y65207D01*
X58749Y65238D01*
X55943D01*
X55880Y65512D01*
X55880Y65538D01*
Y66605D01*
X59144D01*
X59341Y66631D01*
X59524Y66707D01*
X59682Y66828D01*
X59803Y66986D01*
X59879Y67169D01*
X59904Y67366D01*
Y70541D01*
X59898Y70590D01*
Y71945D01*
X59658D01*
Y72301D01*
X59619Y72498D01*
X59507Y72664D01*
X58257Y73915D01*
Y76194D01*
X58281Y76212D01*
X58402Y76370D01*
X58478Y76553D01*
X58504Y76750D01*
X58478Y76947D01*
X58402Y77130D01*
X58281Y77288D01*
X58123Y77409D01*
X57940Y77485D01*
X57743Y77511D01*
X57546Y77485D01*
X57363Y77409D01*
X57205Y77288D01*
X57084Y77130D01*
X57008Y76947D01*
X56982Y76750D01*
X57008Y76553D01*
X57084Y76370D01*
X57205Y76212D01*
X57229Y76194D01*
Y74216D01*
X49634D01*
Y74456D01*
X47826D01*
Y74216D01*
X18377D01*
X18180Y74177D01*
X18014Y74065D01*
X13442Y69493D01*
X13330Y69327D01*
X13291Y69130D01*
Y61974D01*
X13239Y61939D01*
X12939Y62099D01*
Y62699D01*
X12939D01*
Y62861D01*
X12939D01*
Y63969D01*
X12939D01*
Y64131D01*
X12939D01*
Y65239D01*
X12939D01*
Y65401D01*
X12939D01*
Y66371D01*
X12939Y66590D01*
X12939Y66809D01*
X12939Y67860D01*
X12939Y68079D01*
Y69049D01*
X11031D01*
Y68079D01*
X11031Y67860D01*
X11031Y67641D01*
X11031Y66579D01*
X10819Y66367D01*
X10166D01*
X9772Y66761D01*
Y69787D01*
X10072Y69889D01*
X10092Y69862D01*
X10250Y69741D01*
X10430Y69667D01*
Y70400D01*
Y71133D01*
X10250Y71059D01*
X10092Y70938D01*
X10072Y70911D01*
X9772Y71013D01*
Y72940D01*
X9741Y73098D01*
X9651Y73231D01*
X3391Y79492D01*
X3451Y79637D01*
X3489Y79925D01*
X3451Y80213D01*
X3339Y80482D01*
X3162Y80712D01*
X2932Y80889D01*
X2663Y81001D01*
X2375Y81039D01*
X2087Y81001D01*
X1818Y80889D01*
X1588Y80712D01*
X1565Y80683D01*
X1265Y80785D01*
X1265Y98735D01*
X76397D01*
X76499Y98435D01*
X76463Y98407D01*
X76286Y98177D01*
X76174Y97908D01*
X76163Y97820D01*
X78337D01*
X78326Y97908D01*
X78214Y98177D01*
X78037Y98407D01*
X78001Y98435D01*
X78103Y98735D01*
X78937D01*
X79039Y98435D01*
X79003Y98407D01*
X78826Y98177D01*
X78714Y97908D01*
X78676Y97620D01*
X78714Y97332D01*
X78826Y97063D01*
X79003Y96833D01*
X79233Y96656D01*
X79502Y96544D01*
X79790Y96506D01*
X80078Y96544D01*
X80347Y96656D01*
X80577Y96833D01*
X80754Y97063D01*
X80866Y97332D01*
X80904Y97620D01*
X80866Y97908D01*
X80754Y98177D01*
X80577Y98407D01*
X80541Y98435D01*
X80643Y98735D01*
X81477D01*
X81579Y98435D01*
X81543Y98407D01*
X81366Y98177D01*
X81254Y97908D01*
X81216Y97620D01*
X81254Y97332D01*
X81366Y97063D01*
X81543Y96833D01*
X81773Y96656D01*
X81918Y96596D01*
Y95984D01*
X81576D01*
Y94222D01*
X81576Y94176D01*
X81594Y93883D01*
Y92421D01*
X82802D01*
Y92763D01*
X83600D01*
X83758Y92794D01*
X83891Y92884D01*
X85161Y94154D01*
X85251Y94287D01*
X85282Y94445D01*
Y96596D01*
X85427Y96656D01*
X85657Y96833D01*
X85834Y97063D01*
X85946Y97332D01*
X85984Y97620D01*
X85946Y97908D01*
X85834Y98177D01*
X85657Y98407D01*
X85621Y98435D01*
X85723Y98735D01*
X86557D01*
X86659Y98435D01*
X86623Y98407D01*
X86446Y98177D01*
X86334Y97908D01*
X86296Y97620D01*
X86334Y97332D01*
X86446Y97063D01*
X86623Y96833D01*
X86853Y96656D01*
X86998Y96596D01*
Y95080D01*
X87029Y94922D01*
X87119Y94789D01*
X87838Y94069D01*
Y92752D01*
X87777Y92688D01*
X87538Y92572D01*
X87447Y92610D01*
X87250Y92636D01*
X87053Y92610D01*
X86870Y92534D01*
X86712Y92413D01*
X86591Y92255D01*
X86515Y92072D01*
X86489Y91875D01*
X86515Y91678D01*
X86591Y91495D01*
X86712Y91337D01*
X86838Y91241D01*
Y83501D01*
X85709Y82371D01*
X85619Y82238D01*
X85588Y82080D01*
Y79818D01*
X85096D01*
Y78310D01*
X86904D01*
Y79818D01*
X86412D01*
Y81909D01*
X87538Y83036D01*
X87552Y83035D01*
X87838Y82943D01*
Y77964D01*
X87712Y77868D01*
X87591Y77710D01*
X87515Y77527D01*
X87489Y77330D01*
X87515Y77133D01*
X87591Y76950D01*
X87712Y76792D01*
X87870Y76671D01*
X88053Y76595D01*
X88250Y76570D01*
X88447Y76595D01*
X88630Y76671D01*
X88788Y76792D01*
X88909Y76950D01*
X88985Y77133D01*
X89011Y77330D01*
X88985Y77527D01*
X88909Y77710D01*
X88788Y77868D01*
X88662Y77964D01*
Y94240D01*
X88631Y94398D01*
X88541Y94531D01*
X87822Y95251D01*
Y96596D01*
X87967Y96656D01*
X88197Y96833D01*
X88374Y97063D01*
X88486Y97332D01*
X88524Y97620D01*
X88486Y97908D01*
X88374Y98177D01*
X88197Y98407D01*
X88161Y98435D01*
X88263Y98735D01*
X89097D01*
X89199Y98435D01*
D02*
G37*
G36*
X5226Y71412D02*
X5145Y71215D01*
X5115Y71183D01*
Y70600D01*
X5698D01*
X5730Y70630D01*
X5927Y70711D01*
X7043Y69594D01*
Y69049D01*
X6385D01*
Y68495D01*
X6185D01*
Y68295D01*
X5231D01*
Y68079D01*
X5152Y67981D01*
X4761Y67961D01*
X3391Y69332D01*
X3451Y69477D01*
X3489Y69765D01*
X3451Y70053D01*
X3339Y70322D01*
X3162Y70552D01*
X2932Y70729D01*
X2663Y70841D01*
X2375Y70879D01*
X2087Y70841D01*
X1818Y70729D01*
X1588Y70552D01*
X1565Y70523D01*
X1265Y70624D01*
Y71446D01*
X1565Y71547D01*
X1588Y71518D01*
X1818Y71341D01*
X2087Y71229D01*
X2375Y71191D01*
X2663Y71229D01*
X2932Y71341D01*
X3162Y71518D01*
X3339Y71748D01*
X3399Y71893D01*
X4744D01*
X5226Y71412D01*
D02*
G37*
%LPC*%
G36*
X78337Y97420D02*
X77450D01*
Y96533D01*
X77538Y96544D01*
X77807Y96656D01*
X78037Y96833D01*
X78214Y97063D01*
X78326Y97332D01*
X78337Y97420D01*
D02*
G37*
G36*
X77050D02*
X76163D01*
X76174Y97332D01*
X76286Y97063D01*
X76463Y96833D01*
X76693Y96656D01*
X76962Y96544D01*
X77050Y96533D01*
Y97420D01*
D02*
G37*
G36*
X5200Y98248D02*
Y95200D01*
X8248D01*
X8224Y95511D01*
X8104Y96009D01*
X7908Y96482D01*
X7641Y96919D01*
X7308Y97308D01*
X6919Y97641D01*
X6482Y97908D01*
X6009Y98104D01*
X5511Y98224D01*
X5200Y98248D01*
D02*
G37*
G36*
X4800D02*
X4489Y98224D01*
X3991Y98104D01*
X3518Y97908D01*
X3081Y97641D01*
X2692Y97308D01*
X2359Y96919D01*
X2092Y96482D01*
X1896Y96009D01*
X1776Y95511D01*
X1752Y95200D01*
X4800D01*
Y98248D01*
D02*
G37*
G36*
X81052Y95984D02*
X79544D01*
Y94176D01*
X79566D01*
X79694Y93929D01*
Y92421D01*
X80902D01*
Y93929D01*
X81030Y94176D01*
X81052D01*
Y95984D01*
D02*
G37*
G36*
X17437Y94496D02*
Y92200D01*
X19733D01*
X19704Y92491D01*
X19561Y92963D01*
X19329Y93398D01*
X19016Y93779D01*
X18634Y94092D01*
X18199Y94325D01*
X17727Y94468D01*
X17437Y94496D01*
D02*
G37*
G36*
X17037D02*
X16746Y94468D01*
X16274Y94325D01*
X15839Y94092D01*
X15457Y93779D01*
X15144Y93398D01*
X14912Y92963D01*
X14769Y92491D01*
X14740Y92200D01*
X17037D01*
Y94496D01*
D02*
G37*
G36*
X4800Y94800D02*
X1752D01*
X1776Y94489D01*
X1896Y93991D01*
X2092Y93518D01*
X2359Y93081D01*
X2692Y92692D01*
X3081Y92359D01*
X3518Y92092D01*
X3991Y91896D01*
X4489Y91776D01*
X4800Y91752D01*
Y94800D01*
D02*
G37*
G36*
X8248D02*
X5200D01*
Y91752D01*
X5511Y91776D01*
X6009Y91896D01*
X6482Y92092D01*
X6919Y92359D01*
X7308Y92692D01*
X7641Y93081D01*
X7908Y93518D01*
X8104Y93991D01*
X8224Y94489D01*
X8248Y94800D01*
D02*
G37*
G36*
X45054Y93354D02*
X44200D01*
Y91700D01*
X45054D01*
Y93354D01*
D02*
G37*
G36*
X43800D02*
X42946D01*
Y91700D01*
X43800D01*
Y93354D01*
D02*
G37*
G36*
X53054D02*
X52200D01*
Y91700D01*
X53054D01*
Y93354D01*
D02*
G37*
G36*
X51800D02*
X50946D01*
Y91700D01*
X51800D01*
Y93354D01*
D02*
G37*
G36*
X38154Y91254D02*
X37200D01*
Y90300D01*
X38154D01*
Y91254D01*
D02*
G37*
G36*
X36800D02*
X35846D01*
Y90300D01*
X36800D01*
Y91254D01*
D02*
G37*
G36*
X53054Y91300D02*
X52200D01*
Y89646D01*
X53054D01*
Y91300D01*
D02*
G37*
G36*
X51800D02*
X50946D01*
Y89646D01*
X51800D01*
Y91300D01*
D02*
G37*
G36*
X45054Y91300D02*
X44200D01*
Y89646D01*
X45054D01*
Y91300D01*
D02*
G37*
G36*
X43800D02*
X42946D01*
Y89646D01*
X43800D01*
Y91300D01*
D02*
G37*
G36*
X19733Y91800D02*
X17437D01*
Y89504D01*
X17727Y89532D01*
X18199Y89675D01*
X18634Y89908D01*
X19016Y90221D01*
X19329Y90602D01*
X19561Y91037D01*
X19704Y91509D01*
X19733Y91800D01*
D02*
G37*
G36*
X17037D02*
X14740D01*
X14769Y91509D01*
X14912Y91037D01*
X15144Y90602D01*
X15457Y90221D01*
X15839Y89908D01*
X16274Y89675D01*
X16746Y89532D01*
X17037Y89504D01*
Y91800D01*
D02*
G37*
G36*
X12736Y91496D02*
Y89200D01*
X15033D01*
X15004Y89491D01*
X14861Y89963D01*
X14629Y90398D01*
X14316Y90779D01*
X13934Y91092D01*
X13499Y91325D01*
X13027Y91468D01*
X12736Y91496D01*
D02*
G37*
G36*
X12336D02*
X12046Y91468D01*
X11574Y91325D01*
X11139Y91092D01*
X10757Y90779D01*
X10444Y90398D01*
X10212Y89963D01*
X10069Y89491D01*
X10040Y89200D01*
X12336D01*
Y91496D01*
D02*
G37*
G36*
X38154Y89900D02*
X37200D01*
Y88946D01*
X38154D01*
Y89900D01*
D02*
G37*
G36*
X36800D02*
X35846D01*
Y88946D01*
X36800D01*
Y89900D01*
D02*
G37*
G36*
X72521Y89024D02*
X71917D01*
Y88170D01*
X72521D01*
Y89024D01*
D02*
G37*
G36*
X71517D02*
X70913D01*
Y88170D01*
X71517D01*
Y89024D01*
D02*
G37*
G36*
X72521Y87770D02*
X71917D01*
Y86916D01*
X72521D01*
Y87770D01*
D02*
G37*
G36*
X71517D02*
X70913D01*
Y86916D01*
X71517D01*
Y87770D01*
D02*
G37*
G36*
X12336Y88800D02*
X10040D01*
X10069Y88509D01*
X10212Y88037D01*
X10444Y87602D01*
X10757Y87221D01*
X11139Y86908D01*
X11574Y86675D01*
X12046Y86532D01*
X12336Y86504D01*
Y88800D01*
D02*
G37*
G36*
X15033D02*
X12736D01*
Y86504D01*
X13027Y86532D01*
X13499Y86675D01*
X13934Y86908D01*
X14316Y87221D01*
X14629Y87602D01*
X14861Y88037D01*
X15004Y88509D01*
X15033Y88800D01*
D02*
G37*
G36*
X73487Y86334D02*
X72933D01*
Y85630D01*
X73487D01*
Y86334D01*
D02*
G37*
G36*
X72533D02*
X71979D01*
Y85630D01*
X72533D01*
Y86334D01*
D02*
G37*
G36*
X73487Y85230D02*
X72933D01*
Y84526D01*
X73487D01*
Y85230D01*
D02*
G37*
G36*
X72533D02*
X71979D01*
Y84526D01*
X72533D01*
Y85230D01*
D02*
G37*
G36*
X17236Y88516D02*
X16746Y88468D01*
X16274Y88325D01*
X15839Y88092D01*
X15457Y87779D01*
X15144Y87398D01*
X14912Y86963D01*
X14769Y86491D01*
X14720Y86000D01*
X14769Y85509D01*
X14912Y85037D01*
X15144Y84602D01*
X15457Y84221D01*
X15839Y83908D01*
X16274Y83675D01*
X16746Y83532D01*
X17236Y83484D01*
X17727Y83532D01*
X18199Y83675D01*
X18634Y83908D01*
X19016Y84221D01*
X19329Y84602D01*
X19561Y85037D01*
X19653Y85340D01*
X26825D01*
Y84032D01*
X29238D01*
Y87968D01*
X26825D01*
Y86660D01*
X19653D01*
X19561Y86963D01*
X19329Y87398D01*
X19016Y87779D01*
X18634Y88092D01*
X18199Y88325D01*
X17727Y88468D01*
X17236Y88516D01*
D02*
G37*
G36*
X15910Y81547D02*
Y81014D01*
X16443D01*
X16369Y81194D01*
X16248Y81352D01*
X16090Y81473D01*
X15910Y81547D01*
D02*
G37*
G36*
X15510D02*
X15330Y81473D01*
X15172Y81352D01*
X15051Y81194D01*
X14977Y81014D01*
X15510D01*
Y81547D01*
D02*
G37*
G36*
X16443Y80614D02*
X15910D01*
Y80081D01*
X16090Y80155D01*
X16248Y80276D01*
X16369Y80434D01*
X16443Y80614D01*
D02*
G37*
G36*
X15510D02*
X14977D01*
X15051Y80434D01*
X15172Y80276D01*
X15330Y80155D01*
X15510Y80081D01*
Y80614D01*
D02*
G37*
G36*
X30307Y79686D02*
X28799D01*
Y79194D01*
X25869D01*
X25773Y79320D01*
X25615Y79441D01*
X25432Y79517D01*
X25235Y79543D01*
X25038Y79517D01*
X24855Y79441D01*
X24697Y79320D01*
X24576Y79162D01*
X24500Y78979D01*
X24474Y78782D01*
X24500Y78585D01*
X24576Y78402D01*
X24697Y78244D01*
X24855Y78123D01*
X25038Y78047D01*
X25235Y78021D01*
X25432Y78047D01*
X25615Y78123D01*
X25773Y78244D01*
X25869Y78370D01*
X28799D01*
Y77878D01*
X30307D01*
Y79686D01*
D02*
G37*
G36*
X81852Y91929D02*
X80644D01*
Y90421D01*
X80838D01*
Y85330D01*
X80869Y85172D01*
X80959Y85039D01*
X82838Y83159D01*
Y81964D01*
X82712Y81868D01*
X82591Y81710D01*
X82515Y81527D01*
X82489Y81330D01*
X82515Y81133D01*
X82591Y80950D01*
X82712Y80792D01*
X82838Y80696D01*
Y79818D01*
X82346D01*
Y78310D01*
X84154D01*
Y79818D01*
X83662D01*
Y80696D01*
X83788Y80792D01*
X83909Y80950D01*
X83985Y81133D01*
X84011Y81330D01*
X83985Y81527D01*
X83909Y81710D01*
X83788Y81868D01*
X83662Y81964D01*
Y83330D01*
X83631Y83488D01*
X83541Y83621D01*
X81662Y85501D01*
Y90421D01*
X81852D01*
Y91929D01*
D02*
G37*
G36*
X61244Y78095D02*
X59190D01*
Y76541D01*
X61244D01*
Y78095D01*
D02*
G37*
G36*
X74765Y90761D02*
X74568Y90735D01*
X74385Y90659D01*
X74227Y90538D01*
X74106Y90380D01*
X74030Y90197D01*
X74004Y90000D01*
X74030Y89803D01*
X74106Y89620D01*
X74227Y89462D01*
X74353Y89366D01*
Y89024D01*
X73961D01*
Y86916D01*
X74353D01*
Y86334D01*
X74011D01*
Y84526D01*
X74353D01*
Y80235D01*
X74384Y80077D01*
X74474Y79944D01*
X77677Y76741D01*
X77810Y76651D01*
X77968Y76620D01*
X80346D01*
Y76278D01*
X82154D01*
Y76278D01*
X82346D01*
Y76278D01*
X84154D01*
Y76620D01*
X85096D01*
Y76278D01*
X86904D01*
Y77786D01*
X85096D01*
Y77444D01*
X84154D01*
Y77786D01*
X82346D01*
Y77786D01*
X82154D01*
Y77786D01*
X80346D01*
Y77444D01*
X78139D01*
X75177Y80406D01*
Y84526D01*
X75519D01*
Y86334D01*
X75177D01*
Y86916D01*
X75569D01*
Y89024D01*
X75177D01*
Y89366D01*
X75303Y89462D01*
X75424Y89620D01*
X75500Y89803D01*
X75525Y90000D01*
X75500Y90197D01*
X75424Y90380D01*
X75303Y90538D01*
X75145Y90659D01*
X74962Y90735D01*
X74765Y90761D01*
D02*
G37*
G36*
X61244Y76141D02*
X59190D01*
Y74587D01*
X61244D01*
Y76141D01*
D02*
G37*
G36*
X75841Y74660D02*
Y74127D01*
X76374D01*
X76300Y74307D01*
X76179Y74465D01*
X76021Y74586D01*
X75841Y74660D01*
D02*
G37*
G36*
X75441D02*
X75261Y74586D01*
X75103Y74465D01*
X74983Y74307D01*
X74908Y74127D01*
X75441D01*
Y74660D01*
D02*
G37*
G36*
X76374Y73727D02*
X75841D01*
Y73194D01*
X76021Y73268D01*
X76179Y73389D01*
X76300Y73547D01*
X76374Y73727D01*
D02*
G37*
G36*
X75441D02*
X74908D01*
X74983Y73547D01*
X75103Y73389D01*
X75261Y73268D01*
X75441Y73194D01*
Y73727D01*
D02*
G37*
G36*
X76448Y72574D02*
X75894D01*
Y71870D01*
X76448D01*
Y72574D01*
D02*
G37*
G36*
X75494D02*
X74940D01*
Y71870D01*
X75494D01*
Y72574D01*
D02*
G37*
G36*
X82154Y75754D02*
X80346D01*
Y74246D01*
X80838D01*
Y72304D01*
X80712Y72208D01*
X80591Y72050D01*
X80515Y71867D01*
X80489Y71670D01*
X80515Y71473D01*
X80591Y71290D01*
X80712Y71132D01*
X80870Y71011D01*
X81053Y70935D01*
X81250Y70909D01*
X81447Y70935D01*
X81630Y71011D01*
X81788Y71132D01*
X81909Y71290D01*
X81985Y71473D01*
X82011Y71670D01*
X81985Y71867D01*
X81909Y72050D01*
X81788Y72208D01*
X81662Y72304D01*
Y74246D01*
X82154D01*
Y75754D01*
D02*
G37*
G36*
X78480Y72574D02*
X76972D01*
Y70766D01*
X78480D01*
Y70946D01*
X78553Y71004D01*
X78780Y71080D01*
X78870Y71011D01*
X79053Y70935D01*
X79250Y70909D01*
X79447Y70935D01*
X79630Y71011D01*
X79788Y71132D01*
X79909Y71290D01*
X79985Y71473D01*
X80011Y71670D01*
X79985Y71867D01*
X79909Y72050D01*
X79788Y72208D01*
X79630Y72329D01*
X79447Y72405D01*
X79250Y72431D01*
X79053Y72405D01*
X78870Y72329D01*
X78780Y72260D01*
X78553Y72336D01*
X78480Y72394D01*
Y72574D01*
D02*
G37*
G36*
X76448Y71470D02*
X75894D01*
Y70766D01*
X76448D01*
Y71470D01*
D02*
G37*
G36*
X75494D02*
X74940D01*
Y70766D01*
X75494D01*
Y71470D01*
D02*
G37*
G36*
X62198Y71945D02*
X61644D01*
Y70741D01*
X62198D01*
Y71945D01*
D02*
G37*
G36*
X61244D02*
X60690D01*
Y70741D01*
X61244D01*
Y71945D01*
D02*
G37*
G36*
X10830Y71133D02*
Y70600D01*
X11363D01*
X11289Y70780D01*
X11168Y70938D01*
X11010Y71059D01*
X10830Y71133D01*
D02*
G37*
G36*
X37398Y70200D02*
X36865D01*
Y69667D01*
X37045Y69741D01*
X37203Y69862D01*
X37324Y70020D01*
X37398Y70200D01*
D02*
G37*
G36*
X36465D02*
X35932D01*
X36006Y70020D01*
X36127Y69862D01*
X36285Y69741D01*
X36465Y69667D01*
Y70200D01*
D02*
G37*
G36*
X11363D02*
X10830D01*
Y69667D01*
X11010Y69741D01*
X11168Y69862D01*
X11289Y70020D01*
X11363Y70200D01*
D02*
G37*
G36*
X62198Y70341D02*
X61644D01*
Y69137D01*
X62198D01*
Y70341D01*
D02*
G37*
G36*
X61244D02*
X60690D01*
Y69137D01*
X61244D01*
Y70341D01*
D02*
G37*
G36*
X82854Y70234D02*
X80646D01*
Y68026D01*
X82854D01*
Y70234D01*
D02*
G37*
G36*
X21894D02*
X19686D01*
Y68026D01*
X21894D01*
Y70234D01*
D02*
G37*
G36*
X79210Y70244D02*
X78922Y70206D01*
X78653Y70094D01*
X78423Y69917D01*
X78246Y69687D01*
X78134Y69418D01*
X78096Y69130D01*
X78134Y68842D01*
X78246Y68573D01*
X78423Y68343D01*
X78653Y68166D01*
X78922Y68054D01*
X79210Y68016D01*
X79498Y68054D01*
X79767Y68166D01*
X79997Y68343D01*
X80174Y68573D01*
X80286Y68842D01*
X80324Y69130D01*
X80286Y69418D01*
X80174Y69687D01*
X79997Y69917D01*
X79767Y70094D01*
X79498Y70206D01*
X79210Y70244D01*
D02*
G37*
G36*
X18250D02*
X17962Y70206D01*
X17693Y70094D01*
X17463Y69917D01*
X17286Y69687D01*
X17174Y69418D01*
X17136Y69130D01*
X17174Y68842D01*
X17286Y68573D01*
X17463Y68343D01*
X17693Y68166D01*
X17962Y68054D01*
X18250Y68016D01*
X18538Y68054D01*
X18807Y68166D01*
X19037Y68343D01*
X19214Y68573D01*
X19326Y68842D01*
X19364Y69130D01*
X19326Y69418D01*
X19214Y69687D01*
X19037Y69917D01*
X18807Y70094D01*
X18538Y70206D01*
X18250Y70244D01*
D02*
G37*
G36*
X69054Y67902D02*
X68200D01*
Y67298D01*
X69054D01*
Y67902D01*
D02*
G37*
G36*
X67800D02*
X66946D01*
Y67298D01*
X67800D01*
Y67902D01*
D02*
G37*
G36*
X69054Y66898D02*
X68200D01*
Y66294D01*
X69054D01*
Y66898D01*
D02*
G37*
G36*
X67800D02*
X66946D01*
Y66294D01*
X67800D01*
Y66898D01*
D02*
G37*
G36*
X71904Y66836D02*
X71200D01*
Y66282D01*
X71904D01*
Y66836D01*
D02*
G37*
G36*
X74904D02*
X74200D01*
Y66282D01*
X74904D01*
Y66836D01*
D02*
G37*
G36*
X73800D02*
X73096D01*
Y66282D01*
X73800D01*
Y66836D01*
D02*
G37*
G36*
X70800D02*
X70096D01*
Y66282D01*
X70800D01*
Y66836D01*
D02*
G37*
G36*
X81750Y67704D02*
X81462Y67666D01*
X81193Y67554D01*
X80963Y67377D01*
X80786Y67147D01*
X80674Y66878D01*
X80636Y66590D01*
X80674Y66302D01*
X80786Y66033D01*
X80963Y65803D01*
X81193Y65626D01*
X81462Y65514D01*
X81750Y65476D01*
X82038Y65514D01*
X82307Y65626D01*
X82537Y65803D01*
X82714Y66033D01*
X82826Y66302D01*
X82864Y66590D01*
X82826Y66878D01*
X82714Y67147D01*
X82537Y67377D01*
X82307Y67554D01*
X82038Y67666D01*
X81750Y67704D01*
D02*
G37*
G36*
X79210D02*
X78922Y67666D01*
X78653Y67554D01*
X78423Y67377D01*
X78246Y67147D01*
X78134Y66878D01*
X78096Y66590D01*
X78134Y66302D01*
X78246Y66033D01*
X78423Y65803D01*
X78653Y65626D01*
X78922Y65514D01*
X79210Y65476D01*
X79498Y65514D01*
X79767Y65626D01*
X79997Y65803D01*
X80174Y66033D01*
X80286Y66302D01*
X80324Y66590D01*
X80286Y66878D01*
X80174Y67147D01*
X79997Y67377D01*
X79767Y67554D01*
X79498Y67666D01*
X79210Y67704D01*
D02*
G37*
G36*
X18250D02*
X17962Y67666D01*
X17693Y67554D01*
X17463Y67377D01*
X17286Y67147D01*
X17174Y66878D01*
X17136Y66590D01*
X17174Y66302D01*
X17286Y66033D01*
X17463Y65803D01*
X17693Y65626D01*
X17962Y65514D01*
X18250Y65476D01*
X18538Y65514D01*
X18807Y65626D01*
X19037Y65803D01*
X19214Y66033D01*
X19326Y66302D01*
X19364Y66590D01*
X19326Y66878D01*
X19214Y67147D01*
X19037Y67377D01*
X18807Y67554D01*
X18538Y67666D01*
X18250Y67704D01*
D02*
G37*
G36*
X74904Y65882D02*
X74200D01*
Y65328D01*
X74904D01*
Y65882D01*
D02*
G37*
G36*
X73800D02*
X73096D01*
Y65328D01*
X73800D01*
Y65882D01*
D02*
G37*
G36*
X71904D02*
X71200D01*
Y65328D01*
X71904D01*
Y65882D01*
D02*
G37*
G36*
X70800D02*
X70096D01*
Y65328D01*
X70800D01*
Y65882D01*
D02*
G37*
G36*
X18250Y65164D02*
X17962Y65126D01*
X17693Y65014D01*
X17463Y64837D01*
X17286Y64607D01*
X17174Y64338D01*
X17136Y64050D01*
X17174Y63762D01*
X17286Y63493D01*
X17463Y63263D01*
X17693Y63086D01*
X17962Y62974D01*
X18250Y62936D01*
X18538Y62974D01*
X18807Y63086D01*
X19037Y63263D01*
X19214Y63493D01*
X19326Y63762D01*
X19364Y64050D01*
X19326Y64338D01*
X19214Y64607D01*
X19037Y64837D01*
X18807Y65014D01*
X18538Y65126D01*
X18250Y65164D01*
D02*
G37*
G36*
X55880Y62166D02*
X55026D01*
Y60512D01*
X55880D01*
Y62166D01*
D02*
G37*
G36*
X54626D02*
X53772D01*
Y60512D01*
X54626D01*
Y62166D01*
D02*
G37*
G36*
X44920Y62017D02*
X44723Y61991D01*
X44540Y61915D01*
X44382Y61794D01*
X44286Y61668D01*
X27888D01*
X27730Y61637D01*
X27597Y61547D01*
X22165Y56115D01*
X21881Y56255D01*
X21904Y56430D01*
X21866Y56718D01*
X21754Y56987D01*
X21577Y57217D01*
X21347Y57394D01*
X21078Y57506D01*
X20790Y57544D01*
X20502Y57506D01*
X20233Y57394D01*
X20003Y57217D01*
X19826Y56987D01*
X19714Y56718D01*
X19676Y56430D01*
X19714Y56142D01*
X19826Y55873D01*
X19882Y55800D01*
X19864Y55465D01*
X19819Y55406D01*
X19274Y54861D01*
X19215Y54816D01*
X18880Y54798D01*
X18807Y54854D01*
X18538Y54966D01*
X18250Y55004D01*
X17962Y54966D01*
X17693Y54854D01*
X17463Y54677D01*
X17286Y54447D01*
X17174Y54178D01*
X17136Y53890D01*
X17174Y53602D01*
X17286Y53333D01*
X17463Y53103D01*
X17693Y52926D01*
X17962Y52814D01*
X18250Y52776D01*
X18538Y52814D01*
X18892Y52636D01*
X18904Y52587D01*
X18683Y52366D01*
X18538Y52426D01*
X18250Y52464D01*
X17962Y52426D01*
X17693Y52314D01*
X17463Y52137D01*
X17286Y51907D01*
X17174Y51638D01*
X17136Y51350D01*
X17174Y51062D01*
X17286Y50793D01*
X17463Y50563D01*
X17693Y50386D01*
X17962Y50274D01*
X18250Y50236D01*
X18538Y50274D01*
X18807Y50386D01*
X19037Y50563D01*
X19214Y50793D01*
X19326Y51062D01*
X19364Y51350D01*
X19326Y51638D01*
X19266Y51783D01*
X19640Y52157D01*
X19866Y51959D01*
X19826Y51907D01*
X19714Y51638D01*
X19676Y51350D01*
X19714Y51062D01*
X19826Y50793D01*
X20003Y50563D01*
X20233Y50386D01*
X20502Y50274D01*
X20790Y50236D01*
X21078Y50274D01*
X21347Y50386D01*
X21577Y50563D01*
X21692Y50712D01*
X21967Y50772D01*
X22066Y50762D01*
X22836Y49991D01*
X22721Y49691D01*
X22426D01*
Y48183D01*
X24188D01*
Y47659D01*
X22426D01*
Y46151D01*
X22918D01*
Y20816D01*
X21752Y19650D01*
X21469Y19675D01*
X21403Y19949D01*
X21577Y20083D01*
X21754Y20313D01*
X21866Y20582D01*
X21904Y20870D01*
X21866Y21158D01*
X21754Y21427D01*
X21577Y21657D01*
X21347Y21834D01*
X21078Y21946D01*
X20790Y21984D01*
X20502Y21946D01*
X20233Y21834D01*
X20003Y21657D01*
X19826Y21427D01*
X19714Y21158D01*
X19676Y20870D01*
X19714Y20582D01*
X19826Y20313D01*
X20003Y20083D01*
X20186Y19942D01*
X20162Y19759D01*
X20105Y19642D01*
X19029D01*
X18836Y19905D01*
X18840Y19931D01*
X19037Y20083D01*
X19214Y20313D01*
X19326Y20582D01*
X19364Y20870D01*
X19326Y21158D01*
X19214Y21427D01*
X19037Y21657D01*
X18807Y21834D01*
X18538Y21946D01*
X18250Y21984D01*
X17962Y21946D01*
X17693Y21834D01*
X17463Y21657D01*
X17286Y21427D01*
X17174Y21158D01*
X17136Y20870D01*
X17174Y20582D01*
X17286Y20313D01*
X17463Y20083D01*
X17693Y19906D01*
X17962Y19794D01*
X18250Y19756D01*
X18544Y19498D01*
X18551Y19438D01*
X17741Y18628D01*
X17703Y18658D01*
X17373Y18794D01*
X17020Y18841D01*
X16667Y18794D01*
X16337Y18658D01*
X16054Y18441D01*
X15837Y18158D01*
X15701Y17828D01*
X15654Y17475D01*
Y17175D01*
X15701Y16822D01*
X15837Y16492D01*
X16054Y16209D01*
X16337Y15992D01*
X16667Y15856D01*
X17020Y15809D01*
X17373Y15856D01*
X17703Y15992D01*
X17986Y16209D01*
X18090Y16345D01*
X18450D01*
X18554Y16209D01*
X18837Y15992D01*
X19167Y15856D01*
X19320Y15836D01*
Y17325D01*
X19720D01*
Y15836D01*
X19873Y15856D01*
X20203Y15992D01*
X20486Y16209D01*
X20590Y16345D01*
X20950D01*
X21054Y16209D01*
X21337Y15992D01*
X21667Y15856D01*
X22020Y15809D01*
X22373Y15856D01*
X22703Y15992D01*
X22986Y16209D01*
X23203Y16492D01*
X23339Y16822D01*
X23386Y17175D01*
Y17475D01*
X23339Y17828D01*
X23271Y17993D01*
X24891Y19614D01*
X24981Y19747D01*
X25012Y19905D01*
Y26607D01*
X25312Y26709D01*
X25332Y26682D01*
X25490Y26561D01*
X25673Y26485D01*
X25870Y26459D01*
X26027Y26480D01*
X28119Y24389D01*
X28252Y24299D01*
X28410Y24268D01*
X44905D01*
Y23799D01*
X46713D01*
Y24268D01*
X55931D01*
Y23749D01*
X58039D01*
Y24268D01*
X58510D01*
X58606Y24142D01*
X58732Y24046D01*
Y22542D01*
X58763Y22385D01*
X58853Y22251D01*
X63973Y17131D01*
X63966Y17015D01*
X63883Y16796D01*
X63773Y16751D01*
X63615Y16630D01*
X63494Y16472D01*
X63420Y16292D01*
X64153D01*
Y16092D01*
X64353D01*
Y15359D01*
X64533Y15433D01*
X64691Y15554D01*
X64812Y15712D01*
X64857Y15822D01*
X65076Y15905D01*
X65192Y15912D01*
X66367Y14737D01*
X66501Y14647D01*
X66658Y14616D01*
X68289D01*
X68385Y14490D01*
X68543Y14369D01*
X68726Y14293D01*
X68923Y14267D01*
X69120Y14293D01*
X69330Y14160D01*
X69397Y14084D01*
X69418Y13923D01*
X69494Y13740D01*
X69615Y13582D01*
X69773Y13461D01*
X69953Y13387D01*
Y14120D01*
Y14856D01*
X69746Y14988D01*
X69679Y15064D01*
X69658Y15225D01*
X69582Y15408D01*
X69461Y15566D01*
X69303Y15687D01*
X69120Y15763D01*
X68923Y15789D01*
X68726Y15763D01*
X68543Y15687D01*
X68385Y15566D01*
X68289Y15440D01*
X66829D01*
X59556Y22713D01*
Y24046D01*
X59682Y24142D01*
X59803Y24300D01*
X59879Y24483D01*
X59904Y24680D01*
X59879Y24877D01*
X59803Y25060D01*
X59682Y25218D01*
X59524Y25339D01*
X59341Y25415D01*
X59144Y25441D01*
X58947Y25415D01*
X58764Y25339D01*
X58606Y25218D01*
X58510Y25092D01*
X58039D01*
Y25357D01*
X55931D01*
Y25092D01*
X46713D01*
Y25307D01*
X44905D01*
Y25092D01*
X28581D01*
X26610Y27063D01*
X26631Y27220D01*
X26605Y27417D01*
X26529Y27600D01*
X26408Y27758D01*
X26250Y27879D01*
X26067Y27955D01*
X25870Y27981D01*
X25673Y27955D01*
X25490Y27879D01*
X25332Y27758D01*
X25312Y27731D01*
X25012Y27833D01*
Y31687D01*
X25312Y31789D01*
X25332Y31762D01*
X25490Y31641D01*
X25673Y31565D01*
X25870Y31539D01*
X26067Y31565D01*
X26250Y31641D01*
X26408Y31762D01*
X26504Y31888D01*
X35784D01*
Y31269D01*
X37292D01*
Y33077D01*
X35784D01*
Y32712D01*
X26504D01*
X26408Y32838D01*
X26250Y32959D01*
X26067Y33035D01*
X25870Y33061D01*
X25673Y33035D01*
X25490Y32959D01*
X25332Y32838D01*
X25312Y32811D01*
X25012Y32913D01*
Y36767D01*
X25312Y36869D01*
X25332Y36842D01*
X25490Y36721D01*
X25673Y36645D01*
X25870Y36619D01*
X26067Y36645D01*
X26250Y36721D01*
X26408Y36842D01*
X26504Y36968D01*
X34126D01*
X34222Y36842D01*
X34380Y36721D01*
X34563Y36645D01*
X34760Y36619D01*
X34957Y36645D01*
X35140Y36721D01*
X35298Y36842D01*
X35419Y37000D01*
X35495Y37183D01*
X35521Y37380D01*
X35500Y37539D01*
X35575Y37610D01*
X35772Y37691D01*
X36253Y37209D01*
Y34840D01*
X36284Y34682D01*
X36374Y34549D01*
X37136Y33787D01*
X37269Y33697D01*
X37427Y33666D01*
X37604D01*
X37816Y33454D01*
X37816Y33174D01*
X37816Y32874D01*
Y31269D01*
X39324D01*
Y31761D01*
X39848D01*
Y31269D01*
X40190D01*
Y30137D01*
X40048D01*
Y29129D01*
X41156D01*
Y30137D01*
X41014D01*
Y31269D01*
X41356D01*
Y32874D01*
X41356Y33077D01*
X41356Y33366D01*
X41382Y33666D01*
X41730D01*
Y33324D01*
X41752D01*
X41880Y33077D01*
X41880Y33024D01*
Y31269D01*
X42222D01*
Y30768D01*
X41730D01*
Y29260D01*
X43538D01*
Y30768D01*
X43046D01*
Y31269D01*
X43388D01*
Y31761D01*
X44039D01*
X44128Y31501D01*
X44135Y31461D01*
X44017Y31284D01*
X43974Y31068D01*
Y30468D01*
X44539D01*
Y30268D01*
X44739D01*
Y28943D01*
X44755Y28946D01*
X44938Y29069D01*
X45268Y29060D01*
X45397Y28932D01*
Y27339D01*
X44905D01*
Y25831D01*
X46713D01*
Y27339D01*
X46221D01*
Y29087D01*
X46277Y29172D01*
X46330Y29187D01*
X46558D01*
X46611Y29172D01*
X46680Y29069D01*
X46863Y28946D01*
X47079Y28903D01*
X47295Y28946D01*
X47478Y29069D01*
X47547Y29172D01*
X47600Y29187D01*
X47828D01*
X47881Y29172D01*
X47950Y29069D01*
X48133Y28946D01*
X48349Y28903D01*
X48565Y28946D01*
X48748Y29069D01*
X48871Y29252D01*
X48914Y29468D01*
Y29856D01*
X55850D01*
Y29364D01*
X57358D01*
Y31172D01*
X55850D01*
Y30680D01*
X48914D01*
Y31068D01*
X48871Y31284D01*
X48748Y31467D01*
X48565Y31590D01*
X48349Y31633D01*
X48133Y31590D01*
X47950Y31467D01*
X47881Y31364D01*
X47828Y31349D01*
X47600D01*
X47547Y31364D01*
X47478Y31467D01*
X47295Y31590D01*
X47079Y31633D01*
X46863Y31590D01*
X46680Y31467D01*
X46345Y31448D01*
X46221Y31538D01*
X46190Y31696D01*
X46100Y31829D01*
X45465Y32464D01*
X45332Y32554D01*
X45174Y32585D01*
X43388D01*
Y33024D01*
X43388Y33077D01*
X43516Y33324D01*
X43538D01*
Y34832D01*
X41730D01*
Y34490D01*
X41356D01*
Y34982D01*
X41014D01*
Y35479D01*
X41156D01*
Y36487D01*
X40048D01*
Y35479D01*
X40190D01*
Y34982D01*
X39848D01*
Y33377D01*
X39848Y33174D01*
X39848Y32885D01*
X39824Y32614D01*
X39529Y32592D01*
X39324Y32797D01*
X39324Y33077D01*
X39324Y33377D01*
Y34982D01*
X37816D01*
Y34687D01*
X37516Y34572D01*
X37077Y35011D01*
Y37380D01*
X37046Y37538D01*
X36956Y37671D01*
X35686Y38941D01*
X35553Y39031D01*
X35395Y39062D01*
X27774D01*
X27678Y39188D01*
X27520Y39309D01*
X27337Y39385D01*
X27140Y39411D01*
X26943Y39385D01*
X26760Y39309D01*
X26602Y39188D01*
X26481Y39030D01*
X26405Y38847D01*
X26379Y38650D01*
X26405Y38453D01*
X26481Y38270D01*
X26538Y38196D01*
X26324Y37982D01*
X26250Y38039D01*
X26067Y38115D01*
X25870Y38141D01*
X25673Y38115D01*
X25490Y38039D01*
X25332Y37918D01*
X25312Y37891D01*
X25012Y37993D01*
Y51104D01*
X25504D01*
Y52612D01*
X23696D01*
Y51104D01*
X24188D01*
Y49691D01*
X23742D01*
Y50080D01*
X23711Y50238D01*
X23621Y50371D01*
X22351Y51641D01*
X22218Y51731D01*
X22060Y51762D01*
X21814D01*
X21754Y51907D01*
X21577Y52137D01*
X21347Y52314D01*
X21078Y52426D01*
X20790Y52464D01*
X20502Y52426D01*
X20233Y52314D01*
X20088Y52203D01*
X19866Y52411D01*
X19901Y52462D01*
X19932Y52620D01*
Y52779D01*
X20232Y52927D01*
X20233Y52926D01*
X20502Y52814D01*
X20790Y52776D01*
X21078Y52814D01*
X21347Y52926D01*
X21577Y53103D01*
X21754Y53333D01*
X21814Y53478D01*
X23696D01*
Y53136D01*
X25504D01*
Y54644D01*
X23696D01*
Y54302D01*
X21989D01*
X21849Y54452D01*
X21832Y54495D01*
X21950Y54779D01*
X22083Y54869D01*
X28059Y60844D01*
X44286D01*
X44382Y60718D01*
X44540Y60597D01*
X44723Y60521D01*
X44920Y60495D01*
X45117Y60521D01*
X45300Y60597D01*
X45458Y60718D01*
X45579Y60876D01*
X45655Y61059D01*
X45681Y61256D01*
X45655Y61453D01*
X45579Y61636D01*
X45458Y61794D01*
X45300Y61915D01*
X45117Y61991D01*
X44920Y62017D01*
D02*
G37*
G36*
X80297Y61310D02*
X79410D01*
Y60423D01*
X79498Y60434D01*
X79767Y60546D01*
X79997Y60723D01*
X80174Y60953D01*
X80286Y61222D01*
X80297Y61310D01*
D02*
G37*
G36*
X79010D02*
X78123D01*
X78134Y61222D01*
X78246Y60953D01*
X78423Y60723D01*
X78653Y60546D01*
X78922Y60434D01*
X79010Y60423D01*
Y61310D01*
D02*
G37*
G36*
X20790Y62624D02*
X20502Y62586D01*
X20233Y62474D01*
X20003Y62297D01*
X19826Y62067D01*
X19714Y61798D01*
X19676Y61510D01*
X19714Y61222D01*
X19826Y60953D01*
X20003Y60723D01*
X20233Y60546D01*
X20502Y60434D01*
X20790Y60396D01*
X21078Y60434D01*
X21347Y60546D01*
X21577Y60723D01*
X21754Y60953D01*
X21866Y61222D01*
X21904Y61510D01*
X21866Y61798D01*
X21754Y62067D01*
X21577Y62297D01*
X21347Y62474D01*
X21078Y62586D01*
X20790Y62624D01*
D02*
G37*
G36*
X18250D02*
X17962Y62586D01*
X17693Y62474D01*
X17463Y62297D01*
X17286Y62067D01*
X17174Y61798D01*
X17136Y61510D01*
X17174Y61222D01*
X17286Y60953D01*
X17463Y60723D01*
X17693Y60546D01*
X17962Y60434D01*
X18250Y60396D01*
X18538Y60434D01*
X18807Y60546D01*
X19037Y60723D01*
X19214Y60953D01*
X19326Y61222D01*
X19364Y61510D01*
X19326Y61798D01*
X19214Y62067D01*
X19037Y62297D01*
X18807Y62474D01*
X18538Y62586D01*
X18250Y62624D01*
D02*
G37*
G36*
X2575Y60692D02*
Y59805D01*
X3462D01*
X3451Y59893D01*
X3339Y60162D01*
X3162Y60392D01*
X2932Y60569D01*
X2663Y60681D01*
X2575Y60692D01*
D02*
G37*
G36*
X20990Y60057D02*
Y59170D01*
X21877D01*
X21866Y59258D01*
X21754Y59527D01*
X21577Y59757D01*
X21347Y59934D01*
X21078Y60046D01*
X20990Y60057D01*
D02*
G37*
G36*
X20590Y60057D02*
X20502Y60046D01*
X20233Y59934D01*
X20003Y59757D01*
X19826Y59527D01*
X19714Y59258D01*
X19703Y59170D01*
X20590D01*
Y60057D01*
D02*
G37*
G36*
X3462Y59405D02*
X2575D01*
Y58518D01*
X2663Y58529D01*
X2932Y58641D01*
X3162Y58818D01*
X3339Y59048D01*
X3451Y59317D01*
X3462Y59405D01*
D02*
G37*
G36*
X20590Y58770D02*
X19703D01*
X19714Y58682D01*
X19826Y58413D01*
X20003Y58183D01*
X20233Y58006D01*
X20502Y57894D01*
X20590Y57883D01*
Y58770D01*
D02*
G37*
G36*
X21877D02*
X20990D01*
Y57883D01*
X21078Y57894D01*
X21347Y58006D01*
X21577Y58183D01*
X21754Y58413D01*
X21866Y58682D01*
X21877Y58770D01*
D02*
G37*
G36*
X81750Y60084D02*
X81462Y60046D01*
X81193Y59934D01*
X80963Y59757D01*
X80786Y59527D01*
X80674Y59258D01*
X80636Y58970D01*
X80674Y58682D01*
X80786Y58413D01*
X80963Y58183D01*
X81193Y58006D01*
X81462Y57894D01*
X81750Y57856D01*
X82038Y57894D01*
X82307Y58006D01*
X82537Y58183D01*
X82714Y58413D01*
X82826Y58682D01*
X82864Y58970D01*
X82826Y59258D01*
X82714Y59527D01*
X82537Y59757D01*
X82307Y59934D01*
X82038Y60046D01*
X81750Y60084D01*
D02*
G37*
G36*
X79210D02*
X78922Y60046D01*
X78653Y59934D01*
X78423Y59757D01*
X78246Y59527D01*
X78134Y59258D01*
X78096Y58970D01*
X78134Y58682D01*
X78246Y58413D01*
X78423Y58183D01*
X78653Y58006D01*
X78922Y57894D01*
X79210Y57856D01*
X79498Y57894D01*
X79767Y58006D01*
X79997Y58183D01*
X80174Y58413D01*
X80286Y58682D01*
X80324Y58970D01*
X80286Y59258D01*
X80174Y59527D01*
X79997Y59757D01*
X79767Y59934D01*
X79498Y60046D01*
X79210Y60084D01*
D02*
G37*
G36*
X18250D02*
X17962Y60046D01*
X17693Y59934D01*
X17463Y59757D01*
X17286Y59527D01*
X17174Y59258D01*
X17136Y58970D01*
X17174Y58682D01*
X17286Y58413D01*
X17463Y58183D01*
X17693Y58006D01*
X17962Y57894D01*
X18250Y57856D01*
X18538Y57894D01*
X18807Y58006D01*
X19037Y58183D01*
X19214Y58413D01*
X19326Y58682D01*
X19364Y58970D01*
X19326Y59258D01*
X19214Y59527D01*
X19037Y59757D01*
X18807Y59934D01*
X18538Y60046D01*
X18250Y60084D01*
D02*
G37*
G36*
X12889Y56422D02*
X12185D01*
Y55868D01*
X12889D01*
Y56422D01*
D02*
G37*
G36*
X11785D02*
X11081D01*
Y55868D01*
X11785D01*
Y56422D01*
D02*
G37*
G36*
X81750Y57544D02*
X81462Y57506D01*
X81193Y57394D01*
X80963Y57217D01*
X80786Y56987D01*
X80674Y56718D01*
X80636Y56430D01*
X80674Y56142D01*
X80786Y55873D01*
X80963Y55643D01*
X81193Y55466D01*
X81462Y55354D01*
X81750Y55316D01*
X82038Y55354D01*
X82307Y55466D01*
X82537Y55643D01*
X82714Y55873D01*
X82826Y56142D01*
X82864Y56430D01*
X82826Y56718D01*
X82714Y56987D01*
X82537Y57217D01*
X82307Y57394D01*
X82038Y57506D01*
X81750Y57544D01*
D02*
G37*
G36*
X79210D02*
X78922Y57506D01*
X78653Y57394D01*
X78423Y57217D01*
X78246Y56987D01*
X78134Y56718D01*
X78096Y56430D01*
X78134Y56142D01*
X78246Y55873D01*
X78423Y55643D01*
X78653Y55466D01*
X78922Y55354D01*
X79210Y55316D01*
X79498Y55354D01*
X79767Y55466D01*
X79997Y55643D01*
X80174Y55873D01*
X80286Y56142D01*
X80324Y56430D01*
X80286Y56718D01*
X80174Y56987D01*
X79997Y57217D01*
X79767Y57394D01*
X79498Y57506D01*
X79210Y57544D01*
D02*
G37*
G36*
X18250D02*
X17962Y57506D01*
X17693Y57394D01*
X17463Y57217D01*
X17286Y56987D01*
X17174Y56718D01*
X17136Y56430D01*
X17174Y56142D01*
X17286Y55873D01*
X17463Y55643D01*
X17693Y55466D01*
X17962Y55354D01*
X18250Y55316D01*
X18538Y55354D01*
X18807Y55466D01*
X19037Y55643D01*
X19214Y55873D01*
X19326Y56142D01*
X19364Y56430D01*
X19326Y56718D01*
X19214Y56987D01*
X19037Y57217D01*
X18807Y57394D01*
X18538Y57506D01*
X18250Y57544D01*
D02*
G37*
G36*
X12889Y55468D02*
X12185D01*
Y54914D01*
X12889D01*
Y55468D01*
D02*
G37*
G36*
X11785D02*
X11081D01*
Y54914D01*
X11785D01*
Y55468D01*
D02*
G37*
G36*
X2575Y55612D02*
Y54725D01*
X3462D01*
X3451Y54813D01*
X3339Y55082D01*
X3162Y55312D01*
X2932Y55489D01*
X2663Y55601D01*
X2575Y55612D01*
D02*
G37*
G36*
X94887Y55041D02*
Y54508D01*
X95420D01*
X95346Y54688D01*
X95225Y54846D01*
X95067Y54967D01*
X94887Y55041D01*
D02*
G37*
G36*
X94487D02*
X94307Y54967D01*
X94149Y54846D01*
X94028Y54688D01*
X93954Y54508D01*
X94487D01*
Y55041D01*
D02*
G37*
G36*
X61699Y58898D02*
X59891D01*
Y57390D01*
X60383D01*
Y55794D01*
X60257Y55698D01*
X60136Y55540D01*
X60060Y55357D01*
X60034Y55160D01*
X60060Y54963D01*
X60136Y54780D01*
X60257Y54622D01*
X60415Y54501D01*
X60598Y54425D01*
X60795Y54399D01*
X60992Y54425D01*
X61175Y54501D01*
X61333Y54622D01*
X61429Y54748D01*
X64606D01*
X64702Y54622D01*
X64860Y54501D01*
X65043Y54425D01*
X65240Y54399D01*
X65437Y54425D01*
X65620Y54501D01*
X65778Y54622D01*
X65899Y54780D01*
X65975Y54963D01*
X66001Y55160D01*
X65975Y55357D01*
X65899Y55540D01*
X65778Y55698D01*
X65620Y55819D01*
X65437Y55895D01*
X65240Y55921D01*
X65043Y55895D01*
X64860Y55819D01*
X64702Y55698D01*
X64606Y55572D01*
X61429D01*
X61333Y55698D01*
X61207Y55794D01*
Y57390D01*
X61699D01*
Y58898D01*
D02*
G37*
G36*
X95420Y54108D02*
X94887D01*
Y53575D01*
X95067Y53649D01*
X95225Y53770D01*
X95346Y53928D01*
X95420Y54108D01*
D02*
G37*
G36*
X94487D02*
X93954D01*
X94028Y53928D01*
X94149Y53770D01*
X94307Y53649D01*
X94487Y53575D01*
Y54108D01*
D02*
G37*
G36*
X3462Y54325D02*
X2575D01*
Y53438D01*
X2663Y53449D01*
X2932Y53561D01*
X3162Y53738D01*
X3339Y53968D01*
X3451Y54237D01*
X3462Y54325D01*
D02*
G37*
G36*
X81750Y55004D02*
X81462Y54966D01*
X81193Y54854D01*
X80963Y54677D01*
X80786Y54447D01*
X80674Y54178D01*
X80636Y53890D01*
X80674Y53602D01*
X80786Y53333D01*
X80963Y53103D01*
X81193Y52926D01*
X81462Y52814D01*
X81750Y52776D01*
X82038Y52814D01*
X82307Y52926D01*
X82537Y53103D01*
X82714Y53333D01*
X82826Y53602D01*
X82864Y53890D01*
X82826Y54178D01*
X82714Y54447D01*
X82537Y54677D01*
X82307Y54854D01*
X82038Y54966D01*
X81750Y55004D01*
D02*
G37*
G36*
X79210D02*
X78922Y54966D01*
X78653Y54854D01*
X78423Y54677D01*
X78246Y54447D01*
X78134Y54178D01*
X78096Y53890D01*
X78134Y53602D01*
X78246Y53333D01*
X78423Y53103D01*
X78653Y52926D01*
X78922Y52814D01*
X79210Y52776D01*
X79498Y52814D01*
X79767Y52926D01*
X79997Y53103D01*
X80174Y53333D01*
X80286Y53602D01*
X80324Y53890D01*
X80286Y54178D01*
X80174Y54447D01*
X79997Y54677D01*
X79767Y54854D01*
X79498Y54966D01*
X79210Y55004D01*
D02*
G37*
G36*
X75542Y52866D02*
Y52866D01*
X75475Y52866D01*
X73734D01*
Y52524D01*
X73344D01*
Y52650D01*
X71836D01*
Y51442D01*
X73344D01*
Y51700D01*
X73734D01*
Y51358D01*
X75542D01*
Y51358D01*
X75766D01*
Y51358D01*
X77574D01*
Y52866D01*
X75833D01*
X75766Y52866D01*
Y52866D01*
X75542D01*
D02*
G37*
G36*
X50600Y59586D02*
X50403Y59560D01*
X50220Y59484D01*
X50062Y59363D01*
X49942Y59205D01*
X49866Y59022D01*
X49840Y58825D01*
X49866Y58628D01*
X49942Y58445D01*
X50062Y58287D01*
X50220Y58166D01*
X50403Y58090D01*
X50600Y58064D01*
X50757Y58085D01*
X58038Y50805D01*
X58172Y50715D01*
X58329Y50684D01*
X69836D01*
Y50492D01*
X71344D01*
Y51700D01*
X69836D01*
Y51508D01*
X58500D01*
X51340Y58668D01*
X51361Y58825D01*
X51335Y59022D01*
X51259Y59205D01*
X51138Y59363D01*
X50980Y59484D01*
X50797Y59560D01*
X50600Y59586D01*
D02*
G37*
G36*
X81750Y52464D02*
X81462Y52426D01*
X81193Y52314D01*
X80963Y52137D01*
X80786Y51907D01*
X80674Y51638D01*
X80636Y51350D01*
X80674Y51062D01*
X80786Y50793D01*
X80897Y50648D01*
X80689Y50426D01*
X80638Y50461D01*
X80480Y50492D01*
X80321D01*
X80173Y50792D01*
X80174Y50793D01*
X80286Y51062D01*
X80324Y51350D01*
X80286Y51638D01*
X80174Y51907D01*
X79997Y52137D01*
X79767Y52314D01*
X79498Y52426D01*
X79210Y52464D01*
X78922Y52426D01*
X78653Y52314D01*
X78423Y52137D01*
X78246Y51907D01*
X78134Y51638D01*
X78096Y51350D01*
X78134Y51062D01*
X78246Y50793D01*
X78247Y50792D01*
X78099Y50492D01*
X77574D01*
Y50834D01*
X75842D01*
X75766Y50834D01*
X75542D01*
X75466Y50834D01*
X74838D01*
Y50080D01*
Y49326D01*
X75466D01*
X75542Y49326D01*
X75766D01*
X75842Y49326D01*
X77574D01*
Y49668D01*
X78099D01*
X78247Y49368D01*
X78246Y49367D01*
X78134Y49098D01*
X78096Y48810D01*
X78134Y48522D01*
X78246Y48253D01*
X78423Y48023D01*
X78653Y47846D01*
X78922Y47734D01*
X79210Y47696D01*
X79498Y47734D01*
X79767Y47846D01*
X79997Y48023D01*
X80174Y48253D01*
X80286Y48522D01*
X80324Y48810D01*
X80286Y49098D01*
X80464Y49452D01*
X80513Y49464D01*
X80734Y49243D01*
X80674Y49098D01*
X80636Y48810D01*
X80674Y48522D01*
X80786Y48253D01*
X80963Y48023D01*
X81193Y47846D01*
X81462Y47734D01*
X81750Y47696D01*
X82038Y47734D01*
X82307Y47846D01*
X82537Y48023D01*
X82714Y48253D01*
X82826Y48522D01*
X82864Y48810D01*
X82826Y49098D01*
X82714Y49367D01*
X82537Y49597D01*
X82307Y49774D01*
X82038Y49886D01*
X81750Y49924D01*
X81462Y49886D01*
X81317Y49826D01*
X80943Y50200D01*
X81141Y50426D01*
X81193Y50386D01*
X81462Y50274D01*
X81750Y50236D01*
X82038Y50274D01*
X82307Y50386D01*
X82537Y50563D01*
X82714Y50793D01*
X82826Y51062D01*
X82864Y51350D01*
X82826Y51638D01*
X82714Y51907D01*
X82537Y52137D01*
X82307Y52314D01*
X82038Y52426D01*
X81750Y52464D01*
D02*
G37*
G36*
X54344Y50961D02*
X53640D01*
Y50407D01*
X54344D01*
Y50961D01*
D02*
G37*
G36*
X53240D02*
X52536D01*
Y50407D01*
X53240D01*
Y50961D01*
D02*
G37*
G36*
X73344Y50750D02*
X72790D01*
Y50346D01*
X73344D01*
Y50750D01*
D02*
G37*
G36*
X72390D02*
X71836D01*
Y50346D01*
X72390D01*
Y50750D01*
D02*
G37*
G36*
X74438Y50834D02*
X73734D01*
Y50280D01*
X74438D01*
Y50834D01*
D02*
G37*
G36*
X46809Y49904D02*
X46405D01*
Y49675D01*
X46809D01*
Y49904D01*
D02*
G37*
G36*
X46005D02*
X45601D01*
Y49675D01*
X46005D01*
Y49904D01*
D02*
G37*
G36*
X97083Y50001D02*
X96886Y49975D01*
X96703Y49899D01*
X96545Y49778D01*
X96449Y49652D01*
X88717D01*
X88621Y49778D01*
X88463Y49899D01*
X88280Y49975D01*
X88083Y50001D01*
X87886Y49975D01*
X87703Y49899D01*
X87545Y49778D01*
X87424Y49620D01*
X87348Y49437D01*
X87322Y49240D01*
X87348Y49043D01*
X87424Y48860D01*
X87545Y48702D01*
X87703Y48581D01*
X87886Y48505D01*
X88083Y48479D01*
X88280Y48505D01*
X88463Y48581D01*
X88621Y48702D01*
X88717Y48828D01*
X96449D01*
X96545Y48702D01*
X96703Y48581D01*
X96886Y48505D01*
X97083Y48479D01*
X97280Y48505D01*
X97463Y48581D01*
X97621Y48702D01*
X97742Y48860D01*
X97818Y49043D01*
X97844Y49240D01*
X97818Y49437D01*
X97742Y49620D01*
X97621Y49778D01*
X97463Y49899D01*
X97280Y49975D01*
X97083Y50001D01*
D02*
G37*
G36*
X73344Y49946D02*
X72790D01*
Y49542D01*
X73344D01*
Y49946D01*
D02*
G37*
G36*
X72390D02*
X71836D01*
Y49542D01*
X72390D01*
Y49946D01*
D02*
G37*
G36*
X54344Y50007D02*
X53640D01*
Y49453D01*
X54344D01*
Y50007D01*
D02*
G37*
G36*
X53240D02*
X52536D01*
Y49453D01*
X53240D01*
Y50007D01*
D02*
G37*
G36*
X74438Y49880D02*
X73734D01*
Y49326D01*
X74438D01*
Y49880D01*
D02*
G37*
G36*
X48255Y51636D02*
X48058Y51610D01*
X47875Y51534D01*
X47717Y51413D01*
X47596Y51255D01*
X47520Y51072D01*
X47494Y50875D01*
X47520Y50678D01*
X47596Y50495D01*
X47717Y50337D01*
X47843Y50241D01*
Y49904D01*
X47651D01*
Y49046D01*
Y49025D01*
X48255D01*
X48859D01*
Y49904D01*
X48667D01*
Y50241D01*
X48793Y50337D01*
X48914Y50495D01*
X48990Y50678D01*
X49016Y50875D01*
X48990Y51072D01*
X48914Y51255D01*
X48793Y51413D01*
X48635Y51534D01*
X48452Y51610D01*
X48255Y51636D01*
D02*
G37*
G36*
X50635Y48936D02*
X50438Y48910D01*
X50255Y48834D01*
X50097Y48713D01*
X50001Y48587D01*
X48859D01*
Y48625D01*
X48255D01*
X47651D01*
Y48396D01*
Y47746D01*
Y47725D01*
X48255D01*
X48859D01*
Y47763D01*
X50001D01*
X50097Y47637D01*
X50255Y47516D01*
X50438Y47440D01*
X50635Y47414D01*
X50832Y47440D01*
X51015Y47516D01*
X51173Y47637D01*
X51269Y47763D01*
X52536D01*
Y47421D01*
X54344D01*
Y48929D01*
X52536D01*
Y48587D01*
X51269D01*
X51173Y48713D01*
X51015Y48834D01*
X50832Y48910D01*
X50635Y48936D01*
D02*
G37*
G36*
X20790Y49924D02*
X20502Y49886D01*
X20233Y49774D01*
X20003Y49597D01*
X19826Y49367D01*
X19714Y49098D01*
X19676Y48810D01*
X19714Y48522D01*
X19826Y48253D01*
X20003Y48023D01*
X20233Y47846D01*
X20502Y47734D01*
X20790Y47696D01*
X21078Y47734D01*
X21347Y47846D01*
X21577Y48023D01*
X21754Y48253D01*
X21866Y48522D01*
X21904Y48810D01*
X21866Y49098D01*
X21754Y49367D01*
X21577Y49597D01*
X21347Y49774D01*
X21078Y49886D01*
X20790Y49924D01*
D02*
G37*
G36*
X18250D02*
X17962Y49886D01*
X17693Y49774D01*
X17463Y49597D01*
X17286Y49367D01*
X17174Y49098D01*
X17136Y48810D01*
X17174Y48522D01*
X17286Y48253D01*
X17463Y48023D01*
X17693Y47846D01*
X17962Y47734D01*
X18250Y47696D01*
X18538Y47734D01*
X18807Y47846D01*
X19037Y48023D01*
X19214Y48253D01*
X19326Y48522D01*
X19364Y48810D01*
X19326Y49098D01*
X19214Y49367D01*
X19037Y49597D01*
X18807Y49774D01*
X18538Y49886D01*
X18250Y49924D01*
D02*
G37*
G36*
X48859Y47325D02*
X48455D01*
Y47096D01*
X48859D01*
Y47325D01*
D02*
G37*
G36*
X48055D02*
X47651D01*
Y47096D01*
X48055D01*
Y47325D01*
D02*
G37*
G36*
X81950Y47357D02*
Y46470D01*
X82837D01*
X82826Y46558D01*
X82714Y46827D01*
X82537Y47057D01*
X82307Y47234D01*
X82038Y47346D01*
X81950Y47357D01*
D02*
G37*
G36*
X79410D02*
Y46470D01*
X80297D01*
X80286Y46558D01*
X80174Y46827D01*
X79997Y47057D01*
X79767Y47234D01*
X79498Y47346D01*
X79410Y47357D01*
D02*
G37*
G36*
X81550D02*
X81462Y47346D01*
X81193Y47234D01*
X80963Y47057D01*
X80786Y46827D01*
X80674Y46558D01*
X80663Y46470D01*
X81550D01*
Y47357D01*
D02*
G37*
G36*
X79010D02*
X78922Y47346D01*
X78653Y47234D01*
X78423Y47057D01*
X78246Y46827D01*
X78134Y46558D01*
X78123Y46470D01*
X79010D01*
Y47357D01*
D02*
G37*
G36*
X18450D02*
Y46470D01*
X19337D01*
X19326Y46558D01*
X19214Y46827D01*
X19037Y47057D01*
X18807Y47234D01*
X18538Y47346D01*
X18450Y47357D01*
D02*
G37*
G36*
X18050Y47357D02*
X17962Y47346D01*
X17693Y47234D01*
X17463Y47057D01*
X17286Y46827D01*
X17174Y46558D01*
X17163Y46470D01*
X18050D01*
Y47357D01*
D02*
G37*
G36*
Y46070D02*
X17163D01*
X17174Y45982D01*
X17286Y45713D01*
X17463Y45483D01*
X17693Y45306D01*
X17962Y45194D01*
X18050Y45183D01*
Y46070D01*
D02*
G37*
G36*
X82837Y46070D02*
X81950D01*
Y45183D01*
X82038Y45194D01*
X82307Y45306D01*
X82537Y45483D01*
X82714Y45713D01*
X82826Y45982D01*
X82837Y46070D01*
D02*
G37*
G36*
X40475Y54016D02*
X40278Y53990D01*
X40095Y53914D01*
X39937Y53793D01*
X39816Y53635D01*
X39740Y53452D01*
X39714Y53255D01*
X39740Y53058D01*
X39816Y52875D01*
X39937Y52717D01*
X40095Y52596D01*
X40278Y52520D01*
X40475Y52494D01*
X40672Y52520D01*
X40855Y52596D01*
X41013Y52717D01*
X41109Y52843D01*
X54274D01*
X62409Y44709D01*
X62542Y44619D01*
X62700Y44588D01*
X78099D01*
X78247Y44288D01*
X78246Y44287D01*
X78134Y44018D01*
X78123Y43930D01*
X79210D01*
X80297D01*
X80286Y44018D01*
X80464Y44372D01*
X80513Y44384D01*
X80734Y44163D01*
X80674Y44018D01*
X80636Y43730D01*
X80674Y43442D01*
X80786Y43173D01*
X80963Y42943D01*
X81193Y42766D01*
X81462Y42654D01*
X81750Y42616D01*
X82038Y42654D01*
X82307Y42766D01*
X82537Y42943D01*
X82714Y43173D01*
X82826Y43442D01*
X82864Y43730D01*
X82826Y44018D01*
X82714Y44287D01*
X82537Y44517D01*
X82307Y44694D01*
X82038Y44806D01*
X81750Y44844D01*
X81462Y44806D01*
X81317Y44746D01*
X80943Y45120D01*
X81141Y45346D01*
X81193Y45306D01*
X81462Y45194D01*
X81550Y45183D01*
Y46070D01*
X80663D01*
X80674Y45982D01*
X80786Y45713D01*
X80897Y45568D01*
X80689Y45346D01*
X80638Y45381D01*
X80480Y45412D01*
X80321D01*
X80173Y45712D01*
X80174Y45713D01*
X80286Y45982D01*
X80297Y46070D01*
X79210D01*
X78123D01*
X78134Y45982D01*
X78246Y45713D01*
X78247Y45712D01*
X78099Y45412D01*
X62871D01*
X54736Y53546D01*
X54603Y53636D01*
X54445Y53667D01*
X41109D01*
X41013Y53793D01*
X40855Y53914D01*
X40672Y53990D01*
X40475Y54016D01*
D02*
G37*
G36*
X19337Y46070D02*
X18450D01*
Y45183D01*
X18538Y45194D01*
X18807Y45306D01*
X19037Y45483D01*
X19214Y45713D01*
X19326Y45982D01*
X19337Y46070D01*
D02*
G37*
G36*
X20790Y47384D02*
X20502Y47346D01*
X20233Y47234D01*
X20003Y47057D01*
X19826Y46827D01*
X19714Y46558D01*
X19676Y46270D01*
X19714Y45982D01*
X19826Y45713D01*
X20003Y45483D01*
X20233Y45306D01*
X20502Y45194D01*
X20790Y45156D01*
X21078Y45194D01*
X21347Y45306D01*
X21577Y45483D01*
X21754Y45713D01*
X21866Y45982D01*
X21904Y46270D01*
X21866Y46558D01*
X21754Y46827D01*
X21577Y47057D01*
X21347Y47234D01*
X21078Y47346D01*
X20790Y47384D01*
D02*
G37*
G36*
X97283Y45473D02*
Y44940D01*
X97816D01*
X97742Y45120D01*
X97621Y45278D01*
X97463Y45399D01*
X97283Y45473D01*
D02*
G37*
G36*
X96883D02*
X96703Y45399D01*
X96545Y45278D01*
X96424Y45120D01*
X96350Y44940D01*
X96883D01*
Y45473D01*
D02*
G37*
G36*
X88283D02*
Y44940D01*
X88816D01*
X88742Y45120D01*
X88621Y45278D01*
X88463Y45399D01*
X88283Y45473D01*
D02*
G37*
G36*
X87883D02*
X87703Y45399D01*
X87545Y45278D01*
X87424Y45120D01*
X87350Y44940D01*
X87883D01*
Y45473D01*
D02*
G37*
G36*
X24600Y56556D02*
X24403Y56530D01*
X24220Y56454D01*
X24062Y56333D01*
X23941Y56175D01*
X23865Y55992D01*
X23839Y55795D01*
X23865Y55598D01*
X23941Y55415D01*
X24062Y55257D01*
X24220Y55136D01*
X24403Y55060D01*
X24600Y55035D01*
X24797Y55060D01*
X24980Y55136D01*
X25138Y55257D01*
X25234Y55383D01*
X32938D01*
X46863Y41458D01*
X46866Y41424D01*
X46757Y41140D01*
X46675Y41134D01*
X46570Y41214D01*
X46387Y41290D01*
X46190Y41316D01*
X45993Y41290D01*
X45810Y41214D01*
X45652Y41093D01*
X45556Y40967D01*
X27774D01*
X27678Y41093D01*
X27520Y41214D01*
X27337Y41290D01*
X27140Y41316D01*
X26943Y41290D01*
X26760Y41214D01*
X26602Y41093D01*
X26481Y40935D01*
X26405Y40752D01*
X26379Y40555D01*
X26405Y40358D01*
X26481Y40175D01*
X26602Y40017D01*
X26760Y39896D01*
X26943Y39820D01*
X27140Y39794D01*
X27337Y39820D01*
X27520Y39896D01*
X27678Y40017D01*
X27774Y40143D01*
X45556D01*
X45652Y40017D01*
X45810Y39896D01*
X45993Y39820D01*
X46190Y39794D01*
X46387Y39820D01*
X46570Y39896D01*
X46728Y40017D01*
X46824Y40143D01*
X56081D01*
Y39166D01*
X57889D01*
Y40143D01*
X64688D01*
X68391Y36441D01*
X68524Y36351D01*
X68682Y36320D01*
X69166D01*
X69250Y36122D01*
X69273Y36020D01*
X69163Y35856D01*
X69120Y35640D01*
Y35040D01*
X69685D01*
Y34640D01*
X69120D01*
Y34040D01*
X69163Y33824D01*
X69286Y33641D01*
X69469Y33518D01*
X69430Y33220D01*
X66300D01*
X64718Y34802D01*
X64833Y35102D01*
X65128D01*
Y36610D01*
X63320D01*
Y35102D01*
X63812D01*
Y34713D01*
X63843Y34555D01*
X63933Y34422D01*
X65838Y32517D01*
X65971Y32427D01*
X66129Y32396D01*
X70321D01*
X70417Y32270D01*
X70575Y32149D01*
X70758Y32073D01*
X70955Y32047D01*
X71152Y32073D01*
X71335Y32149D01*
X71493Y32270D01*
X71513Y32297D01*
X71813Y32195D01*
Y22000D01*
X71844Y21842D01*
X71934Y21709D01*
X74643Y18999D01*
X74622Y18842D01*
X74648Y18645D01*
X74724Y18462D01*
X74845Y18304D01*
X75003Y18183D01*
X75186Y18107D01*
X75383Y18081D01*
X75580Y18107D01*
X75763Y18183D01*
X75921Y18304D01*
X76042Y18462D01*
X76118Y18645D01*
X76144Y18842D01*
X76118Y19039D01*
X76042Y19222D01*
X75921Y19380D01*
X75890Y19403D01*
X75870Y19456D01*
X75878Y19740D01*
X75890Y19766D01*
X75941Y19804D01*
X76062Y19962D01*
X76138Y20145D01*
X76164Y20342D01*
X76138Y20539D01*
X76062Y20722D01*
X75941Y20880D01*
X75783Y21001D01*
X75600Y21077D01*
X75403Y21103D01*
X75246Y21082D01*
X73907Y22421D01*
Y33659D01*
X74017Y33824D01*
X74060Y34040D01*
Y35640D01*
X74017Y35856D01*
X73907Y36021D01*
Y36351D01*
X73876Y36509D01*
X73786Y36642D01*
X72420Y38008D01*
X72428Y38119D01*
X72497Y38356D01*
X72624Y38441D01*
X72693Y38544D01*
X72746Y38559D01*
X72974D01*
X73027Y38544D01*
X73096Y38441D01*
X73279Y38318D01*
X73495Y38275D01*
X73711Y38318D01*
X73894Y38441D01*
X74017Y38624D01*
X74060Y38840D01*
Y40440D01*
X74017Y40656D01*
X73907Y40821D01*
Y41556D01*
X74249D01*
Y43364D01*
X72741D01*
Y42872D01*
X71761D01*
X71246Y43386D01*
X71113Y43476D01*
X70955Y43507D01*
X61429D01*
X61333Y43633D01*
X61175Y43754D01*
X60992Y43830D01*
X60795Y43856D01*
X60598Y43830D01*
X60415Y43754D01*
X60257Y43633D01*
X60136Y43475D01*
X60060Y43292D01*
X60034Y43095D01*
X60060Y42898D01*
X60136Y42715D01*
X60257Y42557D01*
X60415Y42436D01*
X60598Y42360D01*
X60795Y42334D01*
X60992Y42360D01*
X61175Y42436D01*
X61333Y42557D01*
X61429Y42683D01*
X70784D01*
X71299Y42169D01*
X71432Y42079D01*
X71590Y42048D01*
X72741D01*
Y41556D01*
X73083D01*
Y40821D01*
X73027Y40736D01*
X72974Y40721D01*
X72746D01*
X72693Y40736D01*
X72624Y40839D01*
X72441Y40962D01*
X72425Y40965D01*
Y39640D01*
X72025D01*
Y40965D01*
X72009Y40962D01*
X71826Y40839D01*
X71757Y40736D01*
X71704Y40721D01*
X71476D01*
X71423Y40736D01*
X71354Y40839D01*
X71171Y40962D01*
X71155Y40965D01*
Y39640D01*
X70755D01*
Y40965D01*
X70739Y40962D01*
X70556Y40839D01*
X70487Y40736D01*
X70434Y40721D01*
X70206D01*
X70153Y40736D01*
X70084Y40839D01*
X69901Y40962D01*
X69885Y40965D01*
Y39640D01*
X69685D01*
Y39440D01*
X69120D01*
Y38840D01*
X68910Y38576D01*
X68721Y38545D01*
X65531Y41735D01*
X65398Y41825D01*
X65240Y41856D01*
X47631D01*
X43598Y45889D01*
X45301Y47592D01*
X45601Y47468D01*
Y47096D01*
X45793D01*
Y46284D01*
X45667Y46188D01*
X45546Y46030D01*
X45470Y45847D01*
X45444Y45650D01*
X45470Y45453D01*
X45546Y45270D01*
X45667Y45112D01*
X45825Y44991D01*
X46008Y44915D01*
X46205Y44889D01*
X46402Y44915D01*
X46585Y44991D01*
X46743Y45112D01*
X46864Y45270D01*
X46940Y45453D01*
X46965Y45650D01*
X46940Y45847D01*
X46864Y46030D01*
X46743Y46188D01*
X46617Y46284D01*
Y47096D01*
X46809D01*
Y47746D01*
Y48396D01*
Y49046D01*
Y49275D01*
X46205D01*
X45601D01*
Y49237D01*
X44299D01*
X44203Y49363D01*
X44045Y49484D01*
X43862Y49560D01*
X43665Y49586D01*
X43468Y49560D01*
X43285Y49484D01*
X43127Y49363D01*
X43006Y49205D01*
X42930Y49022D01*
X42904Y48825D01*
X42930Y48628D01*
X43006Y48445D01*
X43127Y48287D01*
X43285Y48166D01*
X43468Y48090D01*
X43665Y48064D01*
X43862Y48090D01*
X44045Y48166D01*
X44203Y48287D01*
X44287Y48398D01*
X44551Y48383D01*
X44660Y48116D01*
X43015Y46472D01*
X33400Y56086D01*
X33267Y56176D01*
X33109Y56207D01*
X25234D01*
X25138Y56333D01*
X24980Y56454D01*
X24797Y56530D01*
X24600Y56556D01*
D02*
G37*
G36*
X97816Y44540D02*
X97283D01*
Y44007D01*
X97463Y44081D01*
X97621Y44202D01*
X97742Y44360D01*
X97816Y44540D01*
D02*
G37*
G36*
X96883D02*
X96350D01*
X96424Y44360D01*
X96545Y44202D01*
X96703Y44081D01*
X96883Y44007D01*
Y44540D01*
D02*
G37*
G36*
X88816D02*
X88283D01*
Y44007D01*
X88463Y44081D01*
X88621Y44202D01*
X88742Y44360D01*
X88816Y44540D01*
D02*
G37*
G36*
X87883D02*
X87350D01*
X87424Y44360D01*
X87545Y44202D01*
X87703Y44081D01*
X87883Y44007D01*
Y44540D01*
D02*
G37*
G36*
X20790Y44844D02*
X20502Y44806D01*
X20233Y44694D01*
X20003Y44517D01*
X19826Y44287D01*
X19714Y44018D01*
X19676Y43730D01*
X19714Y43442D01*
X19774Y43297D01*
X19553Y43076D01*
X19504Y43088D01*
X19326Y43442D01*
X19364Y43730D01*
X19326Y44018D01*
X19214Y44287D01*
X19037Y44517D01*
X18807Y44694D01*
X18538Y44806D01*
X18250Y44844D01*
X17962Y44806D01*
X17693Y44694D01*
X17463Y44517D01*
X17286Y44287D01*
X17174Y44018D01*
X17136Y43730D01*
X17174Y43442D01*
X17286Y43173D01*
X17342Y43100D01*
X17324Y42765D01*
X17279Y42706D01*
X16131Y41559D01*
X15853Y41629D01*
X15816Y41656D01*
X15810Y41704D01*
X15734Y41888D01*
X15613Y42045D01*
X15455Y42166D01*
X15275Y42241D01*
Y41507D01*
Y40774D01*
X15455Y40849D01*
X15613Y40970D01*
X15633Y40996D01*
X15933Y40894D01*
Y40247D01*
X15710Y39986D01*
X15513Y39960D01*
X15330Y39884D01*
X15172Y39763D01*
X15051Y39605D01*
X14975Y39422D01*
X14949Y39225D01*
X14975Y39028D01*
X15051Y38845D01*
X15172Y38687D01*
X15330Y38566D01*
X15513Y38490D01*
X15710Y38465D01*
X15907Y38490D01*
X16090Y38566D01*
X16248Y38687D01*
X16369Y38845D01*
X16445Y39028D01*
X16471Y39225D01*
X16450Y39382D01*
X16636Y39569D01*
X16726Y39702D01*
X16757Y39860D01*
Y40820D01*
X16871Y40905D01*
X16946Y40905D01*
X17220Y40791D01*
X17286Y40633D01*
X17463Y40403D01*
X17693Y40226D01*
X17962Y40114D01*
X18250Y40076D01*
X18538Y40114D01*
X18807Y40226D01*
X19037Y40403D01*
X19214Y40633D01*
X19326Y40902D01*
X19364Y41190D01*
X19326Y41478D01*
X19214Y41747D01*
X19213Y41748D01*
X19361Y42048D01*
X19520D01*
X19678Y42079D01*
X19729Y42114D01*
X19937Y41892D01*
X19826Y41747D01*
X19714Y41478D01*
X19676Y41190D01*
X19714Y40902D01*
X19826Y40633D01*
X20003Y40403D01*
X20233Y40226D01*
X20502Y40114D01*
X20790Y40076D01*
X21078Y40114D01*
X21347Y40226D01*
X21577Y40403D01*
X21754Y40633D01*
X21866Y40902D01*
X21904Y41190D01*
X21866Y41478D01*
X21754Y41747D01*
X21577Y41977D01*
X21347Y42154D01*
X21078Y42266D01*
X20790Y42304D01*
X20502Y42266D01*
X20233Y42154D01*
X20181Y42114D01*
X19983Y42340D01*
X20357Y42714D01*
X20502Y42654D01*
X20790Y42616D01*
X21078Y42654D01*
X21347Y42766D01*
X21577Y42943D01*
X21754Y43173D01*
X21866Y43442D01*
X21904Y43730D01*
X21866Y44018D01*
X21754Y44287D01*
X21577Y44517D01*
X21347Y44694D01*
X21078Y44806D01*
X20790Y44844D01*
D02*
G37*
G36*
X35395Y43221D02*
X35198Y43195D01*
X35015Y43119D01*
X34857Y42998D01*
X34761Y42872D01*
X27774D01*
X27678Y42998D01*
X27520Y43119D01*
X27337Y43195D01*
X27140Y43221D01*
X26943Y43195D01*
X26760Y43119D01*
X26602Y42998D01*
X26481Y42840D01*
X26405Y42657D01*
X26379Y42460D01*
X26405Y42263D01*
X26481Y42080D01*
X26602Y41922D01*
X26760Y41801D01*
X26943Y41725D01*
X27140Y41699D01*
X27337Y41725D01*
X27520Y41801D01*
X27678Y41922D01*
X27774Y42048D01*
X34761D01*
X34857Y41922D01*
X35015Y41801D01*
X35198Y41725D01*
X35395Y41699D01*
X35592Y41725D01*
X35775Y41801D01*
X35933Y41922D01*
X36054Y42080D01*
X36130Y42263D01*
X36155Y42460D01*
X36130Y42657D01*
X36054Y42840D01*
X35933Y42998D01*
X35775Y43119D01*
X35592Y43195D01*
X35395Y43221D01*
D02*
G37*
G36*
X76281Y43364D02*
X75727D01*
Y42660D01*
X76281D01*
Y43364D01*
D02*
G37*
G36*
X75327D02*
X74773D01*
Y42660D01*
X75327D01*
Y43364D01*
D02*
G37*
G36*
X80297Y43530D02*
X79410D01*
Y42643D01*
X79498Y42654D01*
X79767Y42766D01*
X79997Y42943D01*
X80174Y43173D01*
X80286Y43442D01*
X80297Y43530D01*
D02*
G37*
G36*
X79010D02*
X78123D01*
X78134Y43442D01*
X78246Y43173D01*
X78423Y42943D01*
X78653Y42766D01*
X78922Y42654D01*
X79010Y42643D01*
Y43530D01*
D02*
G37*
G36*
X14875Y42241D02*
X14695Y42166D01*
X14537Y42045D01*
X14416Y41888D01*
X14342Y41708D01*
X14875D01*
Y42241D01*
D02*
G37*
G36*
X76281Y42260D02*
X75727D01*
Y41556D01*
X76281D01*
Y42260D01*
D02*
G37*
G36*
X75327D02*
X74773D01*
Y41556D01*
X75327D01*
Y42260D01*
D02*
G37*
G36*
X14875Y41307D02*
X14342D01*
X14416Y41127D01*
X14537Y40970D01*
X14695Y40849D01*
X14875Y40774D01*
Y41307D01*
D02*
G37*
G36*
X81750Y42304D02*
X81462Y42266D01*
X81193Y42154D01*
X80963Y41977D01*
X80786Y41747D01*
X80674Y41478D01*
X80636Y41190D01*
X80674Y40902D01*
X80734Y40757D01*
X80513Y40536D01*
X80464Y40548D01*
X80286Y40902D01*
X80324Y41190D01*
X80286Y41478D01*
X80174Y41747D01*
X79997Y41977D01*
X79767Y42154D01*
X79498Y42266D01*
X79210Y42304D01*
X78922Y42266D01*
X78653Y42154D01*
X78423Y41977D01*
X78246Y41747D01*
X78134Y41478D01*
X78096Y41190D01*
X78134Y40902D01*
X78246Y40633D01*
X78302Y40560D01*
X78284Y40225D01*
X78239Y40166D01*
X76744Y38671D01*
X76654Y38538D01*
X76623Y38380D01*
Y25445D01*
X76111D01*
Y23937D01*
X77919D01*
Y25445D01*
X77447D01*
Y38209D01*
X77805Y38567D01*
X78122Y38460D01*
X78134Y38362D01*
X78246Y38093D01*
X78423Y37863D01*
X78653Y37686D01*
X78922Y37574D01*
X79210Y37536D01*
X79498Y37574D01*
X79767Y37686D01*
X79997Y37863D01*
X80174Y38093D01*
X80286Y38362D01*
X80324Y38650D01*
X80286Y38938D01*
X80174Y39207D01*
X80173Y39208D01*
X80321Y39508D01*
X80480D01*
X80638Y39539D01*
X80689Y39574D01*
X80897Y39352D01*
X80786Y39207D01*
X80674Y38938D01*
X80636Y38650D01*
X80674Y38362D01*
X80786Y38093D01*
X80963Y37863D01*
X81193Y37686D01*
X81462Y37574D01*
X81750Y37536D01*
X82038Y37574D01*
X82307Y37686D01*
X82537Y37863D01*
X82714Y38093D01*
X82826Y38362D01*
X82864Y38650D01*
X82826Y38938D01*
X82714Y39207D01*
X82537Y39437D01*
X82307Y39614D01*
X82038Y39726D01*
X81750Y39764D01*
X81462Y39726D01*
X81193Y39614D01*
X81141Y39574D01*
X80943Y39800D01*
X81317Y40174D01*
X81462Y40114D01*
X81750Y40076D01*
X82038Y40114D01*
X82307Y40226D01*
X82537Y40403D01*
X82714Y40633D01*
X82826Y40902D01*
X82864Y41190D01*
X82826Y41478D01*
X82714Y41747D01*
X82537Y41977D01*
X82307Y42154D01*
X82038Y42266D01*
X81750Y42304D01*
D02*
G37*
G36*
X8181Y40779D02*
X6673D01*
Y40287D01*
X5361D01*
X5265Y40413D01*
X5107Y40534D01*
X4924Y40610D01*
X4727Y40636D01*
X4530Y40610D01*
X4347Y40534D01*
X4189Y40413D01*
X4068Y40255D01*
X3992Y40072D01*
X3966Y39875D01*
X3992Y39678D01*
X4068Y39495D01*
X4189Y39337D01*
X4347Y39216D01*
X4530Y39140D01*
X4727Y39114D01*
X4924Y39140D01*
X5107Y39216D01*
X5265Y39337D01*
X5361Y39463D01*
X6673D01*
Y38971D01*
X8181D01*
Y40779D01*
D02*
G37*
G36*
X69485Y40965D02*
X69469Y40962D01*
X69286Y40839D01*
X69163Y40656D01*
X69120Y40440D01*
Y39840D01*
X69485D01*
Y40965D01*
D02*
G37*
G36*
X53548Y38792D02*
X52040D01*
Y38300D01*
X45293D01*
Y38792D01*
X43785D01*
Y37264D01*
X43785Y37244D01*
X43771Y37148D01*
X43687Y37003D01*
X43622Y36927D01*
X43569Y36912D01*
X43489Y36923D01*
X43261Y37068D01*
Y37164D01*
Y37688D01*
X42507D01*
X41753D01*
Y37154D01*
X41730Y36864D01*
X41730Y36694D01*
Y35356D01*
X43538D01*
Y35698D01*
X43974D01*
Y34268D01*
X44017Y34052D01*
X44140Y33869D01*
X44323Y33746D01*
X44539Y33703D01*
X44755Y33746D01*
X44938Y33869D01*
X45007Y33972D01*
X45060Y33987D01*
X45288D01*
X45341Y33972D01*
X45410Y33869D01*
X45593Y33746D01*
X45809Y33703D01*
X46025Y33746D01*
X46208Y33869D01*
X46538Y33860D01*
X46667Y33732D01*
Y33443D01*
X46698Y33285D01*
X46788Y33152D01*
X47423Y32517D01*
X47556Y32427D01*
X47714Y32396D01*
X55850D01*
Y31904D01*
X57358D01*
Y33712D01*
X55850D01*
Y33220D01*
X47885D01*
X47491Y33614D01*
Y33887D01*
X47547Y33972D01*
X47600Y33987D01*
X47828D01*
X47881Y33972D01*
X47950Y33869D01*
X48133Y33746D01*
X48349Y33703D01*
X48565Y33746D01*
X48748Y33869D01*
X48871Y34052D01*
X48914Y34268D01*
Y34377D01*
X49405D01*
X49462Y34302D01*
X49620Y34181D01*
X49803Y34105D01*
X50000Y34079D01*
X50197Y34105D01*
X50380Y34181D01*
X50538Y34302D01*
X50595Y34377D01*
X60200D01*
X60257Y34302D01*
X60415Y34181D01*
X60598Y34105D01*
X60795Y34079D01*
X60992Y34105D01*
X61175Y34181D01*
X61333Y34302D01*
X61454Y34460D01*
X61530Y34643D01*
X61556Y34840D01*
X61530Y35037D01*
X61454Y35220D01*
X61333Y35378D01*
X61175Y35499D01*
X60992Y35575D01*
X60795Y35601D01*
X60598Y35575D01*
X60415Y35499D01*
X60257Y35378D01*
X60200Y35303D01*
X50595D01*
X50538Y35378D01*
X50380Y35499D01*
X50197Y35575D01*
X50000Y35601D01*
X49803Y35575D01*
X49620Y35499D01*
X49462Y35378D01*
X49405Y35303D01*
X48914D01*
Y35868D01*
X48871Y36084D01*
X48748Y36267D01*
X48565Y36390D01*
X48349Y36433D01*
X48133Y36390D01*
X47950Y36267D01*
X47881Y36164D01*
X47828Y36149D01*
X47600D01*
X47547Y36164D01*
X47478Y36267D01*
X47295Y36390D01*
X47079Y36433D01*
X46863Y36390D01*
X46680Y36267D01*
X46611Y36164D01*
X46558Y36149D01*
X46330D01*
X46277Y36164D01*
X46208Y36267D01*
X46025Y36390D01*
X45809Y36433D01*
X45593Y36390D01*
X45410Y36267D01*
X45080Y36276D01*
X44951Y36404D01*
Y36984D01*
X45293D01*
Y37476D01*
X52040D01*
Y36984D01*
X53548D01*
Y38792D01*
D02*
G37*
G36*
X43261D02*
X42707D01*
Y38088D01*
X43261D01*
Y38792D01*
D02*
G37*
G36*
X42307D02*
X41753D01*
Y38088D01*
X42307D01*
Y38792D01*
D02*
G37*
G36*
X41156Y38392D02*
X40802D01*
Y38088D01*
X41156D01*
Y38392D01*
D02*
G37*
G36*
X40402D02*
X40048D01*
Y38088D01*
X40402D01*
Y38392D01*
D02*
G37*
G36*
X16545Y38113D02*
Y37580D01*
X17078D01*
X17004Y37760D01*
X16883Y37918D01*
X16725Y38039D01*
X16545Y38113D01*
D02*
G37*
G36*
X16145D02*
X15965Y38039D01*
X15807Y37918D01*
X15686Y37760D01*
X15612Y37580D01*
X16145D01*
Y38113D01*
D02*
G37*
G36*
X20790Y39764D02*
X20502Y39726D01*
X20233Y39614D01*
X20003Y39437D01*
X19826Y39207D01*
X19714Y38938D01*
X19676Y38650D01*
X19714Y38362D01*
X19826Y38093D01*
X20003Y37863D01*
X20233Y37686D01*
X20502Y37574D01*
X20790Y37536D01*
X21078Y37574D01*
X21347Y37686D01*
X21577Y37863D01*
X21754Y38093D01*
X21866Y38362D01*
X21904Y38650D01*
X21866Y38938D01*
X21754Y39207D01*
X21577Y39437D01*
X21347Y39614D01*
X21078Y39726D01*
X20790Y39764D01*
D02*
G37*
G36*
X18250D02*
X17962Y39726D01*
X17693Y39614D01*
X17463Y39437D01*
X17286Y39207D01*
X17174Y38938D01*
X17136Y38650D01*
X17174Y38362D01*
X17286Y38093D01*
X17463Y37863D01*
X17693Y37686D01*
X17962Y37574D01*
X18250Y37536D01*
X18538Y37574D01*
X18807Y37686D01*
X19037Y37863D01*
X19214Y38093D01*
X19326Y38362D01*
X19364Y38650D01*
X19326Y38938D01*
X19214Y39207D01*
X19037Y39437D01*
X18807Y39614D01*
X18538Y39726D01*
X18250Y39764D01*
D02*
G37*
G36*
X41156Y37688D02*
X40802D01*
Y37384D01*
X41156D01*
Y37688D01*
D02*
G37*
G36*
X40402D02*
X40048D01*
Y37384D01*
X40402D01*
Y37688D01*
D02*
G37*
G36*
X55580Y38792D02*
X54072D01*
Y36984D01*
X55580D01*
Y37476D01*
X56081D01*
Y37134D01*
X57889D01*
Y37476D01*
X60161D01*
X60257Y37350D01*
X60415Y37229D01*
X60598Y37153D01*
X60795Y37127D01*
X60992Y37153D01*
X61175Y37229D01*
X61333Y37350D01*
X61429Y37476D01*
X63320D01*
Y37134D01*
X65128D01*
Y38642D01*
X63320D01*
Y38300D01*
X61429D01*
X61333Y38426D01*
X61175Y38547D01*
X60992Y38623D01*
X60795Y38649D01*
X60598Y38623D01*
X60415Y38547D01*
X60257Y38426D01*
X60161Y38300D01*
X57889D01*
Y38642D01*
X56081D01*
Y38300D01*
X55580D01*
Y38792D01*
D02*
G37*
G36*
X38956Y38392D02*
X37848D01*
Y37384D01*
X37990D01*
Y36487D01*
X37848D01*
Y35479D01*
X38956D01*
Y36487D01*
X38814D01*
Y37384D01*
X38956D01*
Y38392D01*
D02*
G37*
G36*
X20790Y37224D02*
X20502Y37186D01*
X20233Y37074D01*
X20003Y36897D01*
X19826Y36667D01*
X19714Y36398D01*
X19676Y36110D01*
X19714Y35822D01*
X19826Y35553D01*
X20003Y35323D01*
X20233Y35146D01*
X20502Y35034D01*
X20790Y34996D01*
X21078Y35034D01*
X21347Y35146D01*
X21577Y35323D01*
X21754Y35553D01*
X21866Y35822D01*
X21904Y36110D01*
X21866Y36398D01*
X21754Y36667D01*
X21577Y36897D01*
X21347Y37074D01*
X21078Y37186D01*
X20790Y37224D01*
D02*
G37*
G36*
Y34684D02*
X20502Y34646D01*
X20233Y34534D01*
X20003Y34357D01*
X19826Y34127D01*
X19714Y33858D01*
X19676Y33570D01*
X19714Y33282D01*
X19826Y33013D01*
X20003Y32783D01*
X20233Y32606D01*
X20502Y32494D01*
X20790Y32456D01*
X21078Y32494D01*
X21347Y32606D01*
X21577Y32783D01*
X21754Y33013D01*
X21866Y33282D01*
X21904Y33570D01*
X21866Y33858D01*
X21754Y34127D01*
X21577Y34357D01*
X21347Y34534D01*
X21078Y34646D01*
X20790Y34684D01*
D02*
G37*
G36*
X59390Y33712D02*
X57882D01*
Y31904D01*
X59390D01*
Y32396D01*
X60161D01*
X60257Y32270D01*
X60415Y32149D01*
X60598Y32073D01*
X60795Y32047D01*
X60992Y32073D01*
X61175Y32149D01*
X61333Y32270D01*
X61454Y32428D01*
X61530Y32611D01*
X61556Y32808D01*
X61530Y33005D01*
X61454Y33188D01*
X61333Y33346D01*
X61175Y33467D01*
X60992Y33543D01*
X60795Y33569D01*
X60598Y33543D01*
X60415Y33467D01*
X60257Y33346D01*
X60161Y33220D01*
X59390D01*
Y33712D01*
D02*
G37*
G36*
X18450Y32117D02*
Y31230D01*
X19337D01*
X19326Y31318D01*
X19214Y31587D01*
X19037Y31817D01*
X18807Y31994D01*
X18538Y32106D01*
X18450Y32117D01*
D02*
G37*
G36*
X18050D02*
X17962Y32106D01*
X17693Y31994D01*
X17463Y31817D01*
X17286Y31587D01*
X17174Y31318D01*
X17163Y31230D01*
X18050D01*
Y32117D01*
D02*
G37*
G36*
X19337Y30830D02*
X18450D01*
Y29943D01*
X18538Y29954D01*
X18807Y30066D01*
X19037Y30243D01*
X19214Y30473D01*
X19326Y30742D01*
X19337Y30830D01*
D02*
G37*
G36*
X18050D02*
X17163D01*
X17174Y30742D01*
X17286Y30473D01*
X17463Y30243D01*
X17693Y30066D01*
X17962Y29954D01*
X18050Y29943D01*
Y30830D01*
D02*
G37*
G36*
X93849Y43183D02*
X93349D01*
X92956Y43144D01*
X92578Y43029D01*
X92230Y42843D01*
X91925Y42593D01*
X91675Y42288D01*
X91489Y41940D01*
X91374Y41562D01*
X91335Y41169D01*
X91374Y40776D01*
X91489Y40398D01*
X91675Y40050D01*
X91925Y39745D01*
X92230Y39495D01*
X92479Y39362D01*
X92403Y39062D01*
X86783D01*
X86625Y39031D01*
X86492Y38941D01*
X82993Y35443D01*
X82739Y35613D01*
X82826Y35822D01*
X82864Y36110D01*
X82826Y36398D01*
X82714Y36667D01*
X82537Y36897D01*
X82307Y37074D01*
X82038Y37186D01*
X81750Y37224D01*
X81462Y37186D01*
X81193Y37074D01*
X80963Y36897D01*
X80786Y36667D01*
X80674Y36398D01*
X80636Y36110D01*
X80674Y35822D01*
X80786Y35553D01*
X80787Y35552D01*
X80639Y35252D01*
X80480D01*
X80322Y35221D01*
X80271Y35186D01*
X80063Y35408D01*
X80174Y35553D01*
X80286Y35822D01*
X80324Y36110D01*
X80286Y36398D01*
X80174Y36667D01*
X79997Y36897D01*
X79767Y37074D01*
X79498Y37186D01*
X79210Y37224D01*
X78922Y37186D01*
X78653Y37074D01*
X78423Y36897D01*
X78246Y36667D01*
X78134Y36398D01*
X78096Y36110D01*
X78134Y35822D01*
X78246Y35553D01*
X78423Y35323D01*
X78653Y35146D01*
X78922Y35034D01*
X79210Y34996D01*
X79498Y35034D01*
X79767Y35146D01*
X79819Y35186D01*
X80017Y34960D01*
X79643Y34586D01*
X79498Y34646D01*
X79210Y34684D01*
X78922Y34646D01*
X78653Y34534D01*
X78423Y34357D01*
X78246Y34127D01*
X78134Y33858D01*
X78096Y33570D01*
X78134Y33282D01*
X78246Y33013D01*
X78423Y32783D01*
X78653Y32606D01*
X78922Y32494D01*
X79210Y32456D01*
X79498Y32494D01*
X79767Y32606D01*
X79997Y32783D01*
X80174Y33013D01*
X80286Y33282D01*
X80324Y33570D01*
X80286Y33858D01*
X80226Y34003D01*
X80447Y34224D01*
X80496Y34212D01*
X80674Y33858D01*
X80636Y33570D01*
X80674Y33282D01*
X80786Y33013D01*
X80963Y32783D01*
X81193Y32606D01*
X81462Y32494D01*
X81750Y32456D01*
X82038Y32494D01*
X82307Y32606D01*
X82537Y32783D01*
X82714Y33013D01*
X82826Y33282D01*
X82864Y33570D01*
X82826Y33858D01*
X82714Y34127D01*
X82713Y34128D01*
X82861Y34428D01*
X82973D01*
X83131Y34459D01*
X83264Y34549D01*
X86954Y38238D01*
X92497D01*
X92578Y37949D01*
X92230Y37763D01*
X91925Y37513D01*
X91675Y37208D01*
X91489Y36860D01*
X91374Y36482D01*
X91335Y36089D01*
X91374Y35696D01*
X91489Y35318D01*
X91675Y34970D01*
X91925Y34665D01*
X92230Y34415D01*
X92578Y34229D01*
X92956Y34114D01*
X93349Y34075D01*
X93849D01*
X94242Y34114D01*
X94620Y34229D01*
X94968Y34415D01*
X95273Y34665D01*
X95523Y34970D01*
X95643Y35194D01*
X95943Y35119D01*
Y31330D01*
X95817Y31234D01*
X95696Y31076D01*
X95620Y30893D01*
X95594Y30696D01*
X95620Y30499D01*
X95696Y30316D01*
X95817Y30158D01*
X95975Y30037D01*
X96158Y29961D01*
X96355Y29935D01*
X96552Y29961D01*
X96735Y30037D01*
X96893Y30158D01*
X97014Y30316D01*
X97090Y30499D01*
X97116Y30696D01*
X97090Y30893D01*
X97014Y31076D01*
X96893Y31234D01*
X96767Y31330D01*
Y37380D01*
X96736Y37538D01*
X96646Y37671D01*
X95376Y38941D01*
X95243Y39031D01*
X95085Y39062D01*
X94795D01*
X94719Y39362D01*
X94968Y39495D01*
X95273Y39745D01*
X95523Y40050D01*
X95709Y40398D01*
X95824Y40776D01*
X95863Y41169D01*
X95824Y41562D01*
X95709Y41940D01*
X95523Y42288D01*
X95273Y42593D01*
X94968Y42843D01*
X94620Y43029D01*
X94242Y43144D01*
X93849Y43183D01*
D02*
G37*
G36*
X20790Y32144D02*
X20502Y32106D01*
X20233Y31994D01*
X20003Y31817D01*
X19826Y31587D01*
X19714Y31318D01*
X19676Y31030D01*
X19714Y30742D01*
X19826Y30473D01*
X20003Y30243D01*
X20233Y30066D01*
X20502Y29954D01*
X20790Y29916D01*
X21078Y29954D01*
X21347Y30066D01*
X21577Y30243D01*
X21754Y30473D01*
X21866Y30742D01*
X21904Y31030D01*
X21866Y31318D01*
X21754Y31587D01*
X21577Y31817D01*
X21347Y31994D01*
X21078Y32106D01*
X20790Y32144D01*
D02*
G37*
G36*
X59390Y31172D02*
X57882D01*
Y29364D01*
X59390D01*
Y29856D01*
X60161D01*
X60257Y29730D01*
X60415Y29609D01*
X60598Y29533D01*
X60795Y29507D01*
X60992Y29533D01*
X61175Y29609D01*
X61333Y29730D01*
X61454Y29888D01*
X61530Y30071D01*
X61556Y30268D01*
X61530Y30465D01*
X61454Y30648D01*
X61333Y30806D01*
X61175Y30927D01*
X60992Y31003D01*
X60795Y31029D01*
X60598Y31003D01*
X60415Y30927D01*
X60257Y30806D01*
X60161Y30680D01*
X59390D01*
Y31172D01*
D02*
G37*
G36*
X44339Y30068D02*
X43974D01*
Y29468D01*
X44017Y29252D01*
X44140Y29069D01*
X44323Y28946D01*
X44339Y28943D01*
Y30068D01*
D02*
G37*
G36*
X43538Y28736D02*
X42834D01*
Y28182D01*
X43538D01*
Y28736D01*
D02*
G37*
G36*
X42434D02*
X41730D01*
Y28182D01*
X42434D01*
Y28736D01*
D02*
G37*
G36*
X20790Y29604D02*
X20502Y29566D01*
X20233Y29454D01*
X20003Y29277D01*
X19826Y29047D01*
X19714Y28778D01*
X19676Y28490D01*
X19714Y28202D01*
X19826Y27933D01*
X20003Y27703D01*
X20233Y27526D01*
X20502Y27414D01*
X20790Y27376D01*
X21078Y27414D01*
X21347Y27526D01*
X21577Y27703D01*
X21754Y27933D01*
X21866Y28202D01*
X21904Y28490D01*
X21866Y28778D01*
X21754Y29047D01*
X21577Y29277D01*
X21347Y29454D01*
X21078Y29566D01*
X20790Y29604D01*
D02*
G37*
G36*
X18250D02*
X17962Y29566D01*
X17693Y29454D01*
X17463Y29277D01*
X17286Y29047D01*
X17174Y28778D01*
X17136Y28490D01*
X17174Y28202D01*
X17286Y27933D01*
X17463Y27703D01*
X17693Y27526D01*
X17962Y27414D01*
X18250Y27376D01*
X18538Y27414D01*
X18807Y27526D01*
X19037Y27703D01*
X19214Y27933D01*
X19326Y28202D01*
X19364Y28490D01*
X19326Y28778D01*
X19214Y29047D01*
X19037Y29277D01*
X18807Y29454D01*
X18538Y29566D01*
X18250Y29604D01*
D02*
G37*
G36*
X41156Y27597D02*
X40802D01*
Y27293D01*
X41156D01*
Y27597D01*
D02*
G37*
G36*
X40402D02*
X40048D01*
Y27293D01*
X40402D01*
Y27597D01*
D02*
G37*
G36*
X43538Y27782D02*
X42834D01*
Y27228D01*
X43538D01*
Y27782D01*
D02*
G37*
G36*
X42434D02*
X41730D01*
Y27228D01*
X42434D01*
Y27782D01*
D02*
G37*
G36*
X60795Y27346D02*
X60598Y27320D01*
X60415Y27244D01*
X60257Y27123D01*
X60161Y26997D01*
X57619D01*
X57523Y27123D01*
X57365Y27244D01*
X57182Y27320D01*
X56985Y27346D01*
X56788Y27320D01*
X56605Y27244D01*
X56447Y27123D01*
X56326Y26965D01*
X56250Y26782D01*
X56224Y26585D01*
X56250Y26388D01*
X56326Y26205D01*
X56447Y26047D01*
X56605Y25926D01*
X56788Y25850D01*
X56985Y25824D01*
X57182Y25850D01*
X57365Y25926D01*
X57523Y26047D01*
X57619Y26173D01*
X60161D01*
X60257Y26047D01*
X60415Y25926D01*
X60598Y25850D01*
X60795Y25824D01*
X60992Y25850D01*
X61175Y25926D01*
X61333Y26047D01*
X61454Y26205D01*
X61530Y26388D01*
X61556Y26585D01*
X61530Y26782D01*
X61454Y26965D01*
X61333Y27123D01*
X61175Y27244D01*
X60992Y27320D01*
X60795Y27346D01*
D02*
G37*
G36*
X41156Y26893D02*
X40802D01*
Y26589D01*
X41156D01*
Y26893D01*
D02*
G37*
G36*
X40402D02*
X40048D01*
Y26589D01*
X40402D01*
Y26893D01*
D02*
G37*
G36*
X38956Y30137D02*
X37848D01*
Y29129D01*
X37990D01*
Y27597D01*
X37848D01*
Y26589D01*
X38956D01*
Y27597D01*
X38814D01*
Y29129D01*
X38956D01*
Y30137D01*
D02*
G37*
G36*
X2560Y27022D02*
Y26135D01*
X3447D01*
X3436Y26223D01*
X3324Y26492D01*
X3147Y26722D01*
X2917Y26899D01*
X2648Y27011D01*
X2560Y27022D01*
D02*
G37*
G36*
X94099Y33289D02*
X92591D01*
Y31481D01*
X92933D01*
Y30479D01*
X92807Y30383D01*
X92686Y30225D01*
X92610Y30042D01*
X92584Y29845D01*
X92610Y29648D01*
X92686Y29465D01*
X92807Y29307D01*
X92933Y29211D01*
Y25900D01*
X92517D01*
X92441Y25900D01*
X92217D01*
X92141Y25900D01*
X91725D01*
Y31481D01*
X92067D01*
Y33289D01*
X90559D01*
Y32797D01*
X85215D01*
X85057Y32766D01*
X84924Y32676D01*
X83149Y30902D01*
X82890Y31018D01*
X82862Y31039D01*
X82826Y31318D01*
X82714Y31587D01*
X82537Y31817D01*
X82307Y31994D01*
X82038Y32106D01*
X81750Y32144D01*
X81462Y32106D01*
X81193Y31994D01*
X80963Y31817D01*
X80786Y31587D01*
X80674Y31318D01*
X80636Y31030D01*
X80674Y30742D01*
X80496Y30388D01*
X80447Y30376D01*
X80226Y30597D01*
X80286Y30742D01*
X80324Y31030D01*
X80286Y31318D01*
X80174Y31587D01*
X79997Y31817D01*
X79767Y31994D01*
X79498Y32106D01*
X79210Y32144D01*
X78922Y32106D01*
X78653Y31994D01*
X78423Y31817D01*
X78246Y31587D01*
X78134Y31318D01*
X78096Y31030D01*
X78134Y30742D01*
X78246Y30473D01*
X78423Y30243D01*
X78653Y30066D01*
X78922Y29954D01*
X79210Y29916D01*
X79498Y29954D01*
X79643Y30014D01*
X80017Y29640D01*
X79819Y29414D01*
X79767Y29454D01*
X79498Y29566D01*
X79210Y29604D01*
X78922Y29566D01*
X78653Y29454D01*
X78423Y29277D01*
X78246Y29047D01*
X78134Y28778D01*
X78096Y28490D01*
X78134Y28202D01*
X78246Y27933D01*
X78423Y27703D01*
X78653Y27526D01*
X78922Y27414D01*
X79210Y27376D01*
X79498Y27414D01*
X79767Y27526D01*
X79997Y27703D01*
X80174Y27933D01*
X80286Y28202D01*
X80324Y28490D01*
X80286Y28778D01*
X80174Y29047D01*
X80063Y29192D01*
X80271Y29414D01*
X80322Y29379D01*
X80480Y29348D01*
X80639D01*
X80787Y29048D01*
X80786Y29047D01*
X80674Y28778D01*
X80636Y28490D01*
X80674Y28202D01*
X80786Y27933D01*
X80963Y27703D01*
X81193Y27526D01*
X81462Y27414D01*
X81750Y27376D01*
X82038Y27414D01*
X82307Y27526D01*
X82359Y27566D01*
X82557Y27340D01*
X82183Y26966D01*
X82038Y27026D01*
X81750Y27064D01*
X81462Y27026D01*
X81193Y26914D01*
X80963Y26737D01*
X80786Y26507D01*
X80674Y26238D01*
X80636Y25950D01*
X80674Y25662D01*
X80786Y25393D01*
X80963Y25163D01*
X81193Y24986D01*
X81462Y24874D01*
X81750Y24836D01*
X82038Y24874D01*
X82307Y24986D01*
X82537Y25163D01*
X82714Y25393D01*
X82826Y25662D01*
X82864Y25950D01*
X82826Y26238D01*
X82766Y26383D01*
X86451Y30068D01*
X89155D01*
X89251Y29942D01*
X89409Y29821D01*
X89592Y29745D01*
X89789Y29719D01*
X89986Y29745D01*
X90169Y29821D01*
X90327Y29942D01*
X90448Y30100D01*
X90524Y30283D01*
X90549Y30480D01*
X90524Y30677D01*
X90448Y30860D01*
X90327Y31018D01*
X90169Y31139D01*
X89986Y31215D01*
X89789Y31241D01*
X89592Y31215D01*
X89409Y31139D01*
X89251Y31018D01*
X89155Y30892D01*
X86280D01*
X86122Y30861D01*
X85989Y30771D01*
X82900Y27683D01*
X82674Y27881D01*
X82714Y27933D01*
X82826Y28202D01*
X82864Y28490D01*
X82826Y28778D01*
X82714Y29047D01*
X82701Y29064D01*
X82720Y29194D01*
X82807Y29419D01*
X82881Y29469D01*
X85386Y31973D01*
X90559D01*
Y31481D01*
X90901D01*
Y25900D01*
X90409D01*
Y24392D01*
X92141D01*
X92217Y24392D01*
X92441D01*
X92517Y24392D01*
X94249D01*
Y25900D01*
X93757D01*
Y29211D01*
X93883Y29307D01*
X94004Y29465D01*
X94080Y29648D01*
X94105Y29845D01*
X94080Y30042D01*
X94004Y30225D01*
X93883Y30383D01*
X93757Y30479D01*
Y31481D01*
X94099D01*
Y33289D01*
D02*
G37*
G36*
X97609Y26133D02*
Y25600D01*
X98142D01*
X98068Y25780D01*
X97947Y25938D01*
X97789Y26059D01*
X97609Y26133D01*
D02*
G37*
G36*
X97209D02*
X97029Y26059D01*
X96871Y25938D01*
X96750Y25780D01*
X96676Y25600D01*
X97209D01*
Y26133D01*
D02*
G37*
G36*
X88719D02*
Y25600D01*
X89252D01*
X89178Y25780D01*
X89057Y25938D01*
X88899Y26059D01*
X88719Y26133D01*
D02*
G37*
G36*
X88319D02*
X88139Y26059D01*
X87981Y25938D01*
X87860Y25780D01*
X87786Y25600D01*
X88319D01*
Y26133D01*
D02*
G37*
G36*
X3447Y25735D02*
X2560D01*
Y24848D01*
X2648Y24859D01*
X2917Y24971D01*
X3147Y25148D01*
X3324Y25378D01*
X3436Y25647D01*
X3447Y25735D01*
D02*
G37*
G36*
X79210Y27064D02*
X78922Y27026D01*
X78653Y26914D01*
X78423Y26737D01*
X78246Y26507D01*
X78134Y26238D01*
X78096Y25950D01*
X78134Y25662D01*
X78246Y25393D01*
X78423Y25163D01*
X78653Y24986D01*
X78922Y24874D01*
X79210Y24836D01*
X79498Y24874D01*
X79767Y24986D01*
X79997Y25163D01*
X80174Y25393D01*
X80286Y25662D01*
X80324Y25950D01*
X80286Y26238D01*
X80174Y26507D01*
X79997Y26737D01*
X79767Y26914D01*
X79498Y27026D01*
X79210Y27064D01*
D02*
G37*
G36*
X20790D02*
X20502Y27026D01*
X20233Y26914D01*
X20003Y26737D01*
X19826Y26507D01*
X19714Y26238D01*
X19676Y25950D01*
X19714Y25662D01*
X19826Y25393D01*
X20003Y25163D01*
X20233Y24986D01*
X20502Y24874D01*
X20790Y24836D01*
X21078Y24874D01*
X21347Y24986D01*
X21577Y25163D01*
X21754Y25393D01*
X21866Y25662D01*
X21904Y25950D01*
X21866Y26238D01*
X21754Y26507D01*
X21577Y26737D01*
X21347Y26914D01*
X21078Y27026D01*
X20790Y27064D01*
D02*
G37*
G36*
X18250D02*
X17962Y27026D01*
X17693Y26914D01*
X17463Y26737D01*
X17286Y26507D01*
X17174Y26238D01*
X17136Y25950D01*
X17174Y25662D01*
X17286Y25393D01*
X17463Y25163D01*
X17693Y24986D01*
X17962Y24874D01*
X18250Y24836D01*
X18538Y24874D01*
X18807Y24986D01*
X19037Y25163D01*
X19214Y25393D01*
X19326Y25662D01*
X19364Y25950D01*
X19326Y26238D01*
X19214Y26507D01*
X19037Y26737D01*
X18807Y26914D01*
X18538Y27026D01*
X18250Y27064D01*
D02*
G37*
G36*
X98142Y25200D02*
X97609D01*
Y24667D01*
X97789Y24741D01*
X97947Y24862D01*
X98068Y25020D01*
X98142Y25200D01*
D02*
G37*
G36*
X97209D02*
X96676D01*
X96750Y25020D01*
X96871Y24862D01*
X97029Y24741D01*
X97209Y24667D01*
Y25200D01*
D02*
G37*
G36*
X89252D02*
X88719D01*
Y24667D01*
X88899Y24741D01*
X89057Y24862D01*
X89178Y25020D01*
X89252Y25200D01*
D02*
G37*
G36*
X88319D02*
X87786D01*
X87860Y25020D01*
X87981Y24862D01*
X88139Y24741D01*
X88319Y24667D01*
Y25200D01*
D02*
G37*
G36*
X97609Y24228D02*
Y23695D01*
X98142D01*
X98068Y23875D01*
X97947Y24033D01*
X97789Y24154D01*
X97609Y24228D01*
D02*
G37*
G36*
X97209D02*
X97029Y24154D01*
X96871Y24033D01*
X96750Y23875D01*
X96676Y23695D01*
X97209D01*
Y24228D01*
D02*
G37*
G36*
X88719D02*
Y23695D01*
X89252D01*
X89178Y23875D01*
X89057Y24033D01*
X88899Y24154D01*
X88719Y24228D01*
D02*
G37*
G36*
X88319D02*
X88139Y24154D01*
X87981Y24033D01*
X87860Y23875D01*
X87786Y23695D01*
X88319D01*
Y24228D01*
D02*
G37*
G36*
X93545Y23868D02*
Y23314D01*
X94249D01*
Y23868D01*
X93545D01*
D02*
G37*
G36*
X91113D02*
X90409D01*
Y23314D01*
X91113D01*
Y23868D01*
D02*
G37*
G36*
X70353Y23825D02*
Y23292D01*
X70886D01*
X70812Y23472D01*
X70691Y23630D01*
X70533Y23751D01*
X70353Y23825D01*
D02*
G37*
G36*
X69953D02*
X69773Y23751D01*
X69615Y23630D01*
X69494Y23472D01*
X69420Y23292D01*
X69953D01*
Y23825D01*
D02*
G37*
G36*
X98142Y23295D02*
X97609D01*
Y22762D01*
X97789Y22836D01*
X97947Y22957D01*
X98068Y23115D01*
X98142Y23295D01*
D02*
G37*
G36*
X97209D02*
X96676D01*
X96750Y23115D01*
X96871Y22957D01*
X97029Y22836D01*
X97209Y22762D01*
Y23295D01*
D02*
G37*
G36*
X89252D02*
X88719D01*
Y22762D01*
X88899Y22836D01*
X89057Y22957D01*
X89178Y23115D01*
X89252Y23295D01*
D02*
G37*
G36*
X88319D02*
X87786D01*
X87860Y23115D01*
X87981Y22957D01*
X88139Y22836D01*
X88319Y22762D01*
Y23295D01*
D02*
G37*
G36*
X94249Y22914D02*
X93545D01*
Y22360D01*
X94249D01*
Y22914D01*
D02*
G37*
G36*
X91113Y22914D02*
X90409D01*
Y22360D01*
X91113D01*
Y22914D01*
D02*
G37*
G36*
X92441Y23868D02*
X92217D01*
X92141Y23868D01*
X91513D01*
Y23114D01*
Y22360D01*
X92141D01*
X92217Y22360D01*
X92441D01*
X92517Y22360D01*
X93145D01*
Y23114D01*
Y23868D01*
X92517D01*
X92441Y23868D01*
D02*
G37*
G36*
X70886Y22892D02*
X70353D01*
Y22359D01*
X70533Y22433D01*
X70691Y22554D01*
X70812Y22712D01*
X70886Y22892D01*
D02*
G37*
G36*
X69953D02*
X69420D01*
X69494Y22712D01*
X69615Y22554D01*
X69773Y22433D01*
X69953Y22359D01*
Y22892D01*
D02*
G37*
G36*
X81750Y24524D02*
X81462Y24486D01*
X81193Y24374D01*
X80963Y24197D01*
X80786Y23967D01*
X80674Y23698D01*
X80636Y23410D01*
X80674Y23122D01*
X80786Y22853D01*
X80963Y22623D01*
X81193Y22446D01*
X81462Y22334D01*
X81750Y22296D01*
X82038Y22334D01*
X82307Y22446D01*
X82537Y22623D01*
X82714Y22853D01*
X82826Y23122D01*
X82864Y23410D01*
X82826Y23698D01*
X82714Y23967D01*
X82537Y24197D01*
X82307Y24374D01*
X82038Y24486D01*
X81750Y24524D01*
D02*
G37*
G36*
X79210D02*
X78922Y24486D01*
X78653Y24374D01*
X78423Y24197D01*
X78246Y23967D01*
X78134Y23698D01*
X78125Y23628D01*
X77919Y23413D01*
X77809Y23413D01*
X76111D01*
Y21905D01*
X76603D01*
Y15571D01*
X73939Y12907D01*
X69049D01*
X68953Y13033D01*
X68795Y13154D01*
X68612Y13230D01*
X68415Y13256D01*
X68218Y13230D01*
X68035Y13154D01*
X67877Y13033D01*
X67756Y12875D01*
X67680Y12692D01*
X67654Y12495D01*
X67680Y12298D01*
X67756Y12115D01*
X67877Y11957D01*
X68035Y11836D01*
X68218Y11760D01*
X68415Y11734D01*
X68612Y11760D01*
X68795Y11836D01*
X68953Y11957D01*
X69049Y12083D01*
X74110D01*
X74268Y12114D01*
X74401Y12204D01*
X77306Y15109D01*
X77396Y15242D01*
X77427Y15400D01*
Y21905D01*
X77919D01*
Y22858D01*
X78219Y22918D01*
X78246Y22853D01*
X78423Y22623D01*
X78653Y22446D01*
X78922Y22334D01*
X79210Y22296D01*
X79498Y22334D01*
X79767Y22446D01*
X79997Y22623D01*
X80174Y22853D01*
X80286Y23122D01*
X80324Y23410D01*
X80286Y23698D01*
X80174Y23967D01*
X79997Y24197D01*
X79767Y24374D01*
X79498Y24486D01*
X79210Y24524D01*
D02*
G37*
G36*
X20790D02*
X20502Y24486D01*
X20233Y24374D01*
X20003Y24197D01*
X19826Y23967D01*
X19714Y23698D01*
X19676Y23410D01*
X19714Y23122D01*
X19826Y22853D01*
X20003Y22623D01*
X20233Y22446D01*
X20502Y22334D01*
X20790Y22296D01*
X21078Y22334D01*
X21347Y22446D01*
X21577Y22623D01*
X21754Y22853D01*
X21866Y23122D01*
X21904Y23410D01*
X21866Y23698D01*
X21754Y23967D01*
X21577Y24197D01*
X21347Y24374D01*
X21078Y24486D01*
X20790Y24524D01*
D02*
G37*
G36*
X18250D02*
X17962Y24486D01*
X17693Y24374D01*
X17463Y24197D01*
X17286Y23967D01*
X17174Y23698D01*
X17136Y23410D01*
X17174Y23122D01*
X17286Y22853D01*
X17463Y22623D01*
X17693Y22446D01*
X17962Y22334D01*
X18250Y22296D01*
X18538Y22334D01*
X18807Y22446D01*
X19037Y22623D01*
X19214Y22853D01*
X19326Y23122D01*
X19364Y23410D01*
X19326Y23698D01*
X19214Y23967D01*
X19037Y24197D01*
X18807Y24374D01*
X18538Y24486D01*
X18250Y24524D01*
D02*
G37*
G36*
X58039Y22309D02*
X57185D01*
Y21705D01*
X58039D01*
Y22309D01*
D02*
G37*
G36*
X56785D02*
X55931D01*
Y21705D01*
X56785D01*
Y22309D01*
D02*
G37*
G36*
X58039Y21305D02*
X57185D01*
Y20701D01*
X58039D01*
Y21305D01*
D02*
G37*
G36*
X56785D02*
X55931D01*
Y20701D01*
X56785D01*
Y21305D01*
D02*
G37*
G36*
X97609Y20637D02*
Y20104D01*
X98142D01*
X98068Y20284D01*
X97947Y20442D01*
X97789Y20563D01*
X97609Y20637D01*
D02*
G37*
G36*
X97209D02*
X97029Y20563D01*
X96871Y20442D01*
X96750Y20284D01*
X96676Y20104D01*
X97209D01*
Y20637D01*
D02*
G37*
G36*
X88719D02*
Y20104D01*
X89252D01*
X89178Y20284D01*
X89057Y20442D01*
X88899Y20563D01*
X88719Y20637D01*
D02*
G37*
G36*
X88319D02*
X88139Y20563D01*
X87981Y20442D01*
X87860Y20284D01*
X87786Y20104D01*
X88319D01*
Y20637D01*
D02*
G37*
G36*
X81750Y21984D02*
X81462Y21946D01*
X81193Y21834D01*
X80963Y21657D01*
X80786Y21427D01*
X80674Y21158D01*
X80636Y20870D01*
X80674Y20582D01*
X80786Y20313D01*
X80963Y20083D01*
X81193Y19906D01*
X81462Y19794D01*
X81750Y19756D01*
X82038Y19794D01*
X82307Y19906D01*
X82537Y20083D01*
X82714Y20313D01*
X82826Y20582D01*
X82864Y20870D01*
X82826Y21158D01*
X82714Y21427D01*
X82537Y21657D01*
X82307Y21834D01*
X82038Y21946D01*
X81750Y21984D01*
D02*
G37*
G36*
X79210D02*
X78922Y21946D01*
X78653Y21834D01*
X78423Y21657D01*
X78246Y21427D01*
X78134Y21158D01*
X78096Y20870D01*
X78134Y20582D01*
X78246Y20313D01*
X78423Y20083D01*
X78653Y19906D01*
X78922Y19794D01*
X79210Y19756D01*
X79498Y19794D01*
X79767Y19906D01*
X79997Y20083D01*
X80174Y20313D01*
X80286Y20582D01*
X80324Y20870D01*
X80286Y21158D01*
X80174Y21427D01*
X79997Y21657D01*
X79767Y21834D01*
X79498Y21946D01*
X79210Y21984D01*
D02*
G37*
G36*
X59603Y20075D02*
Y19542D01*
X60136D01*
X60062Y19722D01*
X59941Y19880D01*
X59783Y20001D01*
X59603Y20075D01*
D02*
G37*
G36*
X59203D02*
X59023Y20001D01*
X58865Y19880D01*
X58744Y19722D01*
X58670Y19542D01*
X59203D01*
Y20075D01*
D02*
G37*
G36*
X98142Y19704D02*
X97609D01*
Y19171D01*
X97789Y19245D01*
X97947Y19366D01*
X98068Y19524D01*
X98142Y19704D01*
D02*
G37*
G36*
X97209D02*
X96676D01*
X96750Y19524D01*
X96871Y19366D01*
X97029Y19245D01*
X97209Y19171D01*
Y19704D01*
D02*
G37*
G36*
X89252D02*
X88719D01*
Y19171D01*
X88899Y19245D01*
X89057Y19366D01*
X89178Y19524D01*
X89252Y19704D01*
D02*
G37*
G36*
X88319D02*
X87786D01*
X87860Y19524D01*
X87981Y19366D01*
X88139Y19245D01*
X88319Y19171D01*
Y19704D01*
D02*
G37*
G36*
X60136Y19142D02*
X59603D01*
Y18609D01*
X59783Y18683D01*
X59941Y18804D01*
X60062Y18962D01*
X60136Y19142D01*
D02*
G37*
G36*
X59203D02*
X58670D01*
X58744Y18962D01*
X58865Y18804D01*
X59023Y18683D01*
X59203Y18609D01*
Y19142D01*
D02*
G37*
G36*
X14894Y19063D02*
Y18530D01*
X15427D01*
X15353Y18710D01*
X15232Y18868D01*
X15074Y18989D01*
X14894Y19063D01*
D02*
G37*
G36*
X14494D02*
X14314Y18989D01*
X14156Y18868D01*
X14035Y18710D01*
X13961Y18530D01*
X14494D01*
Y19063D01*
D02*
G37*
G36*
X34325Y18428D02*
Y17895D01*
X34858D01*
X34784Y18075D01*
X34663Y18233D01*
X34505Y18354D01*
X34325Y18428D01*
D02*
G37*
G36*
X33925D02*
X33745Y18354D01*
X33587Y18233D01*
X33466Y18075D01*
X33392Y17895D01*
X33925D01*
Y18428D01*
D02*
G37*
G36*
X15427Y18130D02*
X14894D01*
Y17597D01*
X15074Y17671D01*
X15232Y17792D01*
X15353Y17950D01*
X15427Y18130D01*
D02*
G37*
G36*
X14494D02*
X13961D01*
X14035Y17950D01*
X14156Y17792D01*
X14314Y17671D01*
X14494Y17597D01*
Y18130D01*
D02*
G37*
G36*
X34858Y17495D02*
X34325D01*
Y16962D01*
X34505Y17036D01*
X34663Y17157D01*
X34784Y17315D01*
X34858Y17495D01*
D02*
G37*
G36*
X33925D02*
X33392D01*
X33466Y17315D01*
X33587Y17157D01*
X33745Y17036D01*
X33925Y16962D01*
Y17495D01*
D02*
G37*
G36*
X50200Y16733D02*
Y16200D01*
X50733D01*
X50659Y16380D01*
X50538Y16538D01*
X50380Y16659D01*
X50200Y16733D01*
D02*
G37*
G36*
X49800D02*
X49620Y16659D01*
X49462Y16538D01*
X49341Y16380D01*
X49267Y16200D01*
X49800D01*
Y16733D01*
D02*
G37*
G36*
X63953Y15892D02*
X63420D01*
X63494Y15712D01*
X63615Y15554D01*
X63773Y15433D01*
X63953Y15359D01*
Y15892D01*
D02*
G37*
G36*
X50733Y15800D02*
X50200D01*
Y15267D01*
X50380Y15341D01*
X50538Y15462D01*
X50659Y15620D01*
X50733Y15800D01*
D02*
G37*
G36*
X49800D02*
X49267D01*
X49341Y15620D01*
X49462Y15462D01*
X49620Y15341D01*
X49800Y15267D01*
Y15800D01*
D02*
G37*
G36*
X4530Y19074D02*
X4030D01*
X3637Y19035D01*
X3259Y18920D01*
X2911Y18734D01*
X2606Y18484D01*
X2356Y18179D01*
X2170Y17831D01*
X2055Y17453D01*
X2016Y17060D01*
X2055Y16667D01*
X2170Y16289D01*
X2356Y15941D01*
X2606Y15636D01*
X2911Y15386D01*
X3259Y15200D01*
X3637Y15085D01*
X4030Y15046D01*
X4530D01*
X4923Y15085D01*
X5301Y15200D01*
X5649Y15386D01*
X5954Y15636D01*
X6204Y15941D01*
X6390Y16289D01*
X6505Y16667D01*
X6544Y17060D01*
X6505Y17453D01*
X6390Y17831D01*
X6204Y18179D01*
X5954Y18484D01*
X5649Y18734D01*
X5301Y18920D01*
X4923Y19035D01*
X4530Y19074D01*
D02*
G37*
G36*
X70353Y14853D02*
Y14320D01*
X70886D01*
X70812Y14500D01*
X70691Y14658D01*
X70533Y14778D01*
X70353Y14853D01*
D02*
G37*
G36*
X93849Y18291D02*
X93349D01*
X92956Y18252D01*
X92578Y18137D01*
X92230Y17951D01*
X91925Y17701D01*
X91675Y17396D01*
X91489Y17048D01*
X91374Y16670D01*
X91335Y16277D01*
X91374Y15884D01*
X91489Y15506D01*
X91675Y15158D01*
X91925Y14853D01*
X92230Y14603D01*
X92578Y14417D01*
X92956Y14302D01*
X93349Y14263D01*
X93849D01*
X94242Y14302D01*
X94620Y14417D01*
X94968Y14603D01*
X95273Y14853D01*
X95523Y15158D01*
X95709Y15506D01*
X95824Y15884D01*
X95863Y16277D01*
X95824Y16670D01*
X95709Y17048D01*
X95523Y17396D01*
X95273Y17701D01*
X94968Y17951D01*
X94620Y18137D01*
X94242Y18252D01*
X93849Y18291D01*
D02*
G37*
G36*
X58124Y14404D02*
X56616D01*
Y13912D01*
X56095D01*
X55999Y14038D01*
X55841Y14159D01*
X55658Y14234D01*
X55461Y14260D01*
X55264Y14234D01*
X55081Y14159D01*
X54923Y14038D01*
X54802Y13880D01*
X54726Y13697D01*
X54700Y13500D01*
X54726Y13303D01*
X54802Y13120D01*
X54923Y12962D01*
X55081Y12841D01*
X55264Y12765D01*
X55461Y12739D01*
X55658Y12765D01*
X55841Y12841D01*
X55999Y12962D01*
X56095Y13088D01*
X56616D01*
Y12596D01*
X58124D01*
Y14404D01*
D02*
G37*
G36*
X60156D02*
X59602D01*
Y13700D01*
X60156D01*
Y14404D01*
D02*
G37*
G36*
X59202D02*
X58648D01*
Y13700D01*
X59202D01*
Y14404D01*
D02*
G37*
G36*
X70886Y13920D02*
X70353D01*
Y13387D01*
X70533Y13461D01*
X70691Y13582D01*
X70812Y13740D01*
X70886Y13920D01*
D02*
G37*
G36*
X60156Y13300D02*
X59602D01*
Y12596D01*
X60156D01*
Y13300D01*
D02*
G37*
G36*
X59202D02*
X58648D01*
Y12596D01*
X59202D01*
Y13300D01*
D02*
G37*
G36*
X93849Y13211D02*
X93799D01*
Y11397D01*
X95843D01*
X95824Y11590D01*
X95709Y11968D01*
X95523Y12316D01*
X95273Y12621D01*
X94968Y12871D01*
X94620Y13057D01*
X94242Y13172D01*
X93849Y13211D01*
D02*
G37*
G36*
X93399D02*
X93349D01*
X92956Y13172D01*
X92578Y13057D01*
X92230Y12871D01*
X91925Y12621D01*
X91675Y12316D01*
X91489Y11968D01*
X91374Y11590D01*
X91355Y11397D01*
X93399D01*
Y13211D01*
D02*
G37*
G36*
X22924Y10691D02*
X22220D01*
Y10137D01*
X22924D01*
Y10691D01*
D02*
G37*
G36*
X21820D02*
X21116D01*
Y10137D01*
X21820D01*
Y10691D01*
D02*
G37*
G36*
X26320Y12169D02*
Y10025D01*
X28134D01*
Y10175D01*
X28095Y10568D01*
X27980Y10946D01*
X27794Y11294D01*
X27544Y11599D01*
X27239Y11849D01*
X26891Y12035D01*
X26513Y12150D01*
X26320Y12169D01*
D02*
G37*
G36*
X13120D02*
Y10025D01*
X14934D01*
Y10175D01*
X14895Y10568D01*
X14780Y10946D01*
X14594Y11294D01*
X14344Y11599D01*
X14039Y11849D01*
X13691Y12035D01*
X13313Y12150D01*
X13120Y12169D01*
D02*
G37*
G36*
X12720D02*
X12527Y12150D01*
X12149Y12035D01*
X11801Y11849D01*
X11496Y11599D01*
X11246Y11294D01*
X11060Y10946D01*
X10945Y10568D01*
X10906Y10175D01*
Y10025D01*
X12720D01*
Y12169D01*
D02*
G37*
G36*
X25920D02*
X25727Y12150D01*
X25349Y12035D01*
X25001Y11849D01*
X24696Y11599D01*
X24446Y11294D01*
X24260Y10946D01*
X24145Y10568D01*
X24106Y10175D01*
Y10025D01*
X25920D01*
Y12169D01*
D02*
G37*
G36*
X4530Y13994D02*
X4030D01*
X3637Y13955D01*
X3259Y13840D01*
X2911Y13654D01*
X2606Y13404D01*
X2356Y13099D01*
X2170Y12751D01*
X2055Y12373D01*
X2016Y11980D01*
X2055Y11587D01*
X2170Y11209D01*
X2356Y10861D01*
X2606Y10556D01*
X2911Y10306D01*
X3259Y10120D01*
X3637Y10005D01*
X4030Y9966D01*
X4530D01*
X4923Y10005D01*
X5301Y10120D01*
X5649Y10306D01*
X5954Y10556D01*
X6204Y10861D01*
X6390Y11209D01*
X6505Y11587D01*
X6544Y11980D01*
X6505Y12373D01*
X6390Y12751D01*
X6204Y13099D01*
X5954Y13404D01*
X5649Y13654D01*
X5301Y13840D01*
X4923Y13955D01*
X4530Y13994D01*
D02*
G37*
G36*
X50200Y9733D02*
Y9200D01*
X50733D01*
X50659Y9380D01*
X50538Y9538D01*
X50380Y9658D01*
X50200Y9733D01*
D02*
G37*
G36*
X49800D02*
X49620Y9658D01*
X49462Y9538D01*
X49341Y9380D01*
X49267Y9200D01*
X49800D01*
Y9733D01*
D02*
G37*
G36*
X95843Y10997D02*
X93799D01*
Y9183D01*
X93849D01*
X94242Y9222D01*
X94620Y9337D01*
X94968Y9523D01*
X95273Y9773D01*
X95523Y10078D01*
X95709Y10426D01*
X95824Y10804D01*
X95843Y10997D01*
D02*
G37*
G36*
X93399D02*
X91355D01*
X91374Y10804D01*
X91489Y10426D01*
X91675Y10078D01*
X91925Y9773D01*
X92230Y9523D01*
X92578Y9337D01*
X92956Y9222D01*
X93349Y9183D01*
X93399D01*
Y10997D01*
D02*
G37*
G36*
X22924Y9737D02*
X22220D01*
Y9183D01*
X22924D01*
Y9737D01*
D02*
G37*
G36*
X21820D02*
X21116D01*
Y9183D01*
X21820D01*
Y9737D01*
D02*
G37*
G36*
X50733Y8800D02*
X50200D01*
Y8267D01*
X50380Y8341D01*
X50538Y8462D01*
X50659Y8620D01*
X50733Y8800D01*
D02*
G37*
G36*
X49800D02*
X49267D01*
X49341Y8620D01*
X49462Y8462D01*
X49620Y8341D01*
X49800Y8267D01*
Y8800D01*
D02*
G37*
G36*
X28134Y9625D02*
X26320D01*
Y7481D01*
X26513Y7500D01*
X26891Y7615D01*
X27239Y7801D01*
X27544Y8051D01*
X27794Y8356D01*
X27980Y8704D01*
X28095Y9082D01*
X28134Y9475D01*
Y9625D01*
D02*
G37*
G36*
X14934D02*
X13120D01*
Y7481D01*
X13313Y7500D01*
X13691Y7615D01*
X14039Y7801D01*
X14344Y8051D01*
X14594Y8356D01*
X14780Y8704D01*
X14895Y9082D01*
X14934Y9475D01*
Y9625D01*
D02*
G37*
G36*
X12720D02*
X10906D01*
Y9475D01*
X10945Y9082D01*
X11060Y8704D01*
X11246Y8356D01*
X11496Y8051D01*
X11801Y7801D01*
X12149Y7615D01*
X12527Y7500D01*
X12720Y7481D01*
Y9625D01*
D02*
G37*
G36*
X25920D02*
X24106D01*
Y9475D01*
X24145Y9082D01*
X24260Y8704D01*
X24446Y8356D01*
X24696Y8051D01*
X25001Y7801D01*
X25349Y7615D01*
X25727Y7500D01*
X25920Y7481D01*
Y9625D01*
D02*
G37*
G36*
X54037Y7404D02*
X53483D01*
Y6700D01*
X54037D01*
Y7404D01*
D02*
G37*
G36*
X53083D02*
X52529D01*
Y6700D01*
X53083D01*
Y7404D01*
D02*
G37*
G36*
X56069D02*
X54561D01*
Y5596D01*
X56069D01*
Y5855D01*
X56124Y5909D01*
X56447Y5962D01*
X56605Y5841D01*
X56788Y5765D01*
X56985Y5739D01*
X57182Y5765D01*
X57365Y5841D01*
X57523Y5962D01*
X57644Y6120D01*
X57720Y6303D01*
X57745Y6500D01*
X57720Y6697D01*
X57644Y6880D01*
X57523Y7038D01*
X57365Y7159D01*
X57182Y7234D01*
X56985Y7260D01*
X56788Y7234D01*
X56605Y7159D01*
X56447Y7038D01*
X56124Y7091D01*
X56069Y7145D01*
Y7404D01*
D02*
G37*
G36*
X54037Y6300D02*
X53483D01*
Y5596D01*
X54037D01*
Y6300D01*
D02*
G37*
G36*
X53083D02*
X52529D01*
Y5596D01*
X53083D01*
Y6300D01*
D02*
G37*
G36*
X70266Y5963D02*
Y5430D01*
X70799D01*
X70725Y5610D01*
X70604Y5768D01*
X70446Y5889D01*
X70266Y5963D01*
D02*
G37*
G36*
X69866D02*
X69686Y5889D01*
X69528Y5768D01*
X69407Y5610D01*
X69333Y5430D01*
X69866D01*
Y5963D01*
D02*
G37*
G36*
X95200Y8248D02*
Y5200D01*
X98248D01*
X98224Y5511D01*
X98104Y6009D01*
X97908Y6482D01*
X97641Y6919D01*
X97308Y7308D01*
X96919Y7641D01*
X96482Y7908D01*
X96009Y8104D01*
X95511Y8224D01*
X95200Y8248D01*
D02*
G37*
G36*
X94800D02*
X94489Y8224D01*
X93991Y8104D01*
X93518Y7908D01*
X93081Y7641D01*
X92692Y7308D01*
X92359Y6919D01*
X92092Y6482D01*
X91896Y6009D01*
X91776Y5511D01*
X91752Y5200D01*
X94800D01*
Y8248D01*
D02*
G37*
G36*
X5200D02*
Y5200D01*
X8248D01*
X8224Y5511D01*
X8104Y6009D01*
X7908Y6482D01*
X7641Y6919D01*
X7308Y7308D01*
X6919Y7641D01*
X6482Y7908D01*
X6009Y8104D01*
X5511Y8224D01*
X5200Y8248D01*
D02*
G37*
G36*
X4800D02*
X4489Y8224D01*
X3991Y8104D01*
X3518Y7908D01*
X3081Y7641D01*
X2692Y7308D01*
X2359Y6919D01*
X2092Y6482D01*
X1896Y6009D01*
X1776Y5511D01*
X1752Y5200D01*
X4800D01*
Y8248D01*
D02*
G37*
G36*
X70799Y5030D02*
X70266D01*
Y4497D01*
X70446Y4571D01*
X70604Y4692D01*
X70725Y4850D01*
X70799Y5030D01*
D02*
G37*
G36*
X69866D02*
X69333D01*
X69407Y4850D01*
X69528Y4692D01*
X69686Y4571D01*
X69866Y4497D01*
Y5030D01*
D02*
G37*
G36*
X17220Y4314D02*
Y3025D01*
X18379D01*
X18339Y3328D01*
X18203Y3658D01*
X17986Y3941D01*
X17703Y4158D01*
X17373Y4294D01*
X17220Y4314D01*
D02*
G37*
G36*
X16820Y4314D02*
X16667Y4294D01*
X16337Y4158D01*
X16054Y3941D01*
X15837Y3658D01*
X15701Y3328D01*
X15661Y3025D01*
X16820D01*
Y4314D01*
D02*
G37*
G36*
X50200Y2733D02*
Y2200D01*
X50733D01*
X50659Y2380D01*
X50538Y2538D01*
X50380Y2658D01*
X50200Y2733D01*
D02*
G37*
G36*
X49800D02*
X49620Y2658D01*
X49462Y2538D01*
X49341Y2380D01*
X49267Y2200D01*
X49800D01*
Y2733D01*
D02*
G37*
G36*
X98248Y4800D02*
X95200D01*
Y1752D01*
X95511Y1776D01*
X96009Y1896D01*
X96482Y2092D01*
X96919Y2359D01*
X97308Y2692D01*
X97641Y3081D01*
X97908Y3518D01*
X98104Y3991D01*
X98224Y4489D01*
X98248Y4800D01*
D02*
G37*
G36*
X8248Y4800D02*
X5200D01*
Y1752D01*
X5511Y1776D01*
X6009Y1896D01*
X6482Y2092D01*
X6919Y2359D01*
X7308Y2692D01*
X7641Y3081D01*
X7908Y3518D01*
X8104Y3991D01*
X8224Y4489D01*
X8248Y4800D01*
D02*
G37*
G36*
X4800D02*
X1752D01*
X1776Y4489D01*
X1896Y3991D01*
X2092Y3518D01*
X2359Y3081D01*
X2692Y2692D01*
X3081Y2359D01*
X3518Y2092D01*
X3991Y1896D01*
X4489Y1776D01*
X4800Y1752D01*
Y4800D01*
D02*
G37*
G36*
X94800Y4800D02*
X91752D01*
X91776Y4489D01*
X91896Y3991D01*
X92092Y3518D01*
X92359Y3081D01*
X92692Y2692D01*
X93081Y2359D01*
X93518Y2092D01*
X93991Y1896D01*
X94489Y1776D01*
X94800Y1752D01*
Y4800D01*
D02*
G37*
G36*
X4715Y71133D02*
X4535Y71059D01*
X4377Y70938D01*
X4256Y70780D01*
X4182Y70600D01*
X4715D01*
Y71133D01*
D02*
G37*
G36*
X5648Y70200D02*
X5115D01*
Y69667D01*
X5295Y69741D01*
X5453Y69862D01*
X5574Y70020D01*
X5648Y70200D01*
D02*
G37*
G36*
X4715D02*
X4182D01*
X4256Y70020D01*
X4377Y69862D01*
X4535Y69741D01*
X4715Y69667D01*
Y70200D01*
D02*
G37*
G36*
X5985Y69049D02*
X5231D01*
Y68695D01*
X5985D01*
Y69049D01*
D02*
G37*
%LPD*%
D12*
X77015Y24691D02*
D03*
Y22659D02*
D03*
X76670Y50080D02*
D03*
Y52112D02*
D03*
X53440Y50207D02*
D03*
Y48175D02*
D03*
X91313Y25146D02*
D03*
Y23114D02*
D03*
X74000Y64050D02*
D03*
Y66082D02*
D03*
X71000Y64050D02*
D03*
Y66082D02*
D03*
X11985Y57700D02*
D03*
Y55668D02*
D03*
X48730Y73702D02*
D03*
Y71670D02*
D03*
X74638Y50080D02*
D03*
Y52112D02*
D03*
X56985Y39920D02*
D03*
Y37888D02*
D03*
X64224Y35856D02*
D03*
Y37888D02*
D03*
X86000Y77032D02*
D03*
Y79064D02*
D03*
X83250D02*
D03*
Y77032D02*
D03*
X93345Y25146D02*
D03*
Y23114D02*
D03*
X22020Y7905D02*
D03*
Y9937D02*
D03*
X23330Y48937D02*
D03*
Y46905D02*
D03*
X42634Y34078D02*
D03*
Y36110D02*
D03*
Y30014D02*
D03*
Y27982D02*
D03*
X45809Y24553D02*
D03*
Y26585D02*
D03*
X24600Y51858D02*
D03*
Y53890D02*
D03*
X81250Y77032D02*
D03*
Y75000D02*
D03*
X60795Y58144D02*
D03*
Y60176D02*
D03*
X91250Y73660D02*
D03*
Y71628D02*
D03*
D13*
X7427Y39875D02*
D03*
X9459D02*
D03*
X58636Y30268D02*
D03*
X56604D02*
D03*
X74765Y85430D02*
D03*
X72733D02*
D03*
X38570Y34078D02*
D03*
X40602D02*
D03*
X75527Y42460D02*
D03*
X73495D02*
D03*
X77726Y71670D02*
D03*
X75694D02*
D03*
X93345Y32385D02*
D03*
X91313D02*
D03*
X55315Y6500D02*
D03*
X53283D02*
D03*
X57370Y13500D02*
D03*
X59402D02*
D03*
X54826Y37888D02*
D03*
X52794D02*
D03*
X44539D02*
D03*
X42507D02*
D03*
X36538Y32173D02*
D03*
X38570D02*
D03*
X40602D02*
D03*
X42634D02*
D03*
X58636Y32808D02*
D03*
X56604D02*
D03*
X29553Y78782D02*
D03*
X31585D02*
D03*
X82330Y95080D02*
D03*
X80298D02*
D03*
D27*
X72590Y52046D02*
D03*
Y50146D02*
D03*
X70590Y51096D02*
D03*
D28*
X56985Y26585D02*
X60795D01*
X58636Y30268D02*
X60795D01*
X58636Y32808D02*
X60795D01*
X71590Y42460D02*
X73495D01*
X70955Y43095D02*
X71590Y42460D01*
X37575Y72665D02*
Y73702D01*
X31585Y78782D02*
Y85640D01*
X5550Y68495D02*
X6185D01*
X4915Y69130D02*
X5550Y68495D01*
X4915Y69130D02*
Y70400D01*
X6185Y62145D02*
X7455D01*
X6185Y57700D02*
Y59605D01*
X28410Y24680D02*
X59144D01*
X9459Y39875D02*
X11945D01*
X4727D02*
X7427D01*
X24600Y19905D02*
Y51858D01*
X6185Y60875D02*
X7455D01*
X64859Y40555D02*
X68682Y36732D01*
X27140Y40555D02*
X64859D01*
X65240Y41444D02*
X68669Y38015D01*
X47460Y41444D02*
X65240D01*
X60795Y43095D02*
X70955D01*
X58329Y51096D02*
X70590D01*
X54445Y53255D02*
X62700Y45000D01*
X70955Y32808D02*
Y34840D01*
X72225Y22000D02*
Y36110D01*
X60795Y55160D02*
X65240D01*
X47079Y33443D02*
Y35068D01*
X33109Y55795D02*
X47460Y41444D01*
X24600Y55795D02*
X33109D01*
X45301Y48175D02*
X46205D01*
X43015Y45889D02*
X45301Y48175D01*
X68682Y36732D02*
X71603D01*
X71831Y38015D02*
X73495Y36351D01*
X68669Y38015D02*
X71831D01*
X73495Y34840D02*
Y36351D01*
X71603Y36732D02*
X72225Y36110D01*
X73495Y22250D02*
Y34840D01*
X82766Y62780D02*
X84290Y64304D01*
X54826Y37888D02*
X64224D01*
X46205Y45650D02*
Y47525D01*
X40475Y53255D02*
X54445D01*
X50600Y58825D02*
X58329Y51096D01*
X31585Y71670D02*
X39840D01*
X11985Y57700D02*
Y60875D01*
X73495Y39640D02*
Y42460D01*
X77035Y24691D02*
Y38380D01*
X77015Y24691D02*
X77035D01*
Y38380D02*
X78575Y39920D01*
X80480D01*
X81750Y41190D01*
X77015Y15400D02*
Y22659D01*
X21915Y19230D02*
X23330Y20645D01*
X18925Y19230D02*
X21915D01*
X17020Y17325D02*
X18925Y19230D01*
X22020Y17325D02*
X24600Y19905D01*
X48255Y49475D02*
Y50875D01*
Y47525D02*
X48285Y47555D01*
X48255Y48175D02*
X53440D01*
X43665Y48825D02*
X46205D01*
X22020Y2825D02*
Y7905D01*
X55315Y6500D02*
X56985D01*
X88083Y49240D02*
X97083D01*
X38570Y62780D02*
X40616Y64826D01*
X46825Y71670D02*
X48730D01*
X27888Y61256D02*
X44920D01*
X21792Y55160D02*
X27888Y61256D01*
X20155Y55160D02*
X21792D01*
X19520Y54525D02*
X20155Y55160D01*
X76670Y50080D02*
X80480D01*
X81750Y48810D01*
X73495Y22250D02*
X75403Y20342D01*
X72225Y22000D02*
X75383Y18842D01*
X74638Y52112D02*
X76670D01*
X72656D02*
X74638D01*
X18250Y51350D02*
X19520Y52620D01*
X20790Y64050D02*
X38570D01*
X45555Y71035D01*
X20790Y66590D02*
X39205D01*
X44285Y71670D01*
X19520Y52620D02*
Y54525D01*
X2375Y64685D02*
X6185D01*
X2375Y62145D02*
X3645D01*
X4915Y63415D01*
X6185D01*
X4915Y65955D02*
X6185D01*
X3645Y67225D02*
X4915Y65955D01*
X2375Y67225D02*
X3645D01*
X2375Y69765D02*
X4915Y67225D01*
X6185D01*
X4915Y72305D02*
X7455Y69765D01*
X2375Y72305D02*
X4915D01*
X8725Y65955D02*
X9995Y64685D01*
X11985D01*
X2375Y74845D02*
X3645D01*
X8090Y70400D01*
X2375Y77385D02*
X8725Y71035D01*
Y65955D02*
Y71035D01*
X2375Y79925D02*
X9360Y72940D01*
X7455Y64685D02*
Y69765D01*
Y64685D02*
X9995Y62145D01*
X11985D01*
X8090Y65320D02*
Y70400D01*
Y65320D02*
X9995Y63415D01*
X11985D01*
X9360Y66590D02*
Y72940D01*
Y66590D02*
X9995Y65955D01*
X11985D01*
X27140Y42460D02*
X35395D01*
X79210Y31030D02*
X80480Y29760D01*
X79210Y33570D02*
X80480Y34840D01*
X96355Y30696D02*
Y37380D01*
X95085Y38650D02*
X96355Y37380D01*
X91313Y25146D02*
Y32385D01*
X93345Y25146D02*
Y29845D01*
Y32385D01*
X80480Y34840D02*
X82973D01*
X86783Y38650D01*
X95085D01*
X77726Y71670D02*
X79250D01*
X19520Y42460D02*
X20790Y43730D01*
X81750Y25950D02*
X86280Y30480D01*
X89789D01*
X80480Y29760D02*
X82590D01*
X85215Y32385D01*
X91313D01*
X68415Y12495D02*
X74110D01*
X77015Y15400D01*
X20790Y53890D02*
X24600D01*
X23330Y20645D02*
Y46905D01*
Y48937D02*
Y50080D01*
X22060Y51350D02*
X23330Y50080D01*
X20790Y51350D02*
X22060D01*
X45809Y26585D02*
Y30268D01*
Y35068D02*
X47079D01*
Y30268D02*
X56604D01*
X42634Y32173D02*
X45174D01*
X45809Y31538D01*
Y30268D02*
Y31538D01*
X42634Y30014D02*
Y32173D01*
X38570D02*
X40602D01*
Y34078D02*
X42634D01*
X40602Y29633D02*
Y32173D01*
X38402Y27093D02*
Y29633D01*
X40602Y34078D02*
Y35983D01*
X38402D02*
Y37888D01*
X42634Y36110D02*
X44539D01*
Y35068D02*
Y36110D01*
Y37888D01*
X47079Y33443D02*
X47714Y32808D01*
X56604D01*
X44539Y37888D02*
X52794D01*
X66129Y32808D02*
X70955D01*
X64224Y34713D02*
X66129Y32808D01*
X64224Y34713D02*
Y35856D01*
X55461Y13500D02*
X57370D01*
X59144Y22542D02*
Y24680D01*
Y22542D02*
X66658Y15028D01*
X68923D01*
X25235Y78782D02*
X29553D01*
X25870Y27220D02*
X28410Y24680D01*
X11945Y39875D02*
X15710Y36110D01*
X18250D01*
X17615Y42460D02*
X19520D01*
X16345Y39860D02*
Y41190D01*
X17615Y42460D01*
X15710Y39225D02*
X16345Y39860D01*
X25870Y32300D02*
X36538D01*
X25870Y37380D02*
X34760D01*
X27140Y38650D02*
X35395D01*
X36665Y37380D01*
Y34840D02*
Y37380D01*
Y34840D02*
X37427Y34078D01*
X38570D01*
X2360Y28475D02*
X9995Y36110D01*
X13805D01*
X9360Y33570D02*
X18250D01*
X9995Y49445D02*
X11900Y47540D01*
X9995Y49445D02*
Y59605D01*
X7455Y62145D02*
X9995Y59605D01*
X8725Y49445D02*
X11900Y46270D01*
X8725Y49445D02*
Y59605D01*
X7455Y60875D02*
X8725Y59605D01*
X2375Y51985D02*
X10100Y44260D01*
X12535D01*
X74765Y80235D02*
Y90000D01*
X60795Y55160D02*
Y58144D01*
Y60176D02*
Y62780D01*
X82766D01*
X40616Y64826D02*
X58749D01*
X60795Y62780D01*
X62700Y45000D02*
X80480D01*
X81750Y43730D01*
X81250Y71670D02*
Y75000D01*
X74765Y80235D02*
X77968Y77032D01*
X86000Y79064D02*
Y82080D01*
X90250Y77330D02*
Y97620D01*
X77968Y77032D02*
X86000D01*
X83250Y79064D02*
Y83330D01*
X81250Y85330D02*
X83250Y83330D01*
X81250Y85330D02*
Y91175D01*
X88250Y77330D02*
Y94240D01*
X87410Y95080D02*
X88250Y94240D01*
X87410Y95080D02*
Y97620D01*
X80298Y93175D02*
Y95080D01*
X82330D02*
Y97620D01*
X84870Y94445D02*
Y97620D01*
X83600Y93175D02*
X84870Y94445D01*
X82198Y93175D02*
X83600D01*
X86000Y82080D02*
X87250Y83330D01*
Y91875D01*
X91250Y73660D02*
Y91875D01*
X84290Y64304D02*
Y66510D01*
X89408Y71628D01*
X91250D01*
D29*
X50000Y34840D02*
X60795D01*
X64224Y65828D02*
X64224Y65828D01*
X62065Y65828D02*
X64224D01*
X48577Y34840D02*
X50000D01*
D31*
X54826Y67366D02*
X59144D01*
Y70541D01*
D32*
X13170Y60875D02*
X13805Y61510D01*
X11985Y60875D02*
X13170D01*
X37575Y73702D02*
X48730D01*
X57743D01*
X59144Y72301D01*
Y70541D02*
Y72301D01*
X57743Y73702D02*
Y76750D01*
X13805Y61510D02*
Y69130D01*
X18377Y73702D01*
X37575D01*
D33*
X64224Y65828D02*
Y81830D01*
X17236Y86000D02*
X28031D01*
X31969D02*
X60054D01*
X64224Y81830D01*
Y65828D02*
X66002Y64050D01*
X79210D01*
D35*
X95250Y90000D02*
G03*
X93250Y88000I0J-2000D01*
G01*
X98000Y90000D02*
G03*
X100000Y92000I0J2000D01*
G01*
Y72000D02*
G03*
X98000Y74000I-2000J0D01*
G01*
X93250Y76000D02*
G03*
X95250Y74000I2000J0D01*
G01*
Y90000D02*
X98000D01*
X-0Y100000D02*
X0Y0D01*
X93250Y76000D02*
Y88000D01*
X95250Y74000D02*
X98000D01*
X-0Y100000D02*
X100000D01*
X100000Y92000D02*
Y100000D01*
X100000Y0D02*
Y72000D01*
X0Y0D02*
X100000D01*
D36*
X17236Y92000D02*
D03*
Y86000D02*
D03*
X12536Y89000D02*
D03*
D37*
X2375Y51985D02*
D03*
Y54525D02*
D03*
Y46905D02*
D03*
Y44365D02*
D03*
Y41825D02*
D03*
X2360Y25935D02*
D03*
Y28475D02*
D03*
X2375Y59605D02*
D03*
Y62145D02*
D03*
Y64685D02*
D03*
Y67225D02*
D03*
Y69765D02*
D03*
Y72305D02*
D03*
Y74845D02*
D03*
Y77385D02*
D03*
Y79925D02*
D03*
X20790Y20870D02*
D03*
X18250D02*
D03*
X79210D02*
D03*
X81750D02*
D03*
X18250Y69130D02*
D03*
X20790Y66590D02*
D03*
X18250D02*
D03*
X20790Y64050D02*
D03*
X18250D02*
D03*
X20790Y61510D02*
D03*
X18250D02*
D03*
X20790Y58970D02*
D03*
X18250D02*
D03*
X20790Y56430D02*
D03*
X18250D02*
D03*
X20790Y53890D02*
D03*
X18250D02*
D03*
X20790Y51350D02*
D03*
X18250D02*
D03*
X20790Y48810D02*
D03*
X18250D02*
D03*
X20790Y46270D02*
D03*
X18250D02*
D03*
X20790Y43730D02*
D03*
X18250D02*
D03*
X20790Y41190D02*
D03*
X18250D02*
D03*
X20790Y38650D02*
D03*
X18250D02*
D03*
X20790Y36110D02*
D03*
X18250D02*
D03*
X20790Y33570D02*
D03*
X18250D02*
D03*
X20790Y31030D02*
D03*
X18250D02*
D03*
X20790Y28490D02*
D03*
X18250D02*
D03*
X20790Y25950D02*
D03*
X18250D02*
D03*
X20790Y23410D02*
D03*
X18250D02*
D03*
X79210Y69130D02*
D03*
X81750Y66590D02*
D03*
X79210D02*
D03*
X81750Y64050D02*
D03*
X79210D02*
D03*
X81750Y61510D02*
D03*
X79210D02*
D03*
X81750Y58970D02*
D03*
X79210D02*
D03*
X81750Y56430D02*
D03*
X79210D02*
D03*
X81750Y53890D02*
D03*
X79210D02*
D03*
X81750Y51350D02*
D03*
X79210D02*
D03*
X81750Y48810D02*
D03*
X79210D02*
D03*
X81750Y46270D02*
D03*
X79210D02*
D03*
X81750Y43730D02*
D03*
X79210D02*
D03*
X81750Y41190D02*
D03*
X79210D02*
D03*
X81750Y38650D02*
D03*
X79210D02*
D03*
X81750Y36110D02*
D03*
X79210D02*
D03*
X81750Y33570D02*
D03*
X79210D02*
D03*
X81750Y31030D02*
D03*
X79210D02*
D03*
X81750Y28490D02*
D03*
X79210D02*
D03*
X81750Y25950D02*
D03*
X79210D02*
D03*
X81750Y23410D02*
D03*
X79210D02*
D03*
X2360Y33585D02*
D03*
Y36125D02*
D03*
Y38665D02*
D03*
X77250Y97620D02*
D03*
X79790D02*
D03*
X82330D02*
D03*
X84870D02*
D03*
X87410D02*
D03*
X89950D02*
D03*
D38*
X93599Y16277D02*
D03*
Y11197D02*
D03*
Y41169D02*
D03*
Y36089D02*
D03*
X4280Y17060D02*
D03*
Y11980D02*
D03*
D39*
X22020Y17325D02*
D03*
X19520D02*
D03*
X17020D02*
D03*
Y2825D02*
D03*
X22020D02*
D03*
D40*
X26120Y9825D02*
D03*
X12920D02*
D03*
D41*
X20790Y69130D02*
D03*
X81750D02*
D03*
D42*
X95000Y5000D02*
D03*
Y95000D02*
D03*
X5000D02*
D03*
X5000Y5000D02*
D03*
D43*
X60795Y26585D02*
D03*
Y30268D02*
D03*
Y32808D02*
D03*
Y34840D02*
D03*
X62065Y65828D02*
D03*
X97083Y44740D02*
D03*
X50000Y9000D02*
D03*
X10630Y70400D02*
D03*
X4915D02*
D03*
X13805Y36110D02*
D03*
X4727Y39875D02*
D03*
X12535Y44260D02*
D03*
X70955Y32808D02*
D03*
X65240Y55160D02*
D03*
X60795D02*
D03*
X46190Y40555D02*
D03*
X94687Y54308D02*
D03*
X60795Y37888D02*
D03*
X46205Y45650D02*
D03*
X59144Y24680D02*
D03*
X37575Y72665D02*
D03*
X74765Y90000D02*
D03*
X60795Y43095D02*
D03*
X34125Y17695D02*
D03*
X55461Y13500D02*
D03*
X48255Y50875D02*
D03*
X50635Y48175D02*
D03*
X43665Y48825D02*
D03*
X38570Y62780D02*
D03*
X44920Y61256D02*
D03*
X70066Y5230D02*
D03*
X70153Y14120D02*
D03*
X68923Y15028D02*
D03*
X24600Y55795D02*
D03*
X50600Y58825D02*
D03*
X89789Y30480D02*
D03*
X96355Y30696D02*
D03*
X75403Y20342D02*
D03*
X75383Y18842D02*
D03*
X70153Y23092D02*
D03*
X64153Y16092D02*
D03*
X59403Y19342D02*
D03*
X36665Y70400D02*
D03*
X45555Y71035D02*
D03*
X46825Y71670D02*
D03*
X44285D02*
D03*
X39840D02*
D03*
X35395Y42460D02*
D03*
X31585Y71670D02*
D03*
X40475Y53255D02*
D03*
X34760Y37380D02*
D03*
X25870D02*
D03*
X27140Y40555D02*
D03*
Y42460D02*
D03*
X93345Y29845D02*
D03*
X97409Y23495D02*
D03*
Y25400D02*
D03*
X88519Y23495D02*
D03*
Y25400D02*
D03*
X75641Y73927D02*
D03*
X79250Y71670D02*
D03*
X88083Y49240D02*
D03*
X97083D02*
D03*
X88083Y44740D02*
D03*
X88519Y19904D02*
D03*
X97409D02*
D03*
X68415Y12495D02*
D03*
X50000Y16000D02*
D03*
X56985Y6500D02*
D03*
X50000Y2000D02*
D03*
X57743Y76750D02*
D03*
X25235Y78782D02*
D03*
X15710Y80814D02*
D03*
X56985Y26585D02*
D03*
X50000Y34840D02*
D03*
X25870Y27220D02*
D03*
X6185Y57700D02*
D03*
X11900Y47540D02*
D03*
Y46270D02*
D03*
X15710Y39225D02*
D03*
X25870Y32300D02*
D03*
X27140Y38650D02*
D03*
X16345Y37380D02*
D03*
X15075Y41507D02*
D03*
X9360Y33570D02*
D03*
X14694Y18330D02*
D03*
X81250Y71670D02*
D03*
X59144Y68636D02*
D03*
Y67366D02*
D03*
Y69906D02*
D03*
X88250Y77330D02*
D03*
X90250D02*
D03*
X83250Y81330D02*
D03*
X91250Y91875D02*
D03*
X87250D02*
D03*
D44*
X37000Y90100D02*
D03*
Y85900D02*
D03*
D45*
X52000Y91500D02*
D03*
Y86500D02*
D03*
X44000Y91500D02*
D03*
Y86500D02*
D03*
X54826Y67366D02*
D03*
Y62366D02*
D03*
D46*
X11985Y59605D02*
D03*
Y60875D02*
D03*
Y62145D02*
D03*
Y64685D02*
D03*
Y63415D02*
D03*
Y65955D02*
D03*
X6185Y62145D02*
D03*
Y59605D02*
D03*
Y60875D02*
D03*
Y63415D02*
D03*
Y67225D02*
D03*
Y64685D02*
D03*
Y65955D02*
D03*
X11985Y68495D02*
D03*
Y67225D02*
D03*
X6185Y68495D02*
D03*
D47*
X38402Y27093D02*
D03*
X40602D02*
D03*
X38402Y37888D02*
D03*
X40602D02*
D03*
X38402Y29633D02*
D03*
X40602D02*
D03*
X38402Y35983D02*
D03*
X40602D02*
D03*
D48*
X28031Y86000D02*
D03*
X31969D02*
D03*
D49*
X70955Y34840D02*
D03*
X69685D02*
D03*
X73495D02*
D03*
X72225D02*
D03*
X70955Y39640D02*
D03*
X69685D02*
D03*
X72225D02*
D03*
X73495D02*
D03*
X48349Y35068D02*
D03*
X47079D02*
D03*
X44539D02*
D03*
X45809D02*
D03*
X47079Y30268D02*
D03*
X48349D02*
D03*
X44539D02*
D03*
X45809D02*
D03*
D50*
X63744Y70541D02*
D03*
X61444D02*
D03*
X59144D02*
D03*
D51*
X61444Y76341D02*
D03*
D52*
X46205Y49475D02*
D03*
Y48825D02*
D03*
Y48175D02*
D03*
Y47525D02*
D03*
X48255D02*
D03*
Y48175D02*
D03*
Y48825D02*
D03*
Y49475D02*
D03*
D53*
X68000Y67098D02*
D03*
Y64050D02*
D03*
X56985Y21505D02*
D03*
Y24553D02*
D03*
D54*
X71717Y87970D02*
D03*
X74765D02*
D03*
D55*
X81248Y91175D02*
D03*
X82198Y93175D02*
D03*
X80298D02*
D03*
M02*
