G04 Layer_Color=32896*
%FSLAX43Y43*%
%MOMM*%
G71*
G01*
G75*
%ADD35C,0.150*%
%ADD56C,2.000*%
%ADD57C,0.250*%
%ADD59C,0.200*%
%ADD61R,3.000X2.000*%
%ADD62R,1.000X2.000*%
%ADD63R,4.445X2.270*%
%ADD64R,3.000X2.000*%
%ADD65R,2.000X10.000*%
D35*
X38500Y84600D02*
Y85250D01*
X35500Y84600D02*
X38500D01*
X35500D02*
Y85250D01*
X38500Y90750D02*
Y91400D01*
X35500D02*
X38500D01*
X35500Y90750D02*
Y91400D01*
X49000Y85400D02*
Y86200D01*
X48600Y85800D02*
X49400D01*
X48500Y92500D02*
X50800D01*
X48500Y87100D02*
Y92500D01*
Y87100D02*
X50100Y85500D01*
X50800D01*
X53200D02*
X53900D01*
X55500Y87100D01*
Y92500D01*
X53200D02*
X55500D01*
X40752Y26343D02*
X41252D01*
Y27843D01*
X40752D02*
X41252D01*
X37752Y26343D02*
X38252D01*
X37752D02*
Y27843D01*
X38252D01*
X40752Y37138D02*
X41252D01*
Y38638D01*
X40752D02*
X41252D01*
X37752Y37138D02*
X38252D01*
X37752D02*
Y38638D01*
X38252D01*
X40752Y28883D02*
X41252D01*
Y30383D01*
X40752D02*
X41252D01*
X37752Y28883D02*
X38252D01*
X37752D02*
Y30383D01*
X38252D01*
X40752Y35233D02*
X41252D01*
Y36733D01*
X40752D02*
X41252D01*
X37752Y35233D02*
X38252D01*
X37752D02*
Y36733D01*
X38252D01*
X41000Y85400D02*
Y86200D01*
X40600Y85800D02*
X41400D01*
X40500Y92500D02*
X42800D01*
X40500Y87100D02*
Y92500D01*
Y87100D02*
X42100Y85500D01*
X42800D01*
X45200D02*
X45900D01*
X47500Y87100D01*
Y92500D01*
X45200D02*
X47500D01*
X26750Y83950D02*
Y88050D01*
X27500D01*
X26750Y83950D02*
X27500D01*
X26750D02*
X27500D01*
X26750Y88050D02*
X27500D01*
X26750Y83950D02*
Y88050D01*
X32500Y83950D02*
X33250D01*
X32500Y88050D02*
X33250D01*
Y83950D02*
Y88050D01*
X64794Y71841D02*
Y75341D01*
X63844D02*
X64794D01*
X58094D02*
X59044D01*
X58094Y71841D02*
Y75341D01*
X51326Y61366D02*
X53626D01*
X51326D02*
Y66766D01*
X52926Y68366D01*
X53626D01*
X56026D02*
X56726D01*
X58326Y66766D01*
Y61366D02*
Y66766D01*
X56026Y61366D02*
X58326D01*
X57426Y68066D02*
X58226D01*
X57826Y67666D02*
Y68466D01*
X69143Y67074D02*
Y67974D01*
X66857Y67074D02*
Y67974D01*
X69143D01*
X67100Y63174D02*
X68900D01*
X66857Y63417D02*
X67100Y63174D01*
X66857Y63417D02*
Y64074D01*
X69143Y63417D02*
Y64074D01*
X68900Y63174D02*
X69143Y63417D01*
X67365Y65574D02*
X68635D01*
X70841Y89113D02*
X71741D01*
X70841Y86827D02*
X71741D01*
X70841D02*
Y89113D01*
X75641Y87070D02*
Y88870D01*
X75398Y86827D02*
X75641Y87070D01*
X74741Y86827D02*
X75398D01*
X74741Y89113D02*
X75398D01*
X75641Y88870D01*
X73241Y87335D02*
Y88605D01*
X55842Y20629D02*
Y21529D01*
X58128Y20629D02*
Y21529D01*
X55842Y20629D02*
X58128D01*
X56085Y25429D02*
X57885D01*
X58128Y25186D01*
Y24529D02*
Y25186D01*
X55842Y24529D02*
Y25186D01*
X56085Y25429D01*
X56350Y23029D02*
X57620D01*
X22966Y43876D02*
X23666D01*
Y44226D01*
X23549Y44343D01*
X23316D01*
X23199Y44226D01*
Y43876D01*
Y44110D02*
X22966Y44343D01*
Y44926D02*
X23666D01*
X23316Y44576D01*
Y45043D01*
X23549Y45276D02*
X23666Y45393D01*
Y45626D01*
X23549Y45742D01*
X23432D01*
X23316Y45626D01*
X23199Y45742D01*
X23082D01*
X22966Y45626D01*
Y45393D01*
X23082Y45276D01*
X23199D01*
X23316Y45393D01*
X23432Y45276D01*
X23549D01*
X23316Y45393D02*
Y45626D01*
X76661Y19518D02*
X77361D01*
Y19868D01*
X77245Y19984D01*
X77011D01*
X76895Y19868D01*
Y19518D01*
Y19751D02*
X76661Y19984D01*
Y20567D02*
X77361D01*
X77011Y20218D01*
Y20684D01*
X77245Y20917D02*
X77361Y21034D01*
Y21267D01*
X77245Y21384D01*
X76778D01*
X76661Y21267D01*
Y21034D01*
X76778Y20917D01*
X77245D01*
X51261Y32435D02*
Y31852D01*
X51145Y31735D01*
X50912D01*
X50795Y31852D01*
Y32435D01*
X50562Y31735D02*
X50328D01*
X50445D01*
Y32435D01*
X50562Y32318D01*
X49978D02*
X49862Y32435D01*
X49629D01*
X49512Y32318D01*
Y31852D01*
X49629Y31735D01*
X49862D01*
X49978Y31852D01*
Y32318D01*
X45546Y21601D02*
X46246D01*
Y21950D01*
X46130Y22067D01*
X45896D01*
X45780Y21950D01*
Y21601D01*
Y21834D02*
X45546Y22067D01*
X46130Y22300D02*
X46246Y22417D01*
Y22650D01*
X46130Y22767D01*
X46013D01*
X45896Y22650D01*
Y22534D01*
Y22650D01*
X45780Y22767D01*
X45663D01*
X45546Y22650D01*
Y22417D01*
X45663Y22300D01*
X46246Y23467D02*
X46130Y23233D01*
X45896Y23000D01*
X45663D01*
X45546Y23117D01*
Y23350D01*
X45663Y23467D01*
X45780D01*
X45896Y23350D01*
Y23000D01*
X51642Y37018D02*
Y37718D01*
X51293D01*
X51176Y37602D01*
Y37368D01*
X51293Y37252D01*
X51642D01*
X51409D02*
X51176Y37018D01*
X50943Y37602D02*
X50826Y37718D01*
X50593D01*
X50476Y37602D01*
Y37485D01*
X50593Y37368D01*
X50709D01*
X50593D01*
X50476Y37252D01*
Y37135D01*
X50593Y37018D01*
X50826D01*
X50943Y37135D01*
X49776Y37718D02*
X50243D01*
Y37368D01*
X50010Y37485D01*
X49893D01*
X49776Y37368D01*
Y37135D01*
X49893Y37018D01*
X50126D01*
X50243Y37135D01*
X55376Y29348D02*
Y30047D01*
X55026D01*
X54910Y29931D01*
Y29697D01*
X55026Y29581D01*
X55376D01*
X55143D02*
X54910Y29348D01*
X54676Y29931D02*
X54560Y30047D01*
X54327D01*
X54210Y29931D01*
Y29814D01*
X54327Y29697D01*
X54443D01*
X54327D01*
X54210Y29581D01*
Y29464D01*
X54327Y29348D01*
X54560D01*
X54676Y29464D01*
X53627Y29348D02*
Y30047D01*
X53977Y29697D01*
X53510D01*
X55351Y32040D02*
Y32740D01*
X55001D01*
X54884Y32623D01*
Y32390D01*
X55001Y32273D01*
X55351D01*
X55118D02*
X54884Y32040D01*
X54651Y32623D02*
X54534Y32740D01*
X54301D01*
X54185Y32623D01*
Y32507D01*
X54301Y32390D01*
X54418D01*
X54301D01*
X54185Y32273D01*
Y32157D01*
X54301Y32040D01*
X54534D01*
X54651Y32157D01*
X53951Y32623D02*
X53835Y32740D01*
X53601D01*
X53485Y32623D01*
Y32507D01*
X53601Y32390D01*
X53718D01*
X53601D01*
X53485Y32273D01*
Y32157D01*
X53601Y32040D01*
X53835D01*
X53951Y32157D01*
X43616Y26046D02*
Y26745D01*
X43266D01*
X43149Y26629D01*
Y26395D01*
X43266Y26279D01*
X43616D01*
X43383D02*
X43149Y26046D01*
X42916Y26629D02*
X42800Y26745D01*
X42566D01*
X42450Y26629D01*
Y26512D01*
X42566Y26395D01*
X42683D01*
X42566D01*
X42450Y26279D01*
Y26162D01*
X42566Y26046D01*
X42800D01*
X42916Y26162D01*
X41750Y26046D02*
X42216D01*
X41750Y26512D01*
Y26629D01*
X41867Y26745D01*
X42100D01*
X42216Y26629D01*
X41940Y39406D02*
X42639D01*
Y39756D01*
X42523Y39873D01*
X42289D01*
X42173Y39756D01*
Y39406D01*
Y39639D02*
X41940Y39873D01*
X42523Y40106D02*
X42639Y40222D01*
Y40456D01*
X42523Y40572D01*
X42406D01*
X42289Y40456D01*
Y40339D01*
Y40456D01*
X42173Y40572D01*
X42056D01*
X41940Y40456D01*
Y40222D01*
X42056Y40106D01*
X41940Y40806D02*
Y41039D01*
Y40922D01*
X42639D01*
X42523Y40806D01*
X35285Y31329D02*
Y32029D01*
X34935D01*
X34818Y31912D01*
Y31679D01*
X34935Y31562D01*
X35285D01*
X35052D02*
X34818Y31329D01*
X34585Y31912D02*
X34468Y32029D01*
X34235D01*
X34119Y31912D01*
Y31795D01*
X34235Y31679D01*
X34352D01*
X34235D01*
X34119Y31562D01*
Y31445D01*
X34235Y31329D01*
X34468D01*
X34585Y31445D01*
X33885Y31912D02*
X33769Y32029D01*
X33535D01*
X33419Y31912D01*
Y31445D01*
X33535Y31329D01*
X33769D01*
X33885Y31445D01*
Y31912D01*
X37368Y33412D02*
Y34111D01*
X37018D01*
X36901Y33995D01*
Y33761D01*
X37018Y33645D01*
X37368D01*
X37134D02*
X36901Y33412D01*
X36201D02*
X36668D01*
X36201Y33878D01*
Y33995D01*
X36318Y34111D01*
X36551D01*
X36668Y33995D01*
X35968Y33528D02*
X35851Y33412D01*
X35618D01*
X35502Y33528D01*
Y33995D01*
X35618Y34111D01*
X35851D01*
X35968Y33995D01*
Y33878D01*
X35851Y33761D01*
X35502D01*
X42346Y23810D02*
X43046D01*
Y24160D01*
X42929Y24277D01*
X42696D01*
X42579Y24160D01*
Y23810D01*
Y24044D02*
X42346Y24277D01*
Y24977D02*
Y24510D01*
X42813Y24977D01*
X42929D01*
X43046Y24860D01*
Y24627D01*
X42929Y24510D01*
Y25210D02*
X43046Y25327D01*
Y25560D01*
X42929Y25676D01*
X42813D01*
X42696Y25560D01*
X42579Y25676D01*
X42463D01*
X42346Y25560D01*
Y25327D01*
X42463Y25210D01*
X42579D01*
X42696Y25327D01*
X42813Y25210D01*
X42929D01*
X42696Y25327D02*
Y25560D01*
X47528Y37222D02*
Y37921D01*
X47178D01*
X47061Y37805D01*
Y37571D01*
X47178Y37455D01*
X47528D01*
X47294D02*
X47061Y37222D01*
X46361D02*
X46828D01*
X46361Y37688D01*
Y37805D01*
X46478Y37921D01*
X46711D01*
X46828Y37805D01*
X46128Y37921D02*
X45662D01*
Y37805D01*
X46128Y37338D01*
Y37222D01*
X37418Y27253D02*
Y26554D01*
X37069D01*
X36952Y26670D01*
Y27137D01*
X37069Y27253D01*
X37418D01*
X36252D02*
X36719D01*
Y26903D01*
X36485Y27020D01*
X36369D01*
X36252Y26903D01*
Y26670D01*
X36369Y26554D01*
X36602D01*
X36719Y26670D01*
X37393Y37921D02*
Y37222D01*
X37043D01*
X36926Y37338D01*
Y37805D01*
X37043Y37921D01*
X37393D01*
X36343Y37222D02*
Y37921D01*
X36693Y37571D01*
X36227D01*
X37342Y29641D02*
Y28941D01*
X36992D01*
X36876Y29058D01*
Y29524D01*
X36992Y29641D01*
X37342D01*
X36642Y29524D02*
X36526Y29641D01*
X36293D01*
X36176Y29524D01*
Y29408D01*
X36293Y29291D01*
X36409D01*
X36293D01*
X36176Y29174D01*
Y29058D01*
X36293Y28941D01*
X36526D01*
X36642Y29058D01*
X37400Y36025D02*
Y35325D01*
X37050D01*
X36933Y35442D01*
Y35908D01*
X37050Y36025D01*
X37400D01*
X36234Y35325D02*
X36700D01*
X36234Y35792D01*
Y35908D01*
X36350Y36025D01*
X36584D01*
X36700Y35908D01*
X57200Y18882D02*
X57316Y18765D01*
Y18532D01*
X57200Y18415D01*
X56733D01*
X56617Y18532D01*
Y18765D01*
X56733Y18882D01*
X56617Y19581D02*
Y19115D01*
X57083Y19581D01*
X57200D01*
X57316Y19465D01*
Y19231D01*
X57200Y19115D01*
X56617Y20281D02*
Y19815D01*
X57083Y20281D01*
X57200D01*
X57316Y20164D01*
Y19931D01*
X57200Y19815D01*
X71826Y42174D02*
X71943Y42290D01*
X72176D01*
X72293Y42174D01*
Y41707D01*
X72176Y41590D01*
X71943D01*
X71826Y41707D01*
X71593Y42174D02*
X71476Y42290D01*
X71243D01*
X71126Y42174D01*
Y42057D01*
X71243Y41940D01*
X71360D01*
X71243D01*
X71126Y41824D01*
Y41707D01*
X71243Y41590D01*
X71476D01*
X71593Y41707D01*
X55570Y5115D02*
X55687Y5232D01*
X55920D01*
X56037Y5115D01*
Y4648D01*
X55920Y4532D01*
X55687D01*
X55570Y4648D01*
X54870Y5232D02*
X55337D01*
Y4882D01*
X55104Y4998D01*
X54987D01*
X54870Y4882D01*
Y4648D01*
X54987Y4532D01*
X55220D01*
X55337Y4648D01*
X59659Y12176D02*
X59776Y12293D01*
X60009D01*
X60126Y12176D01*
Y11710D01*
X60009Y11593D01*
X59776D01*
X59659Y11710D01*
X59426Y12176D02*
X59310Y12293D01*
X59076D01*
X58960Y12176D01*
Y12060D01*
X59076Y11943D01*
X58960Y11826D01*
Y11710D01*
X59076Y11593D01*
X59310D01*
X59426Y11710D01*
Y11826D01*
X59310Y11943D01*
X59426Y12060D01*
Y12176D01*
X59310Y11943D02*
X59076D01*
X22173Y5547D02*
X22290Y5430D01*
Y5197D01*
X22173Y5080D01*
X21707D01*
X21590Y5197D01*
Y5430D01*
X21707Y5547D01*
X21590Y5780D02*
Y6013D01*
Y5896D01*
X22290D01*
X22173Y5780D01*
X21590Y6363D02*
Y6596D01*
Y6480D01*
X22290D01*
X22173Y6363D01*
X91443Y20594D02*
X91560Y20477D01*
Y20244D01*
X91443Y20127D01*
X90977D01*
X90860Y20244D01*
Y20477D01*
X90977Y20594D01*
X90860Y20827D02*
Y21060D01*
Y20944D01*
X91560D01*
X91443Y20827D01*
Y21410D02*
X91560Y21527D01*
Y21760D01*
X91443Y21877D01*
X91327D01*
X91210Y21760D01*
Y21644D01*
Y21760D01*
X91093Y21877D01*
X90977D01*
X90860Y21760D01*
Y21527D01*
X90977Y21410D01*
X47036Y83779D02*
X47152Y83895D01*
X47386D01*
X47502Y83779D01*
Y83312D01*
X47386Y83196D01*
X47152D01*
X47036Y83312D01*
X46802Y83196D02*
X46569D01*
X46686D01*
Y83895D01*
X46802Y83779D01*
X45869Y83196D02*
Y83895D01*
X46219Y83545D01*
X45753D01*
X55214Y83982D02*
X55331Y84099D01*
X55564D01*
X55681Y83982D01*
Y83515D01*
X55564Y83399D01*
X55331D01*
X55214Y83515D01*
X54981Y83399D02*
X54748D01*
X54865D01*
Y84099D01*
X54981Y83982D01*
X53932Y84099D02*
X54398D01*
Y83749D01*
X54165Y83865D01*
X54048D01*
X53932Y83749D01*
Y83515D01*
X54048Y83399D01*
X54281D01*
X54398Y83515D01*
X68355Y61539D02*
X68471Y61422D01*
Y61189D01*
X68355Y61072D01*
X67888D01*
X67771Y61189D01*
Y61422D01*
X67888Y61539D01*
X67771Y61772D02*
Y62005D01*
Y61889D01*
X68471D01*
X68355Y61772D01*
X68471Y62822D02*
X68355Y62588D01*
X68121Y62355D01*
X67888D01*
X67771Y62472D01*
Y62705D01*
X67888Y62822D01*
X68005D01*
X68121Y62705D01*
Y62355D01*
X74120Y61513D02*
X74237Y61397D01*
Y61163D01*
X74120Y61047D01*
X73654D01*
X73537Y61163D01*
Y61397D01*
X73654Y61513D01*
X73537Y61747D02*
Y61980D01*
Y61863D01*
X74237D01*
X74120Y61747D01*
X74237Y62330D02*
Y62796D01*
X74120D01*
X73654Y62330D01*
X73537D01*
X71250Y61437D02*
X71367Y61320D01*
Y61087D01*
X71250Y60971D01*
X70784D01*
X70667Y61087D01*
Y61320D01*
X70784Y61437D01*
X70667Y61670D02*
Y61904D01*
Y61787D01*
X71367D01*
X71250Y61670D01*
Y62254D02*
X71367Y62370D01*
Y62603D01*
X71250Y62720D01*
X71134D01*
X71017Y62603D01*
X70900Y62720D01*
X70784D01*
X70667Y62603D01*
Y62370D01*
X70784Y62254D01*
X70900D01*
X71017Y62370D01*
X71134Y62254D01*
X71250D01*
X71017Y62370D02*
Y62603D01*
X77380Y87537D02*
X77497Y87654D01*
X77730D01*
X77846Y87537D01*
Y87071D01*
X77730Y86954D01*
X77497D01*
X77380Y87071D01*
X77147Y86954D02*
X76913D01*
X77030D01*
Y87654D01*
X77147Y87537D01*
X76563Y87071D02*
X76447Y86954D01*
X76214D01*
X76097Y87071D01*
Y87537D01*
X76214Y87654D01*
X76447D01*
X76563Y87537D01*
Y87421D01*
X76447Y87304D01*
X76097D01*
X12483Y53087D02*
X12600Y52970D01*
Y52737D01*
X12483Y52620D01*
X12017D01*
X11900Y52737D01*
Y52970D01*
X12017Y53087D01*
X11900Y53786D02*
Y53320D01*
X12367Y53786D01*
X12483D01*
X12600Y53670D01*
Y53436D01*
X12483Y53320D01*
Y54020D02*
X12600Y54136D01*
Y54369D01*
X12483Y54486D01*
X12017D01*
X11900Y54369D01*
Y54136D01*
X12017Y54020D01*
X12483D01*
X77075Y85226D02*
X77192Y85342D01*
X77425D01*
X77542Y85226D01*
Y84759D01*
X77425Y84643D01*
X77192D01*
X77075Y84759D01*
X76375Y84643D02*
X76842D01*
X76375Y85109D01*
Y85226D01*
X76492Y85342D01*
X76725D01*
X76842Y85226D01*
X76142Y84643D02*
X75909D01*
X76025D01*
Y85342D01*
X76142Y85226D01*
X38434Y83895D02*
Y83196D01*
X38085D01*
X37968Y83312D01*
Y83779D01*
X38085Y83895D01*
X38434D01*
X37735Y83196D02*
X37501D01*
X37618D01*
Y83895D01*
X37735Y83779D01*
X33269Y83133D02*
X33735D01*
Y82783D01*
X33502D01*
X33735D01*
Y82434D01*
X33036D02*
X32802D01*
X32919D01*
Y83133D01*
X33036Y83017D01*
X71393Y48458D02*
X71860D01*
X71976Y48341D01*
Y48108D01*
X71860Y47991D01*
X71393D01*
X71277Y48108D01*
Y48341D01*
X71510Y48224D02*
X71277Y48458D01*
Y48341D02*
X71393Y48458D01*
X71277Y48691D02*
Y48924D01*
Y48808D01*
X71976D01*
X71860Y48691D01*
X76407Y47940D02*
X77107D01*
Y48290D01*
X76991Y48407D01*
X76757D01*
X76641Y48290D01*
Y47940D01*
Y48174D02*
X76407Y48407D01*
Y48640D02*
Y48873D01*
Y48757D01*
X77107D01*
X76991Y48640D01*
X48366Y74814D02*
X49066D01*
Y75163D01*
X48949Y75280D01*
X48716D01*
X48599Y75163D01*
Y74814D01*
Y75047D02*
X48366Y75280D01*
Y75980D02*
Y75513D01*
X48832Y75980D01*
X48949D01*
X49066Y75863D01*
Y75630D01*
X48949Y75513D01*
X74248Y47737D02*
X74948D01*
Y48087D01*
X74832Y48204D01*
X74598D01*
X74482Y48087D01*
Y47737D01*
Y47970D02*
X74248Y48204D01*
X74832Y48437D02*
X74948Y48554D01*
Y48787D01*
X74832Y48903D01*
X74715D01*
X74598Y48787D01*
Y48670D01*
Y48787D01*
X74482Y48903D01*
X74365D01*
X74248Y48787D01*
Y48554D01*
X74365Y48437D01*
X56697Y35596D02*
X57397D01*
Y35946D01*
X57280Y36063D01*
X57047D01*
X56930Y35946D01*
Y35596D01*
Y35829D02*
X56697Y36063D01*
X57397Y36762D02*
Y36296D01*
X57047D01*
X57164Y36529D01*
Y36646D01*
X57047Y36762D01*
X56814D01*
X56697Y36646D01*
Y36412D01*
X56814Y36296D01*
X63911Y33488D02*
X64610D01*
Y33838D01*
X64494Y33954D01*
X64260D01*
X64144Y33838D01*
Y33488D01*
Y33721D02*
X63911Y33954D01*
X64610Y34654D02*
X64494Y34421D01*
X64260Y34188D01*
X64027D01*
X63911Y34304D01*
Y34537D01*
X64027Y34654D01*
X64144D01*
X64260Y34537D01*
Y34188D01*
X12323Y39101D02*
Y39801D01*
X11973D01*
X11857Y39684D01*
Y39451D01*
X11973Y39334D01*
X12323D01*
X12090D02*
X11857Y39101D01*
X11623D02*
X11390D01*
X11507D01*
Y39801D01*
X11623Y39684D01*
X11040Y39801D02*
X10574D01*
Y39684D01*
X11040Y39218D01*
Y39101D01*
X85649Y74159D02*
X86348D01*
Y74509D01*
X86232Y74626D01*
X85999D01*
X85882Y74509D01*
Y74159D01*
Y74393D02*
X85649Y74626D01*
Y74859D02*
Y75092D01*
Y74976D01*
X86348D01*
X86232Y74859D01*
X85765Y75442D02*
X85649Y75559D01*
Y75792D01*
X85765Y75909D01*
X86232D01*
X86348Y75792D01*
Y75559D01*
X86232Y75442D01*
X86115D01*
X85999Y75559D01*
Y75909D01*
X82889Y73922D02*
X83589D01*
Y74272D01*
X83472Y74388D01*
X83239D01*
X83122Y74272D01*
Y73922D01*
Y74155D02*
X82889Y74388D01*
Y75088D02*
Y74622D01*
X83355Y75088D01*
X83472D01*
X83589Y74971D01*
Y74738D01*
X83472Y74622D01*
Y75321D02*
X83589Y75438D01*
Y75671D01*
X83472Y75788D01*
X83005D01*
X82889Y75671D01*
Y75438D01*
X83005Y75321D01*
X83472D01*
X74126Y70899D02*
Y71599D01*
X73776D01*
X73659Y71482D01*
Y71249D01*
X73776Y71132D01*
X74126D01*
X73893D02*
X73659Y70899D01*
X72960D02*
X73426D01*
X72960Y71366D01*
Y71482D01*
X73076Y71599D01*
X73309D01*
X73426Y71482D01*
X72726Y70899D02*
X72493D01*
X72610D01*
Y71599D01*
X72726Y71482D01*
X96397Y31608D02*
Y32308D01*
X96047D01*
X95931Y32191D01*
Y31958D01*
X96047Y31841D01*
X96397D01*
X96164D02*
X95931Y31608D01*
X95231D02*
X95697D01*
X95231Y32075D01*
Y32191D01*
X95348Y32308D01*
X95581D01*
X95697Y32191D01*
X94531Y31608D02*
X94998D01*
X94531Y32075D01*
Y32191D01*
X94648Y32308D01*
X94881D01*
X94998Y32191D01*
X93197Y19848D02*
X93897D01*
Y20198D01*
X93780Y20315D01*
X93547D01*
X93430Y20198D01*
Y19848D01*
Y20081D02*
X93197Y20315D01*
Y21014D02*
Y20548D01*
X93663Y21014D01*
X93780D01*
X93897Y20898D01*
Y20664D01*
X93780Y20548D01*
Y21248D02*
X93897Y21364D01*
Y21597D01*
X93780Y21714D01*
X93663D01*
X93547Y21597D01*
Y21481D01*
Y21597D01*
X93430Y21714D01*
X93313D01*
X93197Y21597D01*
Y21364D01*
X93313Y21248D01*
X34760Y78147D02*
Y78847D01*
X34410D01*
X34293Y78730D01*
Y78497D01*
X34410Y78380D01*
X34760D01*
X34527D02*
X34293Y78147D01*
X33594D02*
X34060D01*
X33594Y78614D01*
Y78730D01*
X33710Y78847D01*
X33944D01*
X34060Y78730D01*
X33011Y78147D02*
Y78847D01*
X33360Y78497D01*
X32894D01*
X68584Y37896D02*
Y37313D01*
X68468Y37196D01*
X68234D01*
X68118Y37313D01*
Y37896D01*
X67884Y37196D02*
X67651D01*
X67768D01*
Y37896D01*
X67884Y37779D01*
X66298Y74421D02*
Y73838D01*
X66182Y73721D01*
X65948D01*
X65832Y73838D01*
Y74421D01*
X65598Y73838D02*
X65482Y73721D01*
X65249D01*
X65132Y73838D01*
Y74305D01*
X65249Y74421D01*
X65482D01*
X65598Y74305D01*
Y74188D01*
X65482Y74071D01*
X65132D01*
X57221Y59954D02*
X57338Y60070D01*
X57571D01*
X57688Y59954D01*
Y59487D01*
X57571Y59370D01*
X57338D01*
X57221Y59487D01*
X56521Y59370D02*
X56988D01*
X56521Y59837D01*
Y59954D01*
X56638Y60070D01*
X56871D01*
X56988Y59954D01*
X55938Y59370D02*
Y60070D01*
X56288Y59720D01*
X55822D01*
X53699Y45791D02*
X53815Y45674D01*
Y45441D01*
X53699Y45324D01*
X53232D01*
X53116Y45441D01*
Y45674D01*
X53232Y45791D01*
X53116Y46490D02*
Y46024D01*
X53582Y46490D01*
X53699D01*
X53815Y46374D01*
Y46141D01*
X53699Y46024D01*
X53815Y47190D02*
X53699Y46957D01*
X53465Y46724D01*
X53232D01*
X53116Y46840D01*
Y47074D01*
X53232Y47190D01*
X53349D01*
X53465Y47074D01*
Y46724D01*
X48899Y46329D02*
Y45746D01*
X48783Y45629D01*
X48549D01*
X48433Y45746D01*
Y46329D01*
X48199Y45629D02*
X47966D01*
X48083D01*
Y46329D01*
X48199Y46212D01*
X47150Y45629D02*
X47616D01*
X47150Y46096D01*
Y46212D01*
X47266Y46329D01*
X47500D01*
X47616Y46212D01*
X24668Y48956D02*
X25367D01*
Y49306D01*
X25251Y49423D01*
X25017D01*
X24901Y49306D01*
Y48956D01*
Y49190D02*
X24668Y49423D01*
Y50006D02*
X25367D01*
X25017Y49656D01*
Y50123D01*
X25367Y50356D02*
Y50822D01*
X25251D01*
X24784Y50356D01*
X24668D01*
X10494Y58241D02*
Y57658D01*
X10378Y57542D01*
X10145D01*
X10028Y57658D01*
Y58241D01*
X9328D02*
X9561Y58125D01*
X9795Y57891D01*
Y57658D01*
X9678Y57542D01*
X9445D01*
X9328Y57658D01*
Y57775D01*
X9445Y57891D01*
X9795D01*
X60541Y61307D02*
X61241D01*
Y61657D01*
X61124Y61773D01*
X60891D01*
X60774Y61657D01*
Y61307D01*
Y61540D02*
X60541Y61773D01*
X61241Y62473D02*
Y62007D01*
X60891D01*
X61008Y62240D01*
Y62356D01*
X60891Y62473D01*
X60658D01*
X60541Y62356D01*
Y62123D01*
X60658Y62007D01*
X61124Y62706D02*
X61241Y62823D01*
Y63056D01*
X61124Y63173D01*
X61008D01*
X60891Y63056D01*
Y62940D01*
Y63056D01*
X60774Y63173D01*
X60658D01*
X60541Y63056D01*
Y62823D01*
X60658Y62706D01*
X80908Y78113D02*
X81607D01*
Y78463D01*
X81491Y78579D01*
X81257D01*
X81141Y78463D01*
Y78113D01*
Y78346D02*
X80908Y78579D01*
X81607Y79279D02*
Y78813D01*
X81257D01*
X81374Y79046D01*
Y79162D01*
X81257Y79279D01*
X81024D01*
X80908Y79162D01*
Y78929D01*
X81024Y78813D01*
X80908Y79862D02*
X81607D01*
X81257Y79512D01*
Y79979D01*
X78663Y91742D02*
Y92209D01*
X78780Y92325D01*
X79013D01*
X79130Y92209D01*
Y91742D01*
X79013Y91626D01*
X78780D01*
X78896Y91859D02*
X78663Y91626D01*
X78780D02*
X78663Y91742D01*
X78080Y91626D02*
Y92325D01*
X78430Y91975D01*
X77963D01*
X91250Y68562D02*
X91950D01*
Y68912D01*
X91833Y69029D01*
X91600D01*
X91483Y68912D01*
Y68562D01*
Y68795D02*
X91250Y69029D01*
X91950Y69728D02*
Y69262D01*
X91600D01*
X91717Y69495D01*
Y69612D01*
X91600Y69728D01*
X91367D01*
X91250Y69612D01*
Y69378D01*
X91367Y69262D01*
X91950Y70428D02*
X91833Y70195D01*
X91600Y69962D01*
X91367D01*
X91250Y70078D01*
Y70311D01*
X91367Y70428D01*
X91483D01*
X91600Y70311D01*
Y69962D01*
X79104Y94420D02*
Y95119D01*
X78754D01*
X78638Y95003D01*
Y94769D01*
X78754Y94653D01*
X79104D01*
X78871D02*
X78638Y94420D01*
X77938Y95119D02*
X78404D01*
Y94769D01*
X78171Y94886D01*
X78055D01*
X77938Y94769D01*
Y94536D01*
X78055Y94420D01*
X78288D01*
X78404Y94536D01*
X77705Y95119D02*
X77238D01*
Y95003D01*
X77705Y94536D01*
Y94420D01*
X24398Y70433D02*
X24515Y70550D01*
X24748D01*
X24865Y70433D01*
Y69967D01*
X24748Y69850D01*
X24515D01*
X24398Y69967D01*
X24165Y69850D02*
Y70550D01*
X23699Y69850D01*
Y70550D01*
X23465Y69850D02*
X23232D01*
X23349D01*
Y70550D01*
X23465Y70433D01*
X22882D02*
X22766Y70550D01*
X22532D01*
X22416Y70433D01*
Y69967D01*
X22532Y69850D01*
X22766D01*
X22882Y69967D01*
Y70433D01*
X76533Y69583D02*
X76650Y69700D01*
X76883D01*
X77000Y69583D01*
Y69117D01*
X76883Y69000D01*
X76650D01*
X76533Y69117D01*
X76300Y69000D02*
Y69700D01*
X75834Y69000D01*
Y69700D01*
X75600D02*
X75134D01*
Y69583D01*
X75600Y69117D01*
Y69000D01*
X95250Y90000D02*
G03*
X93250Y88000I0J-2000D01*
G01*
X98000Y90000D02*
G03*
X100000Y92000I0J2000D01*
G01*
Y72000D02*
G03*
X98000Y74000I-2000J0D01*
G01*
X93250Y76000D02*
G03*
X95250Y74000I2000J0D01*
G01*
Y90000D02*
X98000D01*
X-0Y100000D02*
X0Y0D01*
X93250Y76000D02*
Y88000D01*
X95250Y74000D02*
X98000D01*
X-0Y100000D02*
X100000D01*
X100000Y92000D02*
Y100000D01*
X100000Y0D02*
Y72000D01*
X0Y0D02*
X100000D01*
D56*
X62632Y96923D02*
G03*
X62632Y88923I0J-4000D01*
G01*
D57*
X6810Y58755D02*
G03*
X6810Y58755I-125J0D01*
G01*
X72715Y52962D02*
G03*
X72715Y52962I-125J0D01*
G01*
X74470Y34840D02*
G03*
X74470Y34840I-125J0D01*
G01*
X49324Y30268D02*
G03*
X49324Y30268I-125J0D01*
G01*
X79507Y93175D02*
G03*
X79507Y93175I-125J0D01*
G01*
D59*
X76415Y23675D02*
X77615D01*
X76070Y51096D02*
X77270D01*
X7585Y58970D02*
X10585D01*
Y69130D01*
X7585Y58970D02*
Y69130D01*
X10585D01*
X8443Y39275D02*
Y40475D01*
X57620Y29668D02*
Y30868D01*
X52840Y49191D02*
X54040D01*
X73749Y84830D02*
Y86030D01*
X39586Y33478D02*
Y34678D01*
X74511Y41860D02*
Y43060D01*
X90713Y24130D02*
X91913D01*
X73400Y65066D02*
X74600D01*
X70400D02*
X71600D01*
X11385Y56684D02*
X12585D01*
X70840Y51896D02*
Y52596D01*
X71540D01*
X70840Y49596D02*
X71540D01*
X70840D02*
Y50296D01*
X48130Y72686D02*
X49330D01*
X74038Y51096D02*
X75238D01*
X56385Y38904D02*
X57585D01*
X63624Y36872D02*
X64824D01*
X85400Y78048D02*
X86600D01*
X82650D02*
X83850D01*
X76710Y71070D02*
Y72270D01*
X92329Y31785D02*
Y32985D01*
X92745Y24130D02*
X93945D01*
X69090Y36340D02*
X74090D01*
X69090Y38140D02*
X74090D01*
Y36340D02*
Y38140D01*
X69090Y36340D02*
Y38140D01*
X17020Y70525D02*
X22020D01*
X17020Y19475D02*
X22020D01*
X77980Y70525D02*
X82980D01*
X77980Y19475D02*
X82980D01*
X17020D02*
X17020Y70525D01*
X22020Y19475D02*
Y70525D01*
X77980Y19475D02*
X77980Y70525D01*
X82980Y19475D02*
Y70525D01*
X54299Y5900D02*
Y7100D01*
X21420Y8921D02*
X22620D01*
X22730Y47921D02*
X23930D01*
X58386Y12900D02*
Y14100D01*
X42034Y35094D02*
X43234D01*
X53810Y37288D02*
Y38488D01*
X43944Y31768D02*
Y33568D01*
X48944Y31768D02*
Y33568D01*
X43944D02*
X48944D01*
X43944Y31768D02*
X48944D01*
X43523Y37288D02*
Y38488D01*
X37554Y31573D02*
Y32773D01*
X42034Y28998D02*
X43234D01*
X45209Y25569D02*
X46409D01*
X41618Y31573D02*
Y32773D01*
X57620Y32208D02*
Y33408D01*
X30569Y78182D02*
Y79382D01*
X24000Y52874D02*
X25200D01*
X80650Y76016D02*
X81850D01*
X60195Y59160D02*
X61395D01*
X81314Y94480D02*
Y95680D01*
X90650Y72644D02*
X91850D01*
X82048Y91425D02*
X82748D01*
Y92125D01*
X79748Y91425D02*
Y92125D01*
Y91425D02*
X80448D01*
D61*
X64132Y88923D02*
D03*
D62*
X63132Y96923D02*
D03*
D63*
X65854Y92788D02*
D03*
D64*
X66132Y96923D02*
D03*
D65*
X67632Y92923D02*
D03*
M02*
