M48
;Layer_Color=9474304
;FILE_FORMAT=4:3
METRIC,LZ
;TYPE=PLATED
T1F00S00C0.500
T2F00S00C1.000
T3F00S00C1.100
T4F00S00C1.200
T5F00S00C2.500
T6F00S00C3.000
T7F00S00C3.500
%
T01
X0070066Y000523
X0068415Y0012495
X0068923Y0015028
X0070153Y001412
X0064153Y0016092
X0059403Y0019342
X0059144Y002468
X0060795Y0026585
Y0030268
Y0032808
Y003484
Y0037888
X0070955Y0032808
X0070153Y0023092
X0075403Y0020342
X0075383Y0018842
X0088519Y0019904
X0088519Y0023495
Y00254
X0089789Y003048
X0093345Y0029845
X0096355Y0030696
X0097409Y00254
Y0023495
X0097409Y0019904
X0056985Y0026585
X0055461Y00135
X005Y0016
X005Y0009
Y0002
X0056985Y00065
X0034125Y0017695
X002587Y002722
Y00323
Y003738
X002714Y003865
X003476Y003738
X005Y003484
X0016345Y003738
X001571Y0039225
X0013805Y003611
X000936Y003357
X0014694Y001833
X0015075Y0041507
X0012535Y004426
X00119Y004627
Y004754
X0004727Y0039875
X0006185Y00577
X0004915Y00704
X001063
X0031585Y007167
X0036665Y00704
X0037575Y0072665
X003984Y007167
X0044285
X0045555Y0071035
X0046825Y007167
X004492Y0061256
X003857Y006278
X0040475Y0053255
X0043665Y0048825
X0046205Y004565
X004619Y0040555
X0050635Y0048175
X0048255Y0050875
X00506Y0058825
X0057743Y007675
X0025235Y0078782
X00246Y0055795
X002714Y004246
Y0040555
X0035395Y004246
X0060795Y0043095
Y005516
X006524
X0062065Y0065828
X0059144Y0067366
Y0068636
Y0069906
X0075641Y0073927
X007925Y007167
X008125
X008825Y007733
X009025
X0094687Y0054308
X0097083Y004924
Y004474
X0088083
Y004924
X008325Y008133
X008725Y0091875
X009125
X0074765Y009
X001571Y0080814
T02
X002202Y0002825
Y0017325
X001952
X001702
Y0002825
T03
X007921Y002087
X008175
Y002341
Y002595
Y002849
Y003103
Y003357
Y003611
Y003865
X007921
Y003611
Y003357
Y003103
Y002849
Y002595
Y002341
X002079
Y002087
Y002595
Y002849
Y003103
Y003357
Y003611
Y003865
X001825
Y003611
Y003357
Y003103
Y002849
Y002595
Y002341
Y002087
X000236Y0025935
Y0028475
Y0033585
Y0036125
Y0038665
X0002375Y0041825
Y0044365
Y0046905
Y0051985
Y0054525
Y0059605
Y0062145
Y0064685
Y0067225
Y0069765
Y0072305
Y0074845
Y0077385
X001825Y006913
Y006659
Y006405
Y006151
Y005897
Y005643
Y005389
Y005135
Y004881
Y004627
Y004373
Y004119
X002079
Y004373
Y004627
Y004881
Y005135
Y005389
Y005643
Y005897
Y006151
Y006405
Y006659
Y006913
X007921
X008175
Y006659
X007921
Y006405
X008175
Y006151
X007921
Y005897
X008175
Y005643
X007921
Y005389
X008175
Y005135
X007921
Y004881
X008175
Y004627
X007921
Y004373
X008175
Y004119
X007921
X007979Y009762
X007725
X008233
X008487
X008741
X008995
X0002375Y0079925
T04
X0093599Y0011197
Y0016277
Y0036089
X000428Y001706
Y001198
X0093599Y0041169
T05
X002612Y0009825
X001292
T06
X0012536Y0089
X0017236Y0092
Y0086
T07
X0095Y0005
X0005
X0095Y0095
X0005
M30
