G04 Layer_Physical_Order=1*
G04 Layer_Color=255*
%FSLAX43Y43*%
%MOMM*%
G71*
G01*
G75*
%ADD10R,1.200X2.500*%
%ADD11R,2.500X1.200*%
%ADD12R,1.300X1.000*%
%ADD13R,1.000X1.300*%
%ADD14R,3.000X1.000*%
%ADD15R,0.300X0.800*%
%ADD16R,0.300X0.650*%
%ADD17R,2.400X0.750*%
%ADD18R,0.600X1.400*%
%ADD19R,0.500X0.900*%
%ADD20R,0.800X0.350*%
%ADD21R,0.350X0.800*%
%ADD22R,1.500X0.400*%
%ADD23R,1.000X1.100*%
%ADD24R,0.800X1.300*%
%ADD25O,2.200X0.800*%
%ADD26O,2.200X0.600*%
%ADD27R,1.000X0.700*%
%ADD28C,0.300*%
%ADD29C,0.400*%
%ADD30C,0.600*%
%ADD31C,1.000*%
%ADD32C,0.500*%
%ADD33C,0.800*%
%ADD34R,10.000X10.000*%
%ADD35C,0.150*%
%ADD36C,4.500*%
%ADD37C,1.700*%
%ADD38O,4.000X3.500*%
%ADD39O,2.200X2.500*%
%ADD40O,3.500X4.200*%
%ADD41R,1.700X1.700*%
%ADD42C,6.000*%
%ADD43C,1.000*%
D10*
X91250Y74000D02*
D03*
X89250D02*
D03*
X87250D02*
D03*
X85250D02*
D03*
X83250D02*
D03*
X81250D02*
D03*
X79250D02*
D03*
X77250D02*
D03*
Y90000D02*
D03*
X79250D02*
D03*
X81250D02*
D03*
X83250D02*
D03*
X85250D02*
D03*
X87250D02*
D03*
X89250D02*
D03*
X91250D02*
D03*
D11*
X75750Y77000D02*
D03*
Y79000D02*
D03*
Y81000D02*
D03*
Y83000D02*
D03*
Y85000D02*
D03*
Y87000D02*
D03*
D12*
X18250Y80814D02*
D03*
Y78782D02*
D03*
X21425Y80814D02*
D03*
Y78782D02*
D03*
X85905Y21389D02*
D03*
Y23421D02*
D03*
X84925Y46772D02*
D03*
Y44740D02*
D03*
X84908Y51272D02*
D03*
Y49240D02*
D03*
X20790Y74718D02*
D03*
Y76750D02*
D03*
X73153Y16310D02*
D03*
Y18342D02*
D03*
X63653Y19826D02*
D03*
Y21858D02*
D03*
X61653Y19608D02*
D03*
Y17576D02*
D03*
X42545Y20574D02*
D03*
Y18542D02*
D03*
X35687Y11032D02*
D03*
Y9000D02*
D03*
X29426Y13462D02*
D03*
Y15494D02*
D03*
X33655Y13462D02*
D03*
Y15494D02*
D03*
X35687Y13462D02*
D03*
Y15494D02*
D03*
X87084Y51110D02*
D03*
Y53142D02*
D03*
X31623Y13462D02*
D03*
Y15494D02*
D03*
X10630Y31665D02*
D03*
Y29633D02*
D03*
X15625Y78782D02*
D03*
Y76750D02*
D03*
X15075Y64050D02*
D03*
Y62018D02*
D03*
X91250Y71416D02*
D03*
Y69384D02*
D03*
X84000Y23421D02*
D03*
Y21389D02*
D03*
X76670Y34840D02*
D03*
Y32808D02*
D03*
X65240Y9040D02*
D03*
Y11072D02*
D03*
X27305Y15494D02*
D03*
Y17526D02*
D03*
X10630Y13444D02*
D03*
Y15476D02*
D03*
X34125Y21251D02*
D03*
Y19219D02*
D03*
D13*
X62827Y3937D02*
D03*
X60795D02*
D03*
X84036Y16425D02*
D03*
X82004D02*
D03*
X65621Y15028D02*
D03*
X67653D02*
D03*
X39751Y20500D02*
D03*
X37719D02*
D03*
X39751Y15494D02*
D03*
X37719D02*
D03*
X29591Y19230D02*
D03*
X31623D02*
D03*
X29591Y17325D02*
D03*
X31623D02*
D03*
X97989Y52995D02*
D03*
X95957D02*
D03*
X35687Y17695D02*
D03*
X37719D02*
D03*
X86322Y69130D02*
D03*
X84290D02*
D03*
X62827Y6500D02*
D03*
X60795D02*
D03*
X70320Y7770D02*
D03*
X68288D02*
D03*
X70320Y10310D02*
D03*
X68288D02*
D03*
X29591Y21135D02*
D03*
X31623D02*
D03*
X84870Y95080D02*
D03*
X86902D02*
D03*
D14*
X45500Y6500D02*
D03*
Y2000D02*
D03*
X54500D02*
D03*
Y6500D02*
D03*
X45500Y20500D02*
D03*
Y16000D02*
D03*
X54500D02*
D03*
Y20500D02*
D03*
X38500Y13500D02*
D03*
Y9000D02*
D03*
X47500D02*
D03*
Y13500D02*
D03*
X52500D02*
D03*
Y9000D02*
D03*
X61500D02*
D03*
Y13500D02*
D03*
X88083Y49240D02*
D03*
Y44740D02*
D03*
X97083D02*
D03*
Y49240D02*
D03*
D15*
X39500Y68725D02*
D03*
X40100D02*
D03*
X40700D02*
D03*
X41300D02*
D03*
X41900D02*
D03*
X42500D02*
D03*
X43100D02*
D03*
X43700D02*
D03*
X44300D02*
D03*
X44900D02*
D03*
X45500D02*
D03*
X46100D02*
D03*
X46700D02*
D03*
X47300D02*
D03*
X47900D02*
D03*
X48500D02*
D03*
D16*
X39800Y65850D02*
D03*
X40400D02*
D03*
X41000D02*
D03*
X41600D02*
D03*
X42200D02*
D03*
X42800D02*
D03*
X43400D02*
D03*
X44000D02*
D03*
X44600D02*
D03*
X45200D02*
D03*
X45800D02*
D03*
X46400D02*
D03*
X47000D02*
D03*
X47600D02*
D03*
X48200D02*
D03*
D17*
X81825Y14120D02*
D03*
Y12850D02*
D03*
Y11580D02*
D03*
Y10310D02*
D03*
Y9040D02*
D03*
Y7770D02*
D03*
Y6500D02*
D03*
Y5230D02*
D03*
X73025D02*
D03*
Y6500D02*
D03*
Y7770D02*
D03*
Y9040D02*
D03*
Y10310D02*
D03*
Y11580D02*
D03*
Y12850D02*
D03*
Y14120D02*
D03*
D18*
X88519Y27305D02*
D03*
X89789D02*
D03*
X91059D02*
D03*
X93599D02*
D03*
X92329D02*
D03*
X94869D02*
D03*
X91059Y21505D02*
D03*
X88519D02*
D03*
X89789D02*
D03*
X92329D02*
D03*
X96139D02*
D03*
X93599D02*
D03*
X94869D02*
D03*
X97409Y27305D02*
D03*
X96139D02*
D03*
X97409Y21505D02*
D03*
D19*
X90514Y51908D02*
D03*
X91464D02*
D03*
X92414D02*
D03*
Y54308D02*
D03*
X91464D02*
D03*
X90514D02*
D03*
D20*
X70903Y20342D02*
D03*
Y19842D02*
D03*
Y19342D02*
D03*
Y18842D02*
D03*
Y18342D02*
D03*
Y17842D02*
D03*
X66903D02*
D03*
Y18342D02*
D03*
Y18842D02*
D03*
Y19342D02*
D03*
Y19842D02*
D03*
Y20342D02*
D03*
D21*
X70153Y17092D02*
D03*
X69653D02*
D03*
X69153D02*
D03*
X68653D02*
D03*
X68153D02*
D03*
X67653D02*
D03*
Y21092D02*
D03*
X68153D02*
D03*
X68653D02*
D03*
X69153D02*
D03*
X69653D02*
D03*
X70153D02*
D03*
D22*
X12535Y37275D02*
D03*
Y37925D02*
D03*
Y38575D02*
D03*
Y39225D02*
D03*
Y39875D02*
D03*
Y40525D02*
D03*
Y41175D02*
D03*
Y41825D02*
D03*
Y42475D02*
D03*
Y43125D02*
D03*
X6577D02*
D03*
Y42475D02*
D03*
Y41825D02*
D03*
Y41175D02*
D03*
Y40525D02*
D03*
Y39875D02*
D03*
Y39225D02*
D03*
Y38575D02*
D03*
Y37275D02*
D03*
Y37925D02*
D03*
D23*
X15625Y70140D02*
D03*
D24*
X16175Y66590D02*
D03*
X15075D02*
D03*
D25*
X10630Y20870D02*
D03*
Y19600D02*
D03*
Y23410D02*
D03*
Y22140D02*
D03*
D26*
X15430Y20870D02*
D03*
Y19600D02*
D03*
Y22140D02*
D03*
Y23410D02*
D03*
D27*
X90680Y94130D02*
D03*
X88680Y93180D02*
D03*
Y95080D02*
D03*
D28*
X66129Y27474D02*
X77686D01*
X60795Y32808D02*
X66129Y27474D01*
X64605Y26458D02*
X76162D01*
X60795Y30268D02*
X64605Y26458D01*
X61684Y25696D02*
X74384D01*
X60795Y26585D02*
X61684Y25696D01*
X63970Y37354D02*
Y66564D01*
X57594Y72940D02*
X63970Y66564D01*
X43650Y72940D02*
X57594D01*
X72834Y28490D02*
X79210D01*
X63970Y37354D02*
X72834Y28490D01*
X74384Y25696D02*
X77940Y22140D01*
X76162Y26458D02*
X79210Y23410D01*
X77686Y27474D02*
X79210Y25950D01*
X41211Y26585D02*
X56985D01*
X35761Y21135D02*
X41211Y26585D01*
X31623Y21135D02*
X35761D01*
X75403Y20342D02*
X77562Y18184D01*
Y15167D02*
Y18184D01*
Y15167D02*
X79878Y12850D01*
X78322Y11580D02*
X81825D01*
X75383Y14519D02*
X78322Y11580D01*
X75383Y14519D02*
Y18842D01*
X94985Y44740D02*
X97083D01*
X91464Y48261D02*
X94985Y44740D01*
X91464Y48261D02*
Y51908D01*
X36830Y44450D02*
X46190Y53810D01*
Y62780D01*
X44600Y64370D02*
X46190Y62780D01*
X43400Y52290D02*
Y65850D01*
X35395Y44285D02*
X43400Y52290D01*
X44000Y62176D02*
Y65850D01*
Y62176D02*
X44920Y61256D01*
X42800Y52960D02*
Y65850D01*
X34125Y44285D02*
X42800Y52960D01*
X42200Y53630D02*
Y65850D01*
X32855Y44285D02*
X42200Y53630D01*
X41600Y54380D02*
Y65850D01*
X40475Y53255D02*
X41600Y54380D01*
X35395Y42460D02*
Y44285D01*
X32855Y38650D02*
Y44285D01*
X38570Y54445D02*
Y62780D01*
X31585Y47460D02*
X38570Y54445D01*
X31585Y39285D02*
Y47460D01*
X86776Y53142D02*
X87084D01*
X84758Y55160D02*
X86776Y53142D01*
X65240Y55160D02*
X84758D01*
X84908Y46789D02*
X84925Y46772D01*
X84908Y46789D02*
Y49240D01*
X84925Y44740D02*
X88083D01*
X83560Y52620D02*
X84908Y51272D01*
X80480Y52620D02*
X83560D01*
X79210Y53890D02*
X80480Y52620D01*
X84908Y49240D02*
X88083D01*
X48905Y48175D02*
X59144D01*
X62827Y3937D02*
X76247D01*
X77540Y5230D01*
X81825D01*
X19520Y60240D02*
X20790Y58970D01*
X15710Y60240D02*
X19520D01*
X15075Y60875D02*
X15710Y60240D01*
X15075Y60875D02*
Y62018D01*
Y64050D02*
Y66590D01*
Y64050D02*
X18250D01*
X10327Y40775D02*
Y45967D01*
X4915Y70400D02*
X10630D01*
X11900Y47540D02*
X19520D01*
X10630Y31665D02*
Y38472D01*
X13805Y36110D02*
Y36745D01*
X13275Y37275D02*
X13805Y36745D01*
X12535Y37275D02*
X13275D01*
X12535Y37925D02*
X14078D01*
X12535Y38575D02*
X14515D01*
X4727Y39875D02*
X6577D01*
X7927Y41175D02*
X10630Y38472D01*
X6577Y41175D02*
X7927D01*
X11227Y39875D02*
X12535D01*
X10327Y40775D02*
X11227Y39875D01*
X11077Y41025D02*
Y45447D01*
Y41025D02*
X11577Y40525D01*
X12535D01*
Y43125D02*
Y44260D01*
X70955Y32808D02*
X76670D01*
X59144Y55160D02*
X60795D01*
X46205Y40555D02*
Y45650D01*
X95085Y50969D02*
X96990D01*
X94146Y51908D02*
X95085Y50969D01*
X92414Y51908D02*
X94146D01*
X94687Y54308D02*
X95957Y53038D01*
Y52995D02*
Y53038D01*
X94687Y54308D02*
Y55281D01*
X92414Y54308D02*
X94687D01*
X97989Y51968D02*
Y52995D01*
X96990Y50969D02*
X97989Y51968D01*
X59144Y37888D02*
X60795D01*
X34125Y17695D02*
X35687D01*
X40809Y24680D02*
X59144D01*
X37719Y21590D02*
X40809Y24680D01*
X59144D02*
X63653D01*
X20790Y69130D02*
Y74718D01*
X37575Y71395D02*
Y72665D01*
X76670Y34840D02*
X80480D01*
X81750Y36110D01*
X97989Y52995D02*
Y55631D01*
X93798Y56170D02*
X94687Y55281D01*
X91258Y56170D02*
X93798D01*
X90514Y55426D02*
X91258Y56170D01*
X90514Y54308D02*
Y55426D01*
X96000Y57620D02*
X97989Y55631D01*
X59144Y43095D02*
X60795D01*
X84000Y23421D02*
Y36400D01*
X85905Y23421D02*
Y36885D01*
Y10525D02*
Y21389D01*
X84000Y10721D02*
Y21389D01*
X81750Y38650D02*
X84000Y36400D01*
X37719Y15494D02*
Y21590D01*
X31623Y15494D02*
Y19503D01*
X18925Y19230D02*
X29591D01*
X20883Y13462D02*
X29426D01*
X17020Y17325D02*
X18925Y19230D01*
X55461Y13500D02*
X61500D01*
X52500D02*
X55461D01*
X50635D02*
X52500D01*
X25817Y3937D02*
X31623D01*
X24705Y2825D02*
X25817Y3937D01*
X22020Y2825D02*
X24705D01*
X31623Y3937D02*
Y13462D01*
Y3937D02*
X60795D01*
X17020Y17325D02*
X20883Y13462D01*
X19520Y17325D02*
X21351Y15494D01*
X29426D01*
X22020Y17325D02*
X29390D01*
X55780Y20500D02*
X60913Y15367D01*
X45500Y20500D02*
X55780D01*
X48255Y48825D02*
Y50875D01*
Y48825D02*
X48905Y48175D01*
X43665Y48825D02*
X48255D01*
X45500Y2000D02*
X54500D01*
X56769Y6500D02*
X60795D01*
X54500D02*
X56769D01*
X45500D02*
X54500D01*
X50000Y16000D02*
X54500D01*
X45500D02*
X50000D01*
X43309D02*
X45500D01*
X42545Y16764D02*
Y18542D01*
Y16764D02*
X43309Y16000D01*
X35687Y9000D02*
X38500D01*
X34920Y6500D02*
X45500D01*
X33655Y7765D02*
X34920Y6500D01*
X33655Y7765D02*
Y13462D01*
X87084Y49332D02*
Y51110D01*
Y53142D02*
X90986D01*
X64370Y7770D02*
X68288D01*
X89726Y67860D02*
X91250Y69384D01*
X80480Y67860D02*
X89726D01*
X86322Y69130D02*
X87338D01*
X81750D02*
X84290D01*
X90514Y41494D02*
Y51908D01*
X84420Y9040D02*
X85905Y10525D01*
X81825Y9040D02*
X84420D01*
X85905Y36885D02*
X90514Y41494D01*
X40475Y74210D02*
X42380Y72305D01*
Y70887D02*
Y72305D01*
Y70887D02*
X43100Y70166D01*
X43015Y72305D02*
X43650Y72940D01*
X43015Y71035D02*
Y72305D01*
Y71035D02*
X43700Y70350D01*
X27775Y55795D02*
Y67860D01*
X20790Y48810D02*
X27775Y55795D01*
X39800Y64010D02*
Y65850D01*
X38570Y62780D02*
X39800Y64010D01*
X70066Y5230D02*
X73025D01*
X67653Y15028D02*
Y17092D01*
X70153Y12092D02*
Y12850D01*
X73025D01*
X79878D02*
X81825D01*
X63653Y24680D02*
X72860D01*
X63653Y21858D02*
Y24680D01*
X20790Y69130D02*
X24600Y65320D01*
Y55795D02*
Y65320D01*
X46100Y70302D02*
X46825Y71027D01*
X46100Y68725D02*
Y70302D01*
X46825Y71027D02*
Y71670D01*
X46700Y69940D02*
X47300D01*
X46700Y68725D02*
Y69940D01*
X39751Y20500D02*
X45500D01*
X74371Y19854D02*
X75383Y18842D01*
X70840Y19854D02*
X74371D01*
X70903Y20342D02*
X75403D01*
X73153Y14092D02*
Y16310D01*
X70153Y14120D02*
Y17092D01*
Y12850D02*
Y14120D01*
X73025D01*
X70153Y12092D02*
X70665Y11580D01*
X73025D01*
X48234Y13516D02*
X50500Y11250D01*
X35687Y11032D02*
Y13462D01*
X35433Y13516D02*
X48234D01*
X31623Y15494D02*
X33655D01*
X49276Y14859D02*
X50635Y13500D01*
X41910Y14859D02*
X49276D01*
X41275Y15494D02*
X41910Y14859D01*
X39751Y15494D02*
X41275D01*
X33655D02*
X35687D01*
X37719D01*
X70903Y18342D02*
X73153D01*
X59403Y19342D02*
X66903D01*
X65903Y19842D02*
X66903D01*
X65403Y20342D02*
X65903Y19842D01*
X70153Y21092D02*
Y23092D01*
X65621Y17310D02*
X66153Y17842D01*
X66903D01*
X65403Y20342D02*
Y21092D01*
X64637Y21858D02*
X65403Y21092D01*
X63653Y21858D02*
X64637D01*
X65302Y18342D02*
X66903D01*
X64153Y16092D02*
Y17193D01*
X64653Y18842D02*
X66903D01*
X61653Y17576D02*
X63403D01*
Y17592D02*
X64653Y18842D01*
X64153Y17193D02*
X65302Y18342D01*
X40400Y65850D02*
Y66900D01*
X40700Y67200D01*
Y68725D01*
X42500D02*
Y69925D01*
X45800Y65850D02*
Y67040D01*
X46100Y67340D01*
Y68725D01*
X47000Y64540D02*
Y65850D01*
X47600Y64540D02*
Y65850D01*
X47300Y68725D02*
Y69940D01*
X47900Y68725D02*
Y69940D01*
X47300D02*
X47900D01*
X48500Y68725D02*
Y69940D01*
X47900D02*
X48500D01*
X47000Y64540D02*
X47600D01*
X46400D02*
X47000D01*
X46400D02*
Y65850D01*
X41900Y68725D02*
Y69625D01*
X47600Y64540D02*
X50600D01*
Y69940D01*
X48500D02*
X50600D01*
Y58825D02*
Y64540D01*
X38340Y68725D02*
X39500D01*
X43700D02*
Y70350D01*
X43100Y68725D02*
Y70166D01*
X44900Y68725D02*
Y70380D01*
X45555Y71035D01*
X36665Y70400D02*
X38340Y68725D01*
X36724Y73569D02*
X39846D01*
X40700Y68725D02*
Y69540D01*
X39840Y70400D02*
X40700Y69540D01*
X41070Y71355D02*
X42500Y69925D01*
X41070Y71355D02*
Y72345D01*
X39846Y73569D02*
X41070Y72345D01*
X79210Y69130D02*
X80480Y67860D01*
X36030Y74210D02*
X40475D01*
X18250Y43730D02*
X19520Y45000D01*
X44300Y68725D02*
Y71670D01*
X39848Y71678D02*
X41900Y69625D01*
X37575Y71395D02*
X38570Y70400D01*
X39840D01*
X20790Y33570D02*
X27775D01*
X32855Y38650D01*
X44600Y64370D02*
Y65850D01*
X27140Y34840D02*
X31585Y39285D01*
X19520Y34840D02*
X27140D01*
X18250Y33570D02*
X19520Y34840D01*
X20790Y36110D02*
X26505D01*
X30315Y39920D01*
Y67160D01*
X36724Y73569D01*
X29045Y67225D02*
X36030Y74210D01*
X27775Y67860D02*
X31585Y71670D01*
X19520Y45000D02*
X22060D01*
X29045Y51985D01*
Y67225D01*
X81825Y14120D02*
Y16985D01*
X79845Y18965D02*
X81825Y16985D01*
X78575Y18965D02*
X79845D01*
X72860Y24680D02*
X78575Y18965D01*
X91059Y27305D02*
Y29210D01*
X94869Y19452D02*
Y21505D01*
X81825Y10310D02*
X83589D01*
X84000Y10721D01*
X88267Y7770D02*
X91059Y10562D01*
Y21505D01*
X93037Y8657D02*
X95504D01*
X96774Y9927D01*
Y17547D01*
X94869Y19452D02*
X96774Y17547D01*
X94869Y27305D02*
Y29210D01*
X96355Y30696D01*
X89789Y30480D02*
X91059Y29210D01*
X92329Y27305D02*
Y28829D01*
X93345Y29845D01*
X79250Y71670D02*
Y74000D01*
X90880Y6500D02*
X93037Y8657D01*
X81825Y7770D02*
X88267D01*
X81825Y6500D02*
X90880D01*
X91464Y53620D02*
Y54308D01*
X90986Y53142D02*
X91464Y53620D01*
X38500Y9000D02*
X61500D01*
X63970Y8170D02*
X64370Y7770D01*
X50500Y11250D02*
X63430D01*
X63970Y10710D01*
Y8170D02*
Y10710D01*
X67653Y15028D02*
X68923D01*
X65621Y13899D02*
Y17310D01*
Y13899D02*
X67025Y12495D01*
X68415D01*
X61500Y13500D02*
X63720D01*
X65240Y11980D01*
Y11072D02*
Y11980D01*
X60913Y15367D02*
X63231D01*
X68288Y10310D01*
X12535Y42475D02*
X15695D01*
X12535Y41175D02*
X15075D01*
X12535Y41825D02*
X15075D01*
X19520Y47540D02*
X20790Y46270D01*
X18250Y41190D02*
X19520Y42460D01*
X27140D01*
X2375Y38575D02*
X6577D01*
X2375Y36035D02*
X3675D01*
X5565Y37925D01*
X6577D01*
Y35762D02*
Y37275D01*
X4310Y33495D02*
X6577Y35762D01*
X2375Y33495D02*
X4310D01*
X2375Y41825D02*
X6577D01*
X2375Y44365D02*
X3560D01*
X5450Y42475D01*
X6577D01*
X2375Y46905D02*
X4810D01*
X6577Y45138D01*
Y43125D02*
Y45138D01*
X20790Y76750D02*
X57743D01*
X15625Y70140D02*
Y76750D01*
X20790D01*
X15625Y78782D02*
X18250D01*
X21425D02*
X25235D01*
X15710Y80814D02*
X18250D01*
X21425D01*
X80480Y22140D02*
X81750Y23410D01*
X77940Y22140D02*
X80480D01*
X34125Y17695D02*
Y19219D01*
X15430Y22140D02*
X22060D01*
X23065Y21135D01*
X29591D01*
X10630Y12115D02*
Y13444D01*
Y12115D02*
X12920Y9825D01*
X10630Y15476D02*
Y17060D01*
X14440Y20870D01*
X15430D01*
X14078Y37925D02*
X15075Y36928D01*
X10327Y45967D02*
X11900Y47540D01*
X14440Y57700D02*
X18250Y53890D01*
X6185Y57700D02*
X14440D01*
X11077Y45447D02*
X11900Y46270D01*
X20790Y31030D02*
X27140D01*
X34125Y38015D01*
Y44285D01*
X14515Y38575D02*
X15710Y37380D01*
X20790Y41190D02*
X23330D01*
X16345D02*
X17615Y39920D01*
X16345Y41190D02*
Y41825D01*
X15695Y42475D02*
X16345Y41825D01*
X12535Y39225D02*
X15710D01*
X12535Y40525D02*
X15740D01*
X17615Y38650D01*
X18250D01*
X15075Y34205D02*
Y36928D01*
Y34205D02*
X16980Y32300D01*
X25870D01*
X22060Y37380D02*
X25870D01*
X20790Y38650D02*
X22060Y37380D01*
X17615Y39920D02*
X22695D01*
X23965Y38650D01*
X27140D01*
X23330Y41190D02*
X23965Y40555D01*
X27140D01*
X34760Y37380D02*
X36830Y39450D01*
Y44450D01*
X15710Y37380D02*
X16345D01*
X6577Y39225D02*
X7642D01*
X8077Y38790D01*
X6577Y40525D02*
X7577D01*
X9360Y38742D01*
Y33570D02*
Y38742D01*
X8077Y31043D02*
Y38790D01*
X17615Y27220D02*
X25870D01*
X15202Y29633D02*
X17615Y27220D01*
X10630Y29633D02*
X15202D01*
X8077Y31043D02*
X9487Y29633D01*
X10630D01*
X14694Y18330D02*
Y19600D01*
X75641Y73927D02*
X77250D01*
X81250Y71670D02*
Y74000D01*
X87338Y69130D02*
X89250Y71042D01*
Y74000D01*
Y76330D01*
X91250Y71416D02*
Y76330D01*
X90250Y77330D02*
X91250Y76330D01*
X88250Y77330D02*
X89250Y76330D01*
X83250Y74000D02*
Y81330D01*
X84870Y95080D02*
Y97620D01*
X82330Y94445D02*
X83595Y93180D01*
X82330Y94445D02*
Y97620D01*
X91250Y90000D02*
Y91875D01*
X86902Y95080D02*
X88680D01*
X83595Y93180D02*
X88680D01*
X90680Y92445D02*
X91250Y91875D01*
X90680Y92445D02*
Y94130D01*
X87250Y90000D02*
Y91875D01*
D29*
X60795Y34840D02*
X62065Y36110D01*
Y65828D01*
X62827Y6500D02*
X73025D01*
X70320Y7770D02*
X73025D01*
X70320Y10310D02*
X72390D01*
X65240Y9040D02*
X73025D01*
X16345Y24045D02*
X16980Y24680D01*
X16345Y23410D02*
Y24045D01*
X16980Y24680D02*
X27140D01*
X37300Y34840D01*
X50000D01*
D30*
X93599Y16277D02*
Y27305D01*
X92329Y21505D02*
X93599D01*
X88265Y30120D02*
Y34946D01*
X89408Y36089D01*
X88265Y30120D02*
X89789Y28596D01*
X97409Y19904D02*
Y27305D01*
X88519Y19904D02*
Y27305D01*
X89789Y21505D02*
Y27305D01*
Y28596D01*
X97790Y29993D02*
Y39645D01*
X96266Y41169D02*
X97790Y39645D01*
X93599Y41169D02*
X96266D01*
X89408Y36089D02*
X93599D01*
X96139Y28342D02*
X97790Y29993D01*
X96139Y21505D02*
Y28342D01*
D31*
X59144Y24680D02*
Y37888D01*
Y55160D01*
Y69906D01*
D32*
X57743Y76750D02*
X70993Y90000D01*
X74765D01*
X77250D01*
Y95080D01*
X79790Y97620D01*
D33*
X8725Y23410D02*
X10630D01*
X8725Y22140D02*
X10630D01*
X6185Y22775D02*
X8725D01*
X4280Y20870D02*
X6185Y22775D01*
X4280Y17060D02*
Y20870D01*
X8725Y22140D02*
Y22775D01*
Y23410D01*
Y20870D02*
X10630D01*
X8725Y19600D02*
Y20870D01*
Y19600D02*
X10630D01*
X8725Y16425D02*
Y19600D01*
X4280Y11980D02*
X8725Y16425D01*
D34*
X92000Y61620D02*
D03*
D35*
X95250Y90000D02*
G03*
X93250Y88000I0J-2000D01*
G01*
X98000Y90000D02*
G03*
X100000Y92000I0J2000D01*
G01*
Y72000D02*
G03*
X98000Y74000I-2000J0D01*
G01*
X93250Y76000D02*
G03*
X95250Y74000I2000J0D01*
G01*
Y90000D02*
X98000D01*
X-0Y100000D02*
X0Y0D01*
X93250Y76000D02*
Y88000D01*
X95250Y74000D02*
X98000D01*
X-0Y100000D02*
X100000D01*
X100000Y92000D02*
Y100000D01*
X100000Y0D02*
Y72000D01*
X0Y0D02*
X100000D01*
D36*
X17236Y92000D02*
D03*
Y86000D02*
D03*
X12536Y89000D02*
D03*
D37*
X2375Y51985D02*
D03*
Y54525D02*
D03*
Y46905D02*
D03*
Y44365D02*
D03*
Y41825D02*
D03*
X2360Y25935D02*
D03*
Y28475D02*
D03*
X2375Y59605D02*
D03*
Y62145D02*
D03*
Y64685D02*
D03*
Y67225D02*
D03*
Y69765D02*
D03*
Y72305D02*
D03*
Y74845D02*
D03*
Y77385D02*
D03*
Y79925D02*
D03*
X20790Y20870D02*
D03*
X18250D02*
D03*
X79210D02*
D03*
X81750D02*
D03*
X18250Y69130D02*
D03*
X20790Y66590D02*
D03*
X18250D02*
D03*
X20790Y64050D02*
D03*
X18250D02*
D03*
X20790Y61510D02*
D03*
X18250D02*
D03*
X20790Y58970D02*
D03*
X18250D02*
D03*
X20790Y56430D02*
D03*
X18250D02*
D03*
X20790Y53890D02*
D03*
X18250D02*
D03*
X20790Y51350D02*
D03*
X18250D02*
D03*
X20790Y48810D02*
D03*
X18250D02*
D03*
X20790Y46270D02*
D03*
X18250D02*
D03*
X20790Y43730D02*
D03*
X18250D02*
D03*
X20790Y41190D02*
D03*
X18250D02*
D03*
X20790Y38650D02*
D03*
X18250D02*
D03*
X20790Y36110D02*
D03*
X18250D02*
D03*
X20790Y33570D02*
D03*
X18250D02*
D03*
X20790Y31030D02*
D03*
X18250D02*
D03*
X20790Y28490D02*
D03*
X18250D02*
D03*
X20790Y25950D02*
D03*
X18250D02*
D03*
X20790Y23410D02*
D03*
X18250D02*
D03*
X79210Y69130D02*
D03*
X81750Y66590D02*
D03*
X79210D02*
D03*
X81750Y64050D02*
D03*
X79210D02*
D03*
X81750Y61510D02*
D03*
X79210D02*
D03*
X81750Y58970D02*
D03*
X79210D02*
D03*
X81750Y56430D02*
D03*
X79210D02*
D03*
X81750Y53890D02*
D03*
X79210D02*
D03*
X81750Y51350D02*
D03*
X79210D02*
D03*
X81750Y48810D02*
D03*
X79210D02*
D03*
X81750Y46270D02*
D03*
X79210D02*
D03*
X81750Y43730D02*
D03*
X79210D02*
D03*
X81750Y41190D02*
D03*
X79210D02*
D03*
X81750Y38650D02*
D03*
X79210D02*
D03*
X81750Y36110D02*
D03*
X79210D02*
D03*
X81750Y33570D02*
D03*
X79210D02*
D03*
X81750Y31030D02*
D03*
X79210D02*
D03*
X81750Y28490D02*
D03*
X79210D02*
D03*
X81750Y25950D02*
D03*
X79210D02*
D03*
X81750Y23410D02*
D03*
X79210D02*
D03*
X2360Y33585D02*
D03*
Y36125D02*
D03*
Y38665D02*
D03*
X77250Y97620D02*
D03*
X79790D02*
D03*
X82330D02*
D03*
X84870D02*
D03*
X87410D02*
D03*
X89950D02*
D03*
D38*
X93599Y16277D02*
D03*
Y11197D02*
D03*
Y41169D02*
D03*
Y36089D02*
D03*
X4280Y17060D02*
D03*
Y11980D02*
D03*
D39*
X22020Y17325D02*
D03*
X19520D02*
D03*
X17020D02*
D03*
Y2825D02*
D03*
X22020D02*
D03*
D40*
X26120Y9825D02*
D03*
X12920D02*
D03*
D41*
X20790Y69130D02*
D03*
X81750D02*
D03*
D42*
X95000Y5000D02*
D03*
Y95000D02*
D03*
X5000D02*
D03*
X5000Y5000D02*
D03*
D43*
X60795Y26585D02*
D03*
Y30268D02*
D03*
Y32808D02*
D03*
Y34840D02*
D03*
X62065Y65828D02*
D03*
X97083Y44740D02*
D03*
X50000Y9000D02*
D03*
X10630Y70400D02*
D03*
X4915D02*
D03*
X13805Y36110D02*
D03*
X4727Y39875D02*
D03*
X12535Y44260D02*
D03*
X70955Y32808D02*
D03*
X65240Y55160D02*
D03*
X60795D02*
D03*
X46190Y40555D02*
D03*
X94687Y54308D02*
D03*
X60795Y37888D02*
D03*
X46205Y45650D02*
D03*
X59144Y24680D02*
D03*
X37575Y72665D02*
D03*
X74765Y90000D02*
D03*
X60795Y43095D02*
D03*
X34125Y17695D02*
D03*
X55461Y13500D02*
D03*
X48255Y50875D02*
D03*
X50635Y48175D02*
D03*
X43665Y48825D02*
D03*
X38570Y62780D02*
D03*
X44920Y61256D02*
D03*
X70066Y5230D02*
D03*
X70153Y14120D02*
D03*
X68923Y15028D02*
D03*
X24600Y55795D02*
D03*
X50600Y58825D02*
D03*
X89789Y30480D02*
D03*
X96355Y30696D02*
D03*
X75403Y20342D02*
D03*
X75383Y18842D02*
D03*
X70153Y23092D02*
D03*
X64153Y16092D02*
D03*
X59403Y19342D02*
D03*
X36665Y70400D02*
D03*
X45555Y71035D02*
D03*
X46825Y71670D02*
D03*
X44285D02*
D03*
X39840D02*
D03*
X35395Y42460D02*
D03*
X31585Y71670D02*
D03*
X40475Y53255D02*
D03*
X34760Y37380D02*
D03*
X25870D02*
D03*
X27140Y40555D02*
D03*
Y42460D02*
D03*
X93345Y29845D02*
D03*
X97409Y23495D02*
D03*
Y25400D02*
D03*
X88519Y23495D02*
D03*
Y25400D02*
D03*
X75641Y73927D02*
D03*
X79250Y71670D02*
D03*
X88083Y49240D02*
D03*
X97083D02*
D03*
X88083Y44740D02*
D03*
X88519Y19904D02*
D03*
X97409D02*
D03*
X68415Y12495D02*
D03*
X50000Y16000D02*
D03*
X56985Y6500D02*
D03*
X50000Y2000D02*
D03*
X57743Y76750D02*
D03*
X25235Y78782D02*
D03*
X15710Y80814D02*
D03*
X56985Y26585D02*
D03*
X50000Y34840D02*
D03*
X25870Y27220D02*
D03*
X6185Y57700D02*
D03*
X11900Y47540D02*
D03*
Y46270D02*
D03*
X15710Y39225D02*
D03*
X25870Y32300D02*
D03*
X27140Y38650D02*
D03*
X16345Y37380D02*
D03*
X15075Y41507D02*
D03*
X9360Y33570D02*
D03*
X14694Y18330D02*
D03*
X81250Y71670D02*
D03*
X59144Y68636D02*
D03*
Y67366D02*
D03*
Y69906D02*
D03*
X88250Y77330D02*
D03*
X90250D02*
D03*
X83250Y81330D02*
D03*
X91250Y91875D02*
D03*
X87250D02*
D03*
M02*
