G04 Layer_Color=65535*
%FSLAX43Y43*%
%MOMM*%
G71*
G01*
G75*
%ADD28C,0.300*%
%ADD29C,0.400*%
%ADD35C,0.150*%
%ADD56C,2.000*%
%ADD57C,0.250*%
%ADD58C,0.254*%
%ADD59C,0.200*%
%ADD60C,0.100*%
%ADD61R,3.000X2.000*%
%ADD62R,1.000X2.000*%
%ADD63R,4.445X2.270*%
%ADD64R,3.000X2.000*%
%ADD65R,2.000X10.000*%
G36*
X71153Y20842D02*
X70653Y21342D01*
X71153D01*
Y20842D01*
D02*
G37*
D28*
X2675Y22074D02*
Y22740D01*
X3008Y23073D01*
X3341Y22740D01*
Y22074D01*
Y22573D01*
X2675D01*
X3675Y22074D02*
Y23073D01*
X4008Y22740D01*
X4341Y23073D01*
Y22074D01*
X4674D02*
Y23073D01*
X5174D01*
X5341Y22907D01*
Y22573D01*
X5174Y22407D01*
X4674D01*
X6340Y23073D02*
X5674D01*
Y22074D01*
X6340D01*
X5674Y22573D02*
X6007D01*
X6674Y22074D02*
Y23073D01*
X7174D01*
X7340Y22907D01*
Y22573D01*
X7174Y22407D01*
X6674D01*
X7007D02*
X7340Y22074D01*
X2675Y20154D02*
Y21154D01*
X3008Y20820D01*
X3341Y21154D01*
Y20154D01*
X4341Y21154D02*
X3675D01*
Y20154D01*
X4341D01*
X3675Y20654D02*
X4008D01*
X4674Y21154D02*
X5341D01*
X5008D01*
Y20154D01*
X6340Y21154D02*
X5674D01*
Y20154D01*
X6340D01*
X5674Y20654D02*
X6007D01*
X6674Y20154D02*
Y21154D01*
X7174D01*
X7340Y20987D01*
Y20654D01*
X7174Y20487D01*
X6674D01*
X7007D02*
X7340Y20154D01*
X5368Y26147D02*
X5118Y26397D01*
X4618D01*
X4368Y26147D01*
Y25148D01*
X4618Y24898D01*
X5118D01*
X5368Y25148D01*
Y25648D01*
X4868D01*
X5868Y24898D02*
Y26397D01*
X6867Y24898D01*
Y26397D01*
X7367D02*
Y24898D01*
X8117D01*
X8367Y25148D01*
Y26147D01*
X8117Y26397D01*
X7367D01*
X4449Y80606D02*
X5449D01*
Y80356D01*
X4449Y79356D01*
Y79106D01*
X5373Y78142D02*
X4873Y77892D01*
X4373Y77392D01*
Y76892D01*
X4623Y76642D01*
X5123D01*
X5373Y76892D01*
Y77142D01*
X5123Y77392D01*
X4373D01*
X5322Y75526D02*
X4322D01*
Y74776D01*
X4822Y75026D01*
X5072D01*
X5322Y74776D01*
Y74276D01*
X5072Y74026D01*
X4572D01*
X4322Y74276D01*
X4920Y71486D02*
Y72986D01*
X4170Y72236D01*
X5169D01*
X4195Y70221D02*
X4445Y70471D01*
X4945D01*
X5195Y70221D01*
Y69971D01*
X4945Y69721D01*
X4695D01*
X4945D01*
X5195Y69471D01*
Y69222D01*
X4945Y68972D01*
X4445D01*
X4195Y69222D01*
X5246Y66457D02*
X4246D01*
X5246Y67457D01*
Y67707D01*
X4996Y67957D01*
X4496D01*
X4246Y67707D01*
X4424Y63866D02*
X4924D01*
X4674D01*
Y65366D01*
X4424Y65116D01*
X4221Y62500D02*
X4471Y62750D01*
X4970D01*
X5220Y62500D01*
Y61500D01*
X4970Y61250D01*
X4471D01*
X4221Y61500D01*
Y62500D01*
X5225Y60135D02*
X4975Y60385D01*
X4475D01*
X4225Y60135D01*
Y59135D01*
X4475Y58885D01*
X4975D01*
X5225Y59135D01*
Y59635D01*
X4725D01*
X5725Y58885D02*
Y60385D01*
X6724Y58885D01*
Y60385D01*
X7224D02*
Y58885D01*
X7974D01*
X8224Y59135D01*
Y60135D01*
X7974Y60385D01*
X7224D01*
X95711Y46188D02*
Y47687D01*
X96461D01*
X96711Y47437D01*
Y46938D01*
X96461Y46688D01*
X95711D01*
X96211D02*
X96711Y46188D01*
X98211Y47437D02*
X97961Y47687D01*
X97461D01*
X97211Y47437D01*
Y47187D01*
X97461Y46938D01*
X97961D01*
X98211Y46688D01*
Y46438D01*
X97961Y46188D01*
X97461D01*
X97211Y46438D01*
X98710Y47687D02*
X99710D01*
X99210D01*
Y46188D01*
X27716Y25056D02*
Y23556D01*
X28715D01*
X30215Y24806D02*
X29965Y25056D01*
X29465D01*
X29215Y24806D01*
Y23806D01*
X29465Y23556D01*
X29965D01*
X30215Y23806D01*
X30715Y25056D02*
Y23556D01*
X31464D01*
X31714Y23806D01*
Y24806D01*
X31464Y25056D01*
X30715D01*
X23473Y86025D02*
Y85025D01*
X24223D01*
X23973Y85525D01*
Y85775D01*
X24223Y86025D01*
X24722D01*
X24972Y85775D01*
Y85275D01*
X24722Y85025D01*
X23473Y86525D02*
X24473D01*
X24972Y87025D01*
X24473Y87525D01*
X23473D01*
X23723Y90524D02*
X23473Y90274D01*
Y89774D01*
X23723Y89524D01*
X23973D01*
X24223Y89774D01*
Y90274D01*
X24473Y90524D01*
X24722D01*
X24972Y90274D01*
Y89774D01*
X24722Y89524D01*
X23473Y91023D02*
X24722D01*
X24972Y91273D01*
Y91773D01*
X24722Y92023D01*
X23473D01*
X24972Y92523D02*
X23473D01*
Y93273D01*
X23723Y93523D01*
X24223D01*
X24473Y93273D01*
Y92523D01*
X24972Y94022D02*
X23473D01*
Y94772D01*
X23723Y95022D01*
X24223D01*
X24473Y94772D01*
Y94022D01*
X23473Y95522D02*
X24972D01*
Y96522D01*
X23473Y97021D02*
X23723D01*
X24223Y97521D01*
X23723Y98021D01*
X23473D01*
X24223Y97521D02*
X24972D01*
X97738Y10840D02*
X97488Y10590D01*
Y10090D01*
X97738Y9840D01*
X98738D01*
X98988Y10090D01*
Y10590D01*
X98738Y10840D01*
X98238D01*
Y10340D01*
X98988Y11340D02*
X97488D01*
X98988Y12340D01*
X97488D01*
Y12839D02*
X98988D01*
Y13589D01*
X98738Y13839D01*
X97738D01*
X97488Y13589D01*
Y12839D01*
X98238Y15838D02*
Y16838D01*
X97738Y16338D02*
X98738D01*
X98988Y35088D02*
X97488D01*
X97988Y35588D01*
X97488Y36088D01*
X98988D01*
X97488Y37337D02*
Y36837D01*
X97738Y36588D01*
X98738D01*
X98988Y36837D01*
Y37337D01*
X98738Y37587D01*
X97738D01*
X97488Y37337D01*
Y38087D02*
Y39087D01*
Y38587D01*
X98988D01*
X97488Y40336D02*
Y39836D01*
X97738Y39587D01*
X98738D01*
X98988Y39836D01*
Y40336D01*
X98738Y40586D01*
X97738D01*
X97488Y40336D01*
X98988Y41086D02*
X97488D01*
Y41836D01*
X97738Y42086D01*
X98238D01*
X98488Y41836D01*
Y41086D01*
Y41586D02*
X98988Y42086D01*
X4125Y46220D02*
Y47720D01*
X4875D01*
X5125Y47470D01*
Y46970D01*
X4875Y46720D01*
X4125D01*
X6374Y47720D02*
X5874D01*
X5625Y47470D01*
Y46470D01*
X5874Y46220D01*
X6374D01*
X6624Y46470D01*
Y47470D01*
X6374Y47720D01*
X7124D02*
X8124D01*
X7624D01*
Y46220D01*
X9623D02*
X8624D01*
X9623Y47220D01*
Y47470D01*
X9373Y47720D01*
X8873D01*
X8624Y47470D01*
X4225Y32645D02*
Y34145D01*
X4975D01*
X5225Y33895D01*
Y33395D01*
X4975Y33145D01*
X4225D01*
X6474Y34145D02*
X5974D01*
X5725Y33895D01*
Y32895D01*
X5974Y32645D01*
X6474D01*
X6724Y32895D01*
Y33895D01*
X6474Y34145D01*
X7224D02*
X8224D01*
X7724D01*
Y32645D01*
X8724D02*
X9223D01*
X8973D01*
Y34145D01*
X8724Y33895D01*
X4170Y27925D02*
Y28925D01*
X4670Y29425D01*
X5169Y28925D01*
Y27925D01*
Y28675D01*
X4170D01*
X5669Y29425D02*
X6169D01*
X5919D01*
Y27925D01*
X5669D01*
X6169D01*
X6919D02*
Y29425D01*
X7919Y27925D01*
Y29425D01*
X9418Y27925D02*
X8418D01*
X9418Y28925D01*
Y29175D01*
X9168Y29425D01*
X8668D01*
X8418Y29175D01*
X4195Y51166D02*
Y52166D01*
X4695Y52666D01*
X5195Y52166D01*
Y51166D01*
Y51916D01*
X4195D01*
X5695Y52666D02*
X6195D01*
X5945D01*
Y51166D01*
X5695D01*
X6195D01*
X6944D02*
Y52666D01*
X7944Y51166D01*
Y52666D01*
X8444Y51166D02*
X8944D01*
X8694D01*
Y52666D01*
X8444Y52416D01*
X5220Y55261D02*
X4970Y55511D01*
X4471D01*
X4221Y55261D01*
Y54261D01*
X4471Y54011D01*
X4970D01*
X5220Y54261D01*
Y54761D01*
X4720D01*
X5720Y54011D02*
Y55511D01*
X6720Y54011D01*
Y55511D01*
X7220D02*
Y54011D01*
X7969D01*
X8219Y54261D01*
Y55261D01*
X7969Y55511D01*
X7220D01*
D29*
X12756Y36200D02*
G03*
X12756Y36200I-200J0D01*
G01*
D35*
X47300Y1250D02*
Y7250D01*
X52700D01*
Y1250D02*
Y7250D01*
X47300Y1250D02*
X52700D01*
X47300Y15250D02*
Y21250D01*
X52700D01*
Y15250D02*
Y21250D01*
X47300Y15250D02*
X52700D01*
X40300Y8250D02*
Y14250D01*
X45700D01*
Y8250D02*
Y14250D01*
X40300Y8250D02*
X45700D01*
X54300D02*
Y14250D01*
X59700D01*
Y8250D02*
Y14250D01*
X54300Y8250D02*
X59700D01*
X89883Y43990D02*
Y49990D01*
X95283D01*
Y43990D02*
Y49990D01*
X89883Y43990D02*
X95283D01*
X49000Y65000D02*
X50000D01*
Y69750D01*
X49000D02*
X50000D01*
X38000D02*
X39000D01*
X38000Y65000D02*
Y69750D01*
Y65000D02*
X39000D01*
X74625Y4425D02*
Y14925D01*
Y4425D02*
X80225D01*
Y14925D01*
X74625D02*
X80225D01*
X25770Y13375D02*
Y16675D01*
Y3475D02*
Y6775D01*
X13270Y13375D02*
Y16675D01*
Y3475D02*
Y6775D01*
X23965Y16675D02*
X25770D01*
X13270D02*
X15075D01*
X23965Y3475D02*
X25770D01*
X13270D02*
X15075D01*
X27000Y23000D02*
Y100000D01*
X73000Y23000D02*
Y100000D01*
X27000Y23000D02*
X73000D01*
X66653Y16842D02*
Y17342D01*
Y16842D02*
X67153D01*
X70653D02*
X71153D01*
Y17342D01*
X66653Y21342D02*
X67153D01*
X66653Y20842D02*
Y21342D01*
X70653D02*
X71153D01*
Y20842D02*
Y21342D01*
X70653D02*
X71153Y20842D01*
X7806Y36950D02*
X11306D01*
X7806D02*
Y43450D01*
X11306D01*
Y36950D02*
Y43450D01*
X16625Y67640D02*
Y70365D01*
X14625Y67640D02*
Y70365D01*
X65765Y6183D02*
X65065D01*
Y6533D01*
X65182Y6649D01*
X65415D01*
X65532Y6533D01*
Y6183D01*
Y6416D02*
X65765Y6649D01*
Y7232D02*
X65065D01*
X65415Y6883D01*
Y7349D01*
X65765Y7932D02*
X65065D01*
X65415Y7582D01*
Y8049D01*
X67670Y5802D02*
Y6502D01*
X68020D01*
X68136Y6385D01*
Y6152D01*
X68020Y6035D01*
X67670D01*
X67903D02*
X68136Y5802D01*
X68719D02*
Y6502D01*
X68370Y6152D01*
X68836D01*
X69069Y6385D02*
X69186Y6502D01*
X69419D01*
X69536Y6385D01*
Y6268D01*
X69419Y6152D01*
X69303D01*
X69419D01*
X69536Y6035D01*
Y5918D01*
X69419Y5802D01*
X69186D01*
X69069Y5918D01*
X67780Y11345D02*
Y12045D01*
X68130D01*
X68247Y11928D01*
Y11695D01*
X68130Y11578D01*
X67780D01*
X68013D02*
X68247Y11345D01*
X68830D02*
Y12045D01*
X68480Y11695D01*
X68946D01*
X69646Y11345D02*
X69180D01*
X69646Y11812D01*
Y11928D01*
X69529Y12045D01*
X69296D01*
X69180Y11928D01*
X58069Y5599D02*
Y6298D01*
X58418D01*
X58535Y6182D01*
Y5948D01*
X58418Y5832D01*
X58069D01*
X58302D02*
X58535Y5599D01*
X59118D02*
Y6298D01*
X58768Y5948D01*
X59235D01*
X59468Y5599D02*
X59701D01*
X59585D01*
Y6298D01*
X59468Y6182D01*
X83443Y67041D02*
Y67741D01*
X83793D01*
X83910Y67624D01*
Y67391D01*
X83793Y67274D01*
X83443D01*
X83676D02*
X83910Y67041D01*
X84609Y67741D02*
X84143D01*
Y67391D01*
X84376Y67508D01*
X84493D01*
X84609Y67391D01*
Y67158D01*
X84493Y67041D01*
X84260D01*
X84143Y67158D01*
X84843Y67624D02*
X84959Y67741D01*
X85193D01*
X85309Y67624D01*
Y67158D01*
X85193Y67041D01*
X84959D01*
X84843Y67158D01*
Y67624D01*
X93277Y68613D02*
X92578D01*
Y68963D01*
X92694Y69080D01*
X92928D01*
X93044Y68963D01*
Y68613D01*
Y68846D02*
X93277Y69080D01*
Y69663D02*
X92578D01*
X92928Y69313D01*
Y69779D01*
X93161Y70013D02*
X93277Y70129D01*
Y70363D01*
X93161Y70479D01*
X92694D01*
X92578Y70363D01*
Y70129D01*
X92694Y70013D01*
X92811D01*
X92928Y70129D01*
Y70479D01*
X57865Y3109D02*
Y3809D01*
X58215D01*
X58332Y3693D01*
Y3459D01*
X58215Y3343D01*
X57865D01*
X58099D02*
X58332Y3109D01*
X58915D02*
Y3809D01*
X58565Y3459D01*
X59032D01*
X59731Y3809D02*
X59498Y3693D01*
X59265Y3459D01*
Y3226D01*
X59382Y3109D01*
X59615D01*
X59731Y3226D01*
Y3343D01*
X59615Y3459D01*
X59265D01*
X85170Y52462D02*
X84471D01*
Y52811D01*
X84587Y52928D01*
X84821D01*
X84937Y52811D01*
Y52462D01*
Y52695D02*
X85170Y52928D01*
Y53511D02*
X84471D01*
X84821Y53161D01*
Y53628D01*
X84471Y54328D02*
Y53861D01*
X84821D01*
X84704Y54094D01*
Y54211D01*
X84821Y54328D01*
X85054D01*
X85170Y54211D01*
Y53978D01*
X85054Y53861D01*
X84713Y18400D02*
X84013D01*
Y18750D01*
X84130Y18867D01*
X84363D01*
X84480Y18750D01*
Y18400D01*
Y18633D02*
X84713Y18867D01*
X84130Y19100D02*
X84013Y19217D01*
Y19450D01*
X84130Y19566D01*
X84247D01*
X84363Y19450D01*
Y19333D01*
Y19450D01*
X84480Y19566D01*
X84597D01*
X84713Y19450D01*
Y19217D01*
X84597Y19100D01*
Y19800D02*
X84713Y19916D01*
Y20150D01*
X84597Y20266D01*
X84130D01*
X84013Y20150D01*
Y19916D01*
X84130Y19800D01*
X84247D01*
X84363Y19916D01*
Y20266D01*
X76992Y29754D02*
X76292D01*
Y30104D01*
X76408Y30221D01*
X76642D01*
X76758Y30104D01*
Y29754D01*
Y29987D02*
X76992Y30221D01*
X76408Y30454D02*
X76292Y30570D01*
Y30804D01*
X76408Y30920D01*
X76525D01*
X76642Y30804D01*
Y30687D01*
Y30804D01*
X76758Y30920D01*
X76875D01*
X76992Y30804D01*
Y30570D01*
X76875Y30454D01*
X76408Y31154D02*
X76292Y31270D01*
Y31503D01*
X76408Y31620D01*
X76525D01*
X76642Y31503D01*
X76758Y31620D01*
X76875D01*
X76992Y31503D01*
Y31270D01*
X76875Y31154D01*
X76758D01*
X76642Y31270D01*
X76525Y31154D01*
X76408D01*
X76642Y31270D02*
Y31503D01*
X86567Y18476D02*
X85868D01*
Y18826D01*
X85984Y18943D01*
X86218D01*
X86334Y18826D01*
Y18476D01*
Y18710D02*
X86567Y18943D01*
X85984Y19176D02*
X85868Y19293D01*
Y19526D01*
X85984Y19643D01*
X86101D01*
X86218Y19526D01*
Y19409D01*
Y19526D01*
X86334Y19643D01*
X86451D01*
X86567Y19526D01*
Y19293D01*
X86451Y19176D01*
X85868Y19876D02*
Y20342D01*
X85984D01*
X86451Y19876D01*
X86567D01*
X1318Y50018D02*
X1084D01*
X1201D01*
Y49435D01*
X1084Y49318D01*
X968D01*
X851Y49435D01*
X2017Y49318D02*
X1551D01*
X2017Y49785D01*
Y49901D01*
X1901Y50018D01*
X1667D01*
X1551Y49901D01*
X53594Y4256D02*
Y3556D01*
X53944D01*
X54061Y3673D01*
Y3789D01*
X53944Y3906D01*
X53594D01*
X53944D01*
X54061Y4023D01*
Y4139D01*
X53944Y4256D01*
X53594D01*
X54294D02*
X54760D01*
X54527D01*
Y3556D01*
X54994D02*
Y4256D01*
X55460Y3556D01*
Y4256D01*
X55693Y3556D02*
X55927D01*
X55810D01*
Y4256D01*
X55693Y4139D01*
X53547Y18567D02*
Y17867D01*
X53897D01*
X54014Y17983D01*
Y18100D01*
X53897Y18217D01*
X53547D01*
X53897D01*
X54014Y18333D01*
Y18450D01*
X53897Y18567D01*
X53547D01*
X54247D02*
X54714D01*
X54480D01*
Y17867D01*
X54947D02*
Y18567D01*
X55413Y17867D01*
Y18567D01*
X56113Y17867D02*
X55647D01*
X56113Y18333D01*
Y18450D01*
X55997Y18567D01*
X55763D01*
X55647Y18450D01*
X46461Y11531D02*
Y10831D01*
X46811D01*
X46927Y10948D01*
Y11064D01*
X46811Y11181D01*
X46461D01*
X46811D01*
X46927Y11298D01*
Y11414D01*
X46811Y11531D01*
X46461D01*
X47161D02*
X47627D01*
X47394D01*
Y10831D01*
X47860D02*
Y11531D01*
X48327Y10831D01*
Y11531D01*
X48560Y11414D02*
X48677Y11531D01*
X48910D01*
X49027Y11414D01*
Y11298D01*
X48910Y11181D01*
X48793D01*
X48910D01*
X49027Y11064D01*
Y10948D01*
X48910Y10831D01*
X48677D01*
X48560Y10948D01*
X60431Y11505D02*
Y10806D01*
X60781D01*
X60897Y10922D01*
Y11039D01*
X60781Y11155D01*
X60431D01*
X60781D01*
X60897Y11272D01*
Y11389D01*
X60781Y11505D01*
X60431D01*
X61131D02*
X61597D01*
X61364D01*
Y10806D01*
X61830D02*
Y11505D01*
X62297Y10806D01*
Y11505D01*
X62880Y10806D02*
Y11505D01*
X62530Y11155D01*
X62997D01*
X86466Y47370D02*
Y46670D01*
X86816D01*
X86932Y46787D01*
Y46904D01*
X86816Y47020D01*
X86466D01*
X86816D01*
X86932Y47137D01*
Y47254D01*
X86816Y47370D01*
X86466D01*
X87166D02*
X87632D01*
X87399D01*
Y46670D01*
X87865D02*
Y47370D01*
X88332Y46670D01*
Y47370D01*
X89032D02*
X88565D01*
Y47020D01*
X88798Y47137D01*
X88915D01*
X89032Y47020D01*
Y46787D01*
X88915Y46670D01*
X88682D01*
X88565Y46787D01*
X74503Y16200D02*
X74387Y16083D01*
Y15850D01*
X74503Y15733D01*
X74970D01*
X75087Y15850D01*
Y16083D01*
X74970Y16200D01*
X75087Y16433D02*
Y16666D01*
Y16550D01*
X74387D01*
X74503Y16433D01*
X63531Y18003D02*
X63414Y17886D01*
Y17653D01*
X63531Y17537D01*
X63997D01*
X64114Y17653D01*
Y17886D01*
X63997Y18003D01*
X64114Y18703D02*
Y18236D01*
X63647Y18703D01*
X63531D01*
X63414Y18586D01*
Y18353D01*
X63531Y18236D01*
X61499Y15870D02*
X61382Y15753D01*
Y15520D01*
X61499Y15403D01*
X61965D01*
X62082Y15520D01*
Y15753D01*
X61965Y15870D01*
X62082Y16453D02*
X61382D01*
X61732Y16103D01*
Y16569D01*
X42195Y16632D02*
X42078Y16515D01*
Y16282D01*
X42195Y16165D01*
X42661D01*
X42778Y16282D01*
Y16515D01*
X42661Y16632D01*
X42078Y17331D02*
X42195Y17098D01*
X42428Y16865D01*
X42661D01*
X42778Y16981D01*
Y17215D01*
X42661Y17331D01*
X42545D01*
X42428Y17215D01*
Y16865D01*
X35667Y7411D02*
X35550Y7295D01*
Y7061D01*
X35667Y6945D01*
X36133D01*
X36250Y7061D01*
Y7295D01*
X36133Y7411D01*
X35550Y7645D02*
Y8111D01*
X35667D01*
X36133Y7645D01*
X36250D01*
X84714Y42870D02*
X84598Y42753D01*
Y42520D01*
X84714Y42403D01*
X85181D01*
X85297Y42520D01*
Y42753D01*
X85181Y42870D01*
Y43103D02*
X85297Y43220D01*
Y43453D01*
X85181Y43569D01*
X84714D01*
X84598Y43453D01*
Y43220D01*
X84714Y43103D01*
X84831D01*
X84948Y43220D01*
Y43569D01*
X29114Y11018D02*
X28997Y10901D01*
Y10668D01*
X29114Y10552D01*
X29580D01*
X29697Y10668D01*
Y10901D01*
X29580Y11018D01*
X29697Y11251D02*
Y11485D01*
Y11368D01*
X28997D01*
X29114Y11251D01*
Y11835D02*
X28997Y11951D01*
Y12184D01*
X29114Y12301D01*
X29580D01*
X29697Y12184D01*
Y11951D01*
X29580Y11835D01*
X29114D01*
X27166Y13234D02*
X27050Y13117D01*
Y12884D01*
X27166Y12767D01*
X27633D01*
X27750Y12884D01*
Y13117D01*
X27633Y13234D01*
X27750Y13467D02*
Y13700D01*
Y13584D01*
X27050D01*
X27166Y13467D01*
X27750Y14517D02*
Y14050D01*
X27283Y14517D01*
X27166D01*
X27050Y14400D01*
Y14167D01*
X27166Y14050D01*
X49311Y64403D02*
X49077D01*
X49194D01*
Y63820D01*
X49077Y63703D01*
X48961D01*
X48844Y63820D01*
X49544Y63703D02*
X49777D01*
X49661D01*
Y64403D01*
X49544Y64286D01*
X4531Y41594D02*
X4297D01*
X4414D01*
Y41011D01*
X4297Y40894D01*
X4181D01*
X4064Y41011D01*
X4764Y41477D02*
X4880Y41594D01*
X5114D01*
X5230Y41477D01*
Y41361D01*
X5114Y41244D01*
X4997D01*
X5114D01*
X5230Y41127D01*
Y41011D01*
X5114Y40894D01*
X4880D01*
X4764Y41011D01*
X1318Y31730D02*
X1084D01*
X1201D01*
Y31147D01*
X1084Y31030D01*
X968D01*
X851Y31147D01*
X1901Y31030D02*
Y31730D01*
X1551Y31380D01*
X2017D01*
X1318Y24110D02*
X1084D01*
X1201D01*
Y23527D01*
X1084Y23410D01*
X968D01*
X851Y23527D01*
X2017Y24110D02*
X1784Y23993D01*
X1551Y23760D01*
Y23527D01*
X1667Y23410D01*
X1901D01*
X2017Y23527D01*
Y23643D01*
X1901Y23760D01*
X1551D01*
X1318Y57638D02*
X1084D01*
X1201D01*
Y57055D01*
X1084Y56938D01*
X968D01*
X851Y57055D01*
X1551Y57638D02*
X2017D01*
Y57521D01*
X1551Y57055D01*
Y56938D01*
X89494Y8244D02*
X89260D01*
X89377D01*
Y7660D01*
X89260Y7544D01*
X89144D01*
X89027Y7660D01*
X89727Y8127D02*
X89843Y8244D01*
X90077D01*
X90193Y8127D01*
Y8010D01*
X90077Y7894D01*
X90193Y7777D01*
Y7660D01*
X90077Y7544D01*
X89843D01*
X89727Y7660D01*
Y7777D01*
X89843Y7894D01*
X89727Y8010D01*
Y8127D01*
X89843Y7894D02*
X90077D01*
X96428Y33136D02*
X96194D01*
X96311D01*
Y32552D01*
X96194Y32436D01*
X96078D01*
X95961Y32552D01*
X96661D02*
X96778Y32436D01*
X97011D01*
X97127Y32552D01*
Y33019D01*
X97011Y33136D01*
X96778D01*
X96661Y33019D01*
Y32902D01*
X96778Y32786D01*
X97127D01*
X9478Y85923D02*
X9244D01*
X9361D01*
Y85340D01*
X9244Y85223D01*
X9128D01*
X9011Y85340D01*
X9711Y85223D02*
X9944D01*
X9828D01*
Y85923D01*
X9711Y85806D01*
X10294D02*
X10411Y85923D01*
X10644D01*
X10761Y85806D01*
Y85340D01*
X10644Y85223D01*
X10411D01*
X10294Y85340D01*
Y85806D01*
X22783Y78604D02*
X23482D01*
Y79071D01*
X22783Y79770D02*
Y79304D01*
X23482D01*
Y79770D01*
X23133Y79304D02*
Y79537D01*
X22783Y80004D02*
X23482D01*
Y80354D01*
X23366Y80470D01*
X22899D01*
X22783Y80354D01*
Y80004D01*
X23482Y80704D02*
Y80937D01*
Y80820D01*
X22783D01*
X22899Y80704D01*
X17931Y75099D02*
X18631D01*
Y75566D01*
X17931Y76265D02*
Y75799D01*
X18631D01*
Y76265D01*
X18281Y75799D02*
Y76032D01*
X17931Y76499D02*
X18631D01*
Y76848D01*
X18514Y76965D01*
X18048D01*
X17931Y76848D01*
Y76499D01*
X18631Y77665D02*
Y77198D01*
X18164Y77665D01*
X18048D01*
X17931Y77548D01*
Y77315D01*
X18048Y77198D01*
X21162Y72553D02*
X20463D01*
Y72903D01*
X20579Y73020D01*
X20813D01*
X20929Y72903D01*
Y72553D01*
Y72786D02*
X21162Y73020D01*
Y73603D02*
X20463D01*
X20813Y73253D01*
Y73719D01*
X85166Y16027D02*
Y16727D01*
X85516D01*
X85633Y16611D01*
Y16377D01*
X85516Y16261D01*
X85166D01*
X85399D02*
X85633Y16027D01*
X85866Y16727D02*
X86332D01*
Y16611D01*
X85866Y16144D01*
Y16027D01*
X63403Y14260D02*
Y14960D01*
X63752D01*
X63869Y14843D01*
Y14610D01*
X63752Y14493D01*
X63403D01*
X63636D02*
X63869Y14260D01*
X64102Y14843D02*
X64219Y14960D01*
X64452D01*
X64569Y14843D01*
Y14727D01*
X64452Y14610D01*
X64569Y14493D01*
Y14377D01*
X64452Y14260D01*
X64219D01*
X64102Y14377D01*
Y14493D01*
X64219Y14610D01*
X64102Y14727D01*
Y14843D01*
X64219Y14610D02*
X64452D01*
X34066Y11212D02*
X33366D01*
Y11562D01*
X33482Y11679D01*
X33716D01*
X33832Y11562D01*
Y11212D01*
Y11445D02*
X34066Y11679D01*
X33949Y11912D02*
X34066Y12028D01*
Y12262D01*
X33949Y12378D01*
X33482D01*
X33366Y12262D01*
Y12028D01*
X33482Y11912D01*
X33599D01*
X33716Y12028D01*
Y12378D01*
X38545Y18787D02*
Y19487D01*
X38894D01*
X39011Y19370D01*
Y19137D01*
X38894Y19020D01*
X38545D01*
X38778D02*
X39011Y18787D01*
X39244D02*
X39478D01*
X39361D01*
Y19487D01*
X39244Y19370D01*
X39828D02*
X39944Y19487D01*
X40177D01*
X40294Y19370D01*
Y18904D01*
X40177Y18787D01*
X39944D01*
X39828Y18904D01*
Y19370D01*
X37622Y11085D02*
X36922D01*
Y11435D01*
X37038Y11552D01*
X37272D01*
X37388Y11435D01*
Y11085D01*
Y11318D02*
X37622Y11552D01*
Y11785D02*
Y12018D01*
Y11901D01*
X36922D01*
X37038Y11785D01*
X37622Y12368D02*
Y12601D01*
Y12485D01*
X36922D01*
X37038Y12368D01*
X40820Y14785D02*
Y15485D01*
X41170D01*
X41287Y15368D01*
Y15135D01*
X41170Y15018D01*
X40820D01*
X41053D02*
X41287Y14785D01*
X41520D02*
X41753D01*
X41636D01*
Y15485D01*
X41520Y15368D01*
X42569Y14785D02*
X42103D01*
X42569Y15252D01*
Y15368D01*
X42453Y15485D01*
X42220D01*
X42103Y15368D01*
X89006Y51141D02*
X88306D01*
Y51491D01*
X88423Y51607D01*
X88656D01*
X88773Y51491D01*
Y51141D01*
Y51374D02*
X89006Y51607D01*
Y51841D02*
Y52074D01*
Y51957D01*
X88306D01*
X88423Y51841D01*
Y52424D02*
X88306Y52540D01*
Y52774D01*
X88423Y52890D01*
X88539D01*
X88656Y52774D01*
Y52657D01*
Y52774D01*
X88773Y52890D01*
X88889D01*
X89006Y52774D01*
Y52540D01*
X88889Y52424D01*
X31907Y10399D02*
X31207D01*
Y10749D01*
X31323Y10866D01*
X31557D01*
X31673Y10749D01*
Y10399D01*
Y10632D02*
X31907Y10866D01*
Y11099D02*
Y11332D01*
Y11216D01*
X31207D01*
X31323Y11099D01*
X31907Y12032D02*
X31207D01*
X31557Y11682D01*
Y12149D01*
X26708Y18813D02*
Y19512D01*
X27058D01*
X27175Y19396D01*
Y19162D01*
X27058Y19046D01*
X26708D01*
X26941D02*
X27175Y18813D01*
X27408D02*
X27641D01*
X27525D01*
Y19512D01*
X27408Y19396D01*
X28458Y19512D02*
X27991D01*
Y19162D01*
X28224Y19279D01*
X28341D01*
X28458Y19162D01*
Y18929D01*
X28341Y18813D01*
X28108D01*
X27991Y18929D01*
X32618Y16648D02*
Y17347D01*
X32968D01*
X33084Y17231D01*
Y16997D01*
X32968Y16881D01*
X32618D01*
X32851D02*
X33084Y16648D01*
X33318D02*
X33551D01*
X33434D01*
Y17347D01*
X33318Y17231D01*
X34367Y17347D02*
X34134Y17231D01*
X33901Y16997D01*
Y16764D01*
X34017Y16648D01*
X34251D01*
X34367Y16764D01*
Y16881D01*
X34251Y16997D01*
X33901D01*
X11053Y26884D02*
X10353D01*
Y27234D01*
X10470Y27350D01*
X10703D01*
X10820Y27234D01*
Y26884D01*
Y27117D02*
X11053Y27350D01*
Y27584D02*
Y27817D01*
Y27700D01*
X10353D01*
X10470Y27584D01*
Y28167D02*
X10353Y28283D01*
Y28517D01*
X10470Y28633D01*
X10587D01*
X10703Y28517D01*
X10820Y28633D01*
X10937D01*
X11053Y28517D01*
Y28283D01*
X10937Y28167D01*
X10820D01*
X10703Y28283D01*
X10587Y28167D01*
X10470D01*
X10703Y28283D02*
Y28517D01*
X15972Y73798D02*
X15272D01*
Y74147D01*
X15389Y74264D01*
X15622D01*
X15739Y74147D01*
Y73798D01*
Y74031D02*
X15972Y74264D01*
Y74964D02*
Y74497D01*
X15505Y74964D01*
X15389D01*
X15272Y74847D01*
Y74614D01*
X15389Y74497D01*
X15272Y75664D02*
Y75197D01*
X15622D01*
X15505Y75430D01*
Y75547D01*
X15622Y75664D01*
X15855D01*
X15972Y75547D01*
Y75314D01*
X15855Y75197D01*
X78922Y3809D02*
Y3226D01*
X79039Y3109D01*
X79272D01*
X79389Y3226D01*
Y3809D01*
X80088Y3109D02*
X79622D01*
X80088Y3576D01*
Y3693D01*
X79972Y3809D01*
X79738D01*
X79622Y3693D01*
X70434Y16143D02*
Y15560D01*
X70551Y15443D01*
X70784D01*
X70901Y15560D01*
Y16143D01*
X71134Y16026D02*
X71251Y16143D01*
X71484D01*
X71600Y16026D01*
Y15910D01*
X71484Y15793D01*
X71367D01*
X71484D01*
X71600Y15676D01*
Y15560D01*
X71484Y15443D01*
X71251D01*
X71134Y15560D01*
X9950Y44545D02*
Y43962D01*
X10067Y43845D01*
X10300D01*
X10417Y43962D01*
Y44545D01*
X11116D02*
X10650D01*
Y44195D01*
X10883Y44312D01*
X11000D01*
X11116Y44195D01*
Y43962D01*
X11000Y43845D01*
X10766D01*
X10650Y43962D01*
X93000Y72700D02*
Y72117D01*
X93117Y72000D01*
X93350D01*
X93467Y72117D01*
Y72700D01*
X93700D02*
X94166D01*
Y72583D01*
X93700Y72117D01*
Y72000D01*
X85932Y26466D02*
Y25883D01*
X86049Y25766D01*
X86282D01*
X86399Y25883D01*
Y26466D01*
X86632Y26349D02*
X86749Y26466D01*
X86982D01*
X87099Y26349D01*
Y26233D01*
X86982Y26116D01*
X87099Y25999D01*
Y25883D01*
X86982Y25766D01*
X86749D01*
X86632Y25883D01*
Y25999D01*
X86749Y26116D01*
X86632Y26233D01*
Y26349D01*
X86749Y26116D02*
X86982D01*
X25956Y2520D02*
X25489D01*
Y1820D01*
X25956D01*
X25489Y2170D02*
X25722D01*
X26189Y1820D02*
Y2520D01*
X26655Y1820D01*
Y2520D01*
X27355Y2403D02*
X27238Y2520D01*
X27005D01*
X26889Y2403D01*
Y1937D01*
X27005Y1820D01*
X27238D01*
X27355Y1937D01*
X27588Y1820D02*
X27822D01*
X27705D01*
Y2520D01*
X27588Y2403D01*
X13467Y68517D02*
Y68983D01*
X13350Y69100D01*
X13117D01*
X13000Y68983D01*
Y68517D01*
X13117Y68400D01*
X13350D01*
X13233Y68633D02*
X13467Y68400D01*
X13350D02*
X13467Y68517D01*
X14166Y68400D02*
X13700D01*
X14166Y68867D01*
Y68983D01*
X14050Y69100D01*
X13816D01*
X13700Y68983D01*
X15498Y59040D02*
X14798D01*
Y59390D01*
X14915Y59507D01*
X15148D01*
X15265Y59390D01*
Y59040D01*
Y59273D02*
X15498Y59507D01*
Y60206D02*
Y59740D01*
X15032Y60206D01*
X14915D01*
X14798Y60090D01*
Y59857D01*
X14915Y59740D01*
X14798Y60906D02*
X14915Y60673D01*
X15148Y60440D01*
X15382D01*
X15498Y60556D01*
Y60790D01*
X15382Y60906D01*
X15265D01*
X15148Y60790D01*
Y60440D01*
X97219Y51495D02*
X97103Y51612D01*
X96869D01*
X96753Y51495D01*
Y51029D01*
X96869Y50912D01*
X97103D01*
X97219Y51029D01*
X97919Y50912D02*
X97453D01*
X97919Y51379D01*
Y51495D01*
X97802Y51612D01*
X97569D01*
X97453Y51495D01*
X98152D02*
X98269Y51612D01*
X98502D01*
X98619Y51495D01*
Y51379D01*
X98502Y51262D01*
X98386D01*
X98502D01*
X98619Y51145D01*
Y51029D01*
X98502Y50912D01*
X98269D01*
X98152Y51029D01*
X93243Y51906D02*
Y51323D01*
X93360Y51206D01*
X93593D01*
X93710Y51323D01*
Y51906D01*
X93943Y51206D02*
X94176D01*
X94060D01*
Y51906D01*
X93943Y51790D01*
X94526Y51206D02*
X94760D01*
X94643D01*
Y51906D01*
X94526Y51790D01*
X39130Y17815D02*
X39013Y17932D01*
X38780D01*
X38663Y17815D01*
Y17348D01*
X38780Y17232D01*
X39013D01*
X39130Y17348D01*
X39829Y17232D02*
X39363D01*
X39829Y17698D01*
Y17815D01*
X39713Y17932D01*
X39479D01*
X39363Y17815D01*
X40529Y17932D02*
X40063D01*
Y17582D01*
X40296Y17698D01*
X40412D01*
X40529Y17582D01*
Y17348D01*
X40412Y17232D01*
X40179D01*
X40063Y17348D01*
X10047Y10482D02*
X9930Y10365D01*
Y10132D01*
X10047Y10016D01*
X10513D01*
X10630Y10132D01*
Y10365D01*
X10513Y10482D01*
X10630Y11182D02*
Y10715D01*
X10163Y11182D01*
X10047D01*
X9930Y11065D01*
Y10832D01*
X10047Y10715D01*
X9930Y11415D02*
Y11882D01*
X10047D01*
X10513Y11415D01*
X10630D01*
X1572Y8870D02*
X1338D01*
X1455D01*
Y8287D01*
X1338Y8170D01*
X1222D01*
X1105Y8287D01*
X2271Y8870D02*
X1805D01*
Y8520D01*
X2038Y8637D01*
X2155D01*
X2271Y8520D01*
Y8287D01*
X2155Y8170D01*
X1921D01*
X1805Y8287D01*
X26988Y20870D02*
Y21570D01*
X27337D01*
X27454Y21453D01*
Y21220D01*
X27337Y21103D01*
X26988D01*
X27221D02*
X27454Y20870D01*
X28154Y21570D02*
X27687D01*
Y21220D01*
X27921Y21337D01*
X28037D01*
X28154Y21220D01*
Y20987D01*
X28037Y20870D01*
X27804D01*
X27687Y20987D01*
X28387Y20870D02*
X28620D01*
X28504D01*
Y21570D01*
X28387Y21453D01*
X35979Y19422D02*
X35279D01*
Y19772D01*
X35396Y19889D01*
X35629D01*
X35746Y19772D01*
Y19422D01*
Y19655D02*
X35979Y19889D01*
X35279Y20588D02*
Y20122D01*
X35629D01*
X35513Y20355D01*
Y20472D01*
X35629Y20588D01*
X35863D01*
X35979Y20472D01*
Y20239D01*
X35863Y20122D01*
X35979Y21288D02*
Y20822D01*
X35513Y21288D01*
X35396D01*
X35279Y21172D01*
Y20938D01*
X35396Y20822D01*
X11874Y25380D02*
Y24797D01*
X11991Y24680D01*
X12224D01*
X12341Y24797D01*
Y25380D01*
X12574Y24680D02*
X12807D01*
X12690D01*
Y25380D01*
X12574Y25263D01*
X13157D02*
X13274Y25380D01*
X13507D01*
X13623Y25263D01*
Y25147D01*
X13507Y25030D01*
X13390D01*
X13507D01*
X13623Y24913D01*
Y24797D01*
X13507Y24680D01*
X13274D01*
X13157Y24797D01*
X74542Y97050D02*
X74308D01*
X74425D01*
Y96467D01*
X74308Y96350D01*
X74192D01*
X74075Y96467D01*
X74775Y96350D02*
X75008D01*
X74891D01*
Y97050D01*
X74775Y96933D01*
X75358Y96350D02*
X75591D01*
X75475D01*
Y97050D01*
X75358Y96933D01*
X86683Y92657D02*
Y93123D01*
X86566Y93240D01*
X86333D01*
X86216Y93123D01*
Y92657D01*
X86333Y92540D01*
X86566D01*
X86449Y92773D02*
X86683Y92540D01*
X86566D02*
X86683Y92657D01*
X86916Y93123D02*
X87033Y93240D01*
X87266D01*
X87382Y93123D01*
Y93007D01*
X87266Y92890D01*
X87149D01*
X87266D01*
X87382Y92773D01*
Y92657D01*
X87266Y92540D01*
X87033D01*
X86916Y92657D01*
X81898Y94216D02*
Y94916D01*
X82248D01*
X82365Y94800D01*
Y94566D01*
X82248Y94450D01*
X81898D01*
X82131D02*
X82365Y94216D01*
X83064Y94916D02*
X82598D01*
Y94566D01*
X82831Y94683D01*
X82948D01*
X83064Y94566D01*
Y94333D01*
X82948Y94216D01*
X82715D01*
X82598Y94333D01*
X83764Y94916D02*
X83298D01*
Y94566D01*
X83531Y94683D01*
X83648D01*
X83764Y94566D01*
Y94333D01*
X83648Y94216D01*
X83414D01*
X83298Y94333D01*
X95250Y90000D02*
G03*
X93250Y88000I0J-2000D01*
G01*
X98000Y90000D02*
G03*
X100000Y92000I0J2000D01*
G01*
Y72000D02*
G03*
X98000Y74000I-2000J0D01*
G01*
X93250Y76000D02*
G03*
X95250Y74000I2000J0D01*
G01*
Y90000D02*
X98000D01*
X-0Y100000D02*
X0Y0D01*
X93250Y76000D02*
Y88000D01*
X95250Y74000D02*
X98000D01*
X-0Y100000D02*
X100000D01*
X100000Y92000D02*
Y100000D01*
X100000Y0D02*
Y72000D01*
X0Y0D02*
X100000D01*
D56*
X63632Y88923D02*
G03*
X63632Y96923I0J4000D01*
G01*
D57*
X73150Y15120D02*
G03*
X73150Y15120I-125J0D01*
G01*
X87794Y22005D02*
G03*
X87794Y22005I-125J0D01*
G01*
X10755Y24260D02*
G03*
X10755Y24260I-125J0D01*
G01*
X88805Y95996D02*
G03*
X88805Y95996I-125J0D01*
G01*
X88250Y63769D02*
X89250D01*
X88750D01*
Y62269D01*
X89999D02*
X90499D01*
X90749Y62519D01*
Y63019D01*
X90499Y63269D01*
X89999D01*
X89750Y63019D01*
Y62519D01*
X89999Y62269D01*
X91249Y63269D02*
Y62519D01*
X91499Y62269D01*
X92249D01*
Y63269D01*
X93748D02*
X92998D01*
X92749Y63019D01*
Y62519D01*
X92998Y62269D01*
X93748D01*
X94248Y63769D02*
Y62269D01*
Y63019D01*
X94498Y63269D01*
X94998D01*
X95248Y63019D01*
Y62269D01*
X89250Y61120D02*
X89000Y61370D01*
X88500D01*
X88250Y61120D01*
Y60870D01*
X88500Y60620D01*
X89000D01*
X89250Y60370D01*
Y60120D01*
X89000Y59870D01*
X88500D01*
X88250Y60120D01*
X90499Y59870D02*
X89999D01*
X89750Y60120D01*
Y60620D01*
X89999Y60870D01*
X90499D01*
X90749Y60620D01*
Y60370D01*
X89750D01*
X91249Y59870D02*
Y60870D01*
X91999D01*
X92249Y60620D01*
Y59870D01*
X92749D02*
X93498D01*
X93748Y60120D01*
X93498Y60370D01*
X92998D01*
X92749Y60620D01*
X92998Y60870D01*
X93748D01*
X94498Y59870D02*
X94998D01*
X95248Y60120D01*
Y60620D01*
X94998Y60870D01*
X94498D01*
X94248Y60620D01*
Y60120D01*
X94498Y59870D01*
X95748Y60870D02*
Y59870D01*
Y60370D01*
X95997Y60620D01*
X96247Y60870D01*
X96497D01*
D58*
X75750Y88000D02*
Y90000D01*
X76250D01*
X75750Y74000D02*
Y76000D01*
Y74000D02*
X76250D01*
X12212Y84850D02*
Y85925D01*
Y84850D02*
X14281D01*
X22261D02*
Y99875D01*
X20617Y84850D02*
X22261D01*
X12212Y92125D02*
Y99875D01*
X22261D01*
X1105Y50715D02*
X3645D01*
X1105D02*
Y55795D01*
X3645D01*
Y50715D02*
Y55795D01*
X1105Y40555D02*
X3645D01*
X1105D02*
Y48175D01*
X3645Y40555D02*
Y48175D01*
X1105D02*
X3645D01*
X1090Y24665D02*
Y29745D01*
Y24665D02*
X3630D01*
Y29745D01*
X1090D02*
X3630D01*
X1105Y81195D02*
X3645D01*
Y58335D02*
Y81195D01*
X1105Y58335D02*
Y81195D01*
Y58335D02*
X3645D01*
X1090Y39935D02*
X3630D01*
Y32315D02*
Y39935D01*
X1090Y32315D02*
Y39935D01*
Y32315D02*
X3630D01*
X91220Y96350D02*
Y98890D01*
X75980Y96350D02*
X91220D01*
X75980Y98890D02*
X91220D01*
X75980Y96350D02*
Y98890D01*
D59*
X17650Y79798D02*
X18850D01*
X20825D02*
X22025D01*
X85305Y22405D02*
X86505D01*
X84325Y45756D02*
X85525D01*
X84308Y50256D02*
X85508D01*
X61811Y3337D02*
Y4537D01*
X20190Y75734D02*
X21390D01*
X72553Y17326D02*
X73753D01*
X63053Y20842D02*
X64253D01*
X61053Y18592D02*
X62253D01*
X41945Y19558D02*
X43145D01*
X35087Y10016D02*
X36287D01*
X28826Y14478D02*
X30026D01*
X97002Y8734D02*
Y18737D01*
X97001Y8733D02*
X97002Y8734D01*
X89002Y8733D02*
X97001D01*
X89002D02*
Y18741D01*
X89005Y18737D01*
X97002D01*
Y33626D02*
Y43629D01*
X97001Y33625D02*
X97002Y33626D01*
X89002Y33625D02*
X97001D01*
X89002D02*
Y43633D01*
X89005Y43629D01*
X97002D01*
X83020Y15825D02*
Y17025D01*
X66637Y14428D02*
Y15628D01*
X33055Y14478D02*
X34255D01*
X38735Y19900D02*
Y21100D01*
X35087Y14478D02*
X36287D01*
X38735Y14894D02*
Y16094D01*
X86484Y52126D02*
X87684D01*
X31023Y14478D02*
X32223D01*
X30607Y18630D02*
Y19830D01*
Y16725D02*
Y17925D01*
X10030Y30649D02*
X11230D01*
X15025Y77766D02*
X16225D01*
X87884Y22905D02*
Y25905D01*
X98044D01*
X87884Y22905D02*
X98044D01*
Y25905D01*
X14475Y63034D02*
X15675D01*
X96973Y52395D02*
Y53595D01*
X36703Y17095D02*
Y18295D01*
X90650Y70400D02*
X91850D01*
X85306Y68530D02*
Y69730D01*
X83400Y22405D02*
X84600D01*
X76070Y33824D02*
X77270D01*
X86000Y67620D02*
X98000D01*
Y55620D02*
Y67620D01*
X86000Y55620D02*
X98000D01*
X86000D02*
Y67620D01*
X61811Y5900D02*
Y7100D01*
X69304Y7170D02*
Y8370D01*
X64640Y10056D02*
X65840D01*
X69304Y9710D02*
Y10910D01*
X26705Y16510D02*
X27905D01*
X10030Y14460D02*
X11230D01*
X33525Y20235D02*
X34725D01*
X30607Y20535D02*
Y21735D01*
X877Y9520D02*
X8874D01*
X8877Y9516D01*
Y19524D01*
X878D02*
X8877D01*
X877Y19523D02*
X878Y19524D01*
X877Y9520D02*
Y19523D01*
X12130Y19005D02*
Y24005D01*
X13930Y19005D02*
Y24005D01*
X12130D02*
X13930D01*
X12130Y19005D02*
X13930D01*
X85886Y94480D02*
Y95680D01*
X90430Y92630D02*
Y93330D01*
X89730Y92630D02*
X90430D01*
X89730Y95630D02*
X90430D01*
Y94930D02*
Y95630D01*
X21507Y83185D02*
X20841D01*
Y82685D01*
X21174Y82852D01*
X21341D01*
X21507Y82685D01*
Y82352D01*
X21341Y82186D01*
X21007D01*
X20841Y82352D01*
X21840Y83185D02*
Y82519D01*
X22174Y82186D01*
X22507Y82519D01*
Y83185D01*
X16878Y83019D02*
X17045Y83185D01*
X17378D01*
X17545Y83019D01*
Y82852D01*
X17378Y82685D01*
X17212D01*
X17378D01*
X17545Y82519D01*
Y82352D01*
X17378Y82186D01*
X17045D01*
X16878Y82352D01*
X17878Y83185D02*
Y82519D01*
X18211Y82186D01*
X18545Y82519D01*
Y83185D01*
X18878Y83019D02*
X19044Y83185D01*
X19378D01*
X19544Y83019D01*
Y82852D01*
X19378Y82685D01*
X19211D01*
X19378D01*
X19544Y82519D01*
Y82352D01*
X19378Y82186D01*
X19044D01*
X18878Y82352D01*
D60*
X90014Y52608D02*
Y53608D01*
X92914Y52608D02*
Y53608D01*
D61*
X62132Y88923D02*
D03*
D62*
X63132Y96923D02*
D03*
D63*
X60409Y92788D02*
D03*
D64*
X60132Y96923D02*
D03*
D65*
X58632Y92923D02*
D03*
M02*
