G04 Layer_Color=16711935*
%FSLAX43Y43*%
%MOMM*%
G71*
G01*
G75*
%ADD12R,1.300X1.000*%
%ADD13R,1.000X1.300*%
%ADD27R,1.000X0.700*%
%ADD35C,0.150*%
%ADD36C,4.500*%
%ADD37C,1.700*%
%ADD38O,4.000X3.500*%
%ADD39O,2.200X2.500*%
%ADD40O,3.500X4.200*%
%ADD41R,1.700X1.700*%
%ADD42C,6.000*%
%ADD43C,1.000*%
%ADD44R,1.800X1.800*%
%ADD45R,1.600X3.200*%
%ADD46R,1.400X0.600*%
%ADD47R,0.600X0.500*%
%ADD48R,1.905X3.429*%
%ADD49O,0.600X2.200*%
%ADD50R,1.000X2.300*%
%ADD51R,4.000X3.000*%
%ADD52R,0.700X0.350*%
%ADD53R,1.600X1.100*%
%ADD54R,1.100X1.600*%
%ADD55R,0.700X1.000*%
D12*
X77015Y24691D02*
D03*
Y22659D02*
D03*
X76670Y50080D02*
D03*
Y52112D02*
D03*
X53440Y50207D02*
D03*
Y48175D02*
D03*
X91313Y25146D02*
D03*
Y23114D02*
D03*
X74000Y64050D02*
D03*
Y66082D02*
D03*
X71000Y64050D02*
D03*
Y66082D02*
D03*
X11985Y57700D02*
D03*
Y55668D02*
D03*
X48730Y73702D02*
D03*
Y71670D02*
D03*
X74638Y50080D02*
D03*
Y52112D02*
D03*
X56985Y39920D02*
D03*
Y37888D02*
D03*
X64224Y35856D02*
D03*
Y37888D02*
D03*
X86000Y77032D02*
D03*
Y79064D02*
D03*
X83250D02*
D03*
Y77032D02*
D03*
X93345Y25146D02*
D03*
Y23114D02*
D03*
X22020Y7905D02*
D03*
Y9937D02*
D03*
X23330Y48937D02*
D03*
Y46905D02*
D03*
X42634Y34078D02*
D03*
Y36110D02*
D03*
Y30014D02*
D03*
Y27982D02*
D03*
X45809Y24553D02*
D03*
Y26585D02*
D03*
X24600Y51858D02*
D03*
Y53890D02*
D03*
X81250Y77032D02*
D03*
Y75000D02*
D03*
X60795Y58144D02*
D03*
Y60176D02*
D03*
X91250Y73660D02*
D03*
Y71628D02*
D03*
D13*
X7427Y39875D02*
D03*
X9459D02*
D03*
X58636Y30268D02*
D03*
X56604D02*
D03*
X74765Y85430D02*
D03*
X72733D02*
D03*
X38570Y34078D02*
D03*
X40602D02*
D03*
X75527Y42460D02*
D03*
X73495D02*
D03*
X77726Y71670D02*
D03*
X75694D02*
D03*
X93345Y32385D02*
D03*
X91313D02*
D03*
X55315Y6500D02*
D03*
X53283D02*
D03*
X57370Y13500D02*
D03*
X59402D02*
D03*
X54826Y37888D02*
D03*
X52794D02*
D03*
X44539D02*
D03*
X42507D02*
D03*
X36538Y32173D02*
D03*
X38570D02*
D03*
X40602D02*
D03*
X42634D02*
D03*
X58636Y32808D02*
D03*
X56604D02*
D03*
X29553Y78782D02*
D03*
X31585D02*
D03*
X82330Y95080D02*
D03*
X80298D02*
D03*
D27*
X72590Y52046D02*
D03*
Y50146D02*
D03*
X70590Y51096D02*
D03*
D35*
X95250Y90000D02*
G03*
X93250Y88000I0J-2000D01*
G01*
X98000Y90000D02*
G03*
X100000Y92000I0J2000D01*
G01*
Y72000D02*
G03*
X98000Y74000I-2000J0D01*
G01*
X93250Y76000D02*
G03*
X95250Y74000I2000J0D01*
G01*
Y90000D02*
X98000D01*
X-0Y100000D02*
X0Y0D01*
X93250Y76000D02*
Y88000D01*
X95250Y74000D02*
X98000D01*
X-0Y100000D02*
X100000D01*
X100000Y92000D02*
Y100000D01*
X100000Y0D02*
Y72000D01*
X0Y0D02*
X100000D01*
D36*
X17236Y92000D02*
D03*
Y86000D02*
D03*
X12536Y89000D02*
D03*
D37*
X2375Y51985D02*
D03*
Y54525D02*
D03*
Y46905D02*
D03*
Y44365D02*
D03*
Y41825D02*
D03*
X2360Y25935D02*
D03*
Y28475D02*
D03*
X2375Y59605D02*
D03*
Y62145D02*
D03*
Y64685D02*
D03*
Y67225D02*
D03*
Y69765D02*
D03*
Y72305D02*
D03*
Y74845D02*
D03*
Y77385D02*
D03*
Y79925D02*
D03*
X20790Y20870D02*
D03*
X18250D02*
D03*
X79210D02*
D03*
X81750D02*
D03*
X18250Y69130D02*
D03*
X20790Y66590D02*
D03*
X18250D02*
D03*
X20790Y64050D02*
D03*
X18250D02*
D03*
X20790Y61510D02*
D03*
X18250D02*
D03*
X20790Y58970D02*
D03*
X18250D02*
D03*
X20790Y56430D02*
D03*
X18250D02*
D03*
X20790Y53890D02*
D03*
X18250D02*
D03*
X20790Y51350D02*
D03*
X18250D02*
D03*
X20790Y48810D02*
D03*
X18250D02*
D03*
X20790Y46270D02*
D03*
X18250D02*
D03*
X20790Y43730D02*
D03*
X18250D02*
D03*
X20790Y41190D02*
D03*
X18250D02*
D03*
X20790Y38650D02*
D03*
X18250D02*
D03*
X20790Y36110D02*
D03*
X18250D02*
D03*
X20790Y33570D02*
D03*
X18250D02*
D03*
X20790Y31030D02*
D03*
X18250D02*
D03*
X20790Y28490D02*
D03*
X18250D02*
D03*
X20790Y25950D02*
D03*
X18250D02*
D03*
X20790Y23410D02*
D03*
X18250D02*
D03*
X79210Y69130D02*
D03*
X81750Y66590D02*
D03*
X79210D02*
D03*
X81750Y64050D02*
D03*
X79210D02*
D03*
X81750Y61510D02*
D03*
X79210D02*
D03*
X81750Y58970D02*
D03*
X79210D02*
D03*
X81750Y56430D02*
D03*
X79210D02*
D03*
X81750Y53890D02*
D03*
X79210D02*
D03*
X81750Y51350D02*
D03*
X79210D02*
D03*
X81750Y48810D02*
D03*
X79210D02*
D03*
X81750Y46270D02*
D03*
X79210D02*
D03*
X81750Y43730D02*
D03*
X79210D02*
D03*
X81750Y41190D02*
D03*
X79210D02*
D03*
X81750Y38650D02*
D03*
X79210D02*
D03*
X81750Y36110D02*
D03*
X79210D02*
D03*
X81750Y33570D02*
D03*
X79210D02*
D03*
X81750Y31030D02*
D03*
X79210D02*
D03*
X81750Y28490D02*
D03*
X79210D02*
D03*
X81750Y25950D02*
D03*
X79210D02*
D03*
X81750Y23410D02*
D03*
X79210D02*
D03*
X2360Y33585D02*
D03*
Y36125D02*
D03*
Y38665D02*
D03*
X77250Y97620D02*
D03*
X79790D02*
D03*
X82330D02*
D03*
X84870D02*
D03*
X87410D02*
D03*
X89950D02*
D03*
D38*
X93599Y16277D02*
D03*
Y11197D02*
D03*
Y41169D02*
D03*
Y36089D02*
D03*
X4280Y17060D02*
D03*
Y11980D02*
D03*
D39*
X22020Y17325D02*
D03*
X19520D02*
D03*
X17020D02*
D03*
Y2825D02*
D03*
X22020D02*
D03*
D40*
X26120Y9825D02*
D03*
X12920D02*
D03*
D41*
X20790Y69130D02*
D03*
X81750D02*
D03*
D42*
X95000Y5000D02*
D03*
Y95000D02*
D03*
X5000D02*
D03*
X5000Y5000D02*
D03*
D43*
X60795Y26585D02*
D03*
Y30268D02*
D03*
Y32808D02*
D03*
Y34840D02*
D03*
X62065Y65828D02*
D03*
X97083Y44740D02*
D03*
X50000Y9000D02*
D03*
X10630Y70400D02*
D03*
X4915D02*
D03*
X13805Y36110D02*
D03*
X4727Y39875D02*
D03*
X12535Y44260D02*
D03*
X70955Y32808D02*
D03*
X65240Y55160D02*
D03*
X60795D02*
D03*
X46190Y40555D02*
D03*
X94687Y54308D02*
D03*
X60795Y37888D02*
D03*
X46205Y45650D02*
D03*
X59144Y24680D02*
D03*
X37575Y72665D02*
D03*
X74765Y90000D02*
D03*
X60795Y43095D02*
D03*
X34125Y17695D02*
D03*
X55461Y13500D02*
D03*
X48255Y50875D02*
D03*
X50635Y48175D02*
D03*
X43665Y48825D02*
D03*
X38570Y62780D02*
D03*
X44920Y61256D02*
D03*
X70066Y5230D02*
D03*
X70153Y14120D02*
D03*
X68923Y15028D02*
D03*
X24600Y55795D02*
D03*
X50600Y58825D02*
D03*
X89789Y30480D02*
D03*
X96355Y30696D02*
D03*
X75403Y20342D02*
D03*
X75383Y18842D02*
D03*
X70153Y23092D02*
D03*
X64153Y16092D02*
D03*
X59403Y19342D02*
D03*
X36665Y70400D02*
D03*
X45555Y71035D02*
D03*
X46825Y71670D02*
D03*
X44285D02*
D03*
X39840D02*
D03*
X35395Y42460D02*
D03*
X31585Y71670D02*
D03*
X40475Y53255D02*
D03*
X34760Y37380D02*
D03*
X25870D02*
D03*
X27140Y40555D02*
D03*
Y42460D02*
D03*
X93345Y29845D02*
D03*
X97409Y23495D02*
D03*
Y25400D02*
D03*
X88519Y23495D02*
D03*
Y25400D02*
D03*
X75641Y73927D02*
D03*
X79250Y71670D02*
D03*
X88083Y49240D02*
D03*
X97083D02*
D03*
X88083Y44740D02*
D03*
X88519Y19904D02*
D03*
X97409D02*
D03*
X68415Y12495D02*
D03*
X50000Y16000D02*
D03*
X56985Y6500D02*
D03*
X50000Y2000D02*
D03*
X57743Y76750D02*
D03*
X25235Y78782D02*
D03*
X15710Y80814D02*
D03*
X56985Y26585D02*
D03*
X50000Y34840D02*
D03*
X25870Y27220D02*
D03*
X6185Y57700D02*
D03*
X11900Y47540D02*
D03*
Y46270D02*
D03*
X15710Y39225D02*
D03*
X25870Y32300D02*
D03*
X27140Y38650D02*
D03*
X16345Y37380D02*
D03*
X15075Y41507D02*
D03*
X9360Y33570D02*
D03*
X14694Y18330D02*
D03*
X81250Y71670D02*
D03*
X59144Y68636D02*
D03*
Y67366D02*
D03*
Y69906D02*
D03*
X88250Y77330D02*
D03*
X90250D02*
D03*
X83250Y81330D02*
D03*
X91250Y91875D02*
D03*
X87250D02*
D03*
D44*
X37000Y90100D02*
D03*
Y85900D02*
D03*
D45*
X52000Y91500D02*
D03*
Y86500D02*
D03*
X44000Y91500D02*
D03*
Y86500D02*
D03*
X54826Y67366D02*
D03*
Y62366D02*
D03*
D46*
X11985Y59605D02*
D03*
Y60875D02*
D03*
Y62145D02*
D03*
Y64685D02*
D03*
Y63415D02*
D03*
Y65955D02*
D03*
X6185Y62145D02*
D03*
Y59605D02*
D03*
Y60875D02*
D03*
Y63415D02*
D03*
Y67225D02*
D03*
Y64685D02*
D03*
Y65955D02*
D03*
X11985Y68495D02*
D03*
Y67225D02*
D03*
X6185Y68495D02*
D03*
D47*
X38402Y27093D02*
D03*
X40602D02*
D03*
X38402Y37888D02*
D03*
X40602D02*
D03*
X38402Y29633D02*
D03*
X40602D02*
D03*
X38402Y35983D02*
D03*
X40602D02*
D03*
D48*
X28031Y86000D02*
D03*
X31969D02*
D03*
D49*
X70955Y34840D02*
D03*
X69685D02*
D03*
X73495D02*
D03*
X72225D02*
D03*
X70955Y39640D02*
D03*
X69685D02*
D03*
X72225D02*
D03*
X73495D02*
D03*
X48349Y35068D02*
D03*
X47079D02*
D03*
X44539D02*
D03*
X45809D02*
D03*
X47079Y30268D02*
D03*
X48349D02*
D03*
X44539D02*
D03*
X45809D02*
D03*
D50*
X63744Y70541D02*
D03*
X61444D02*
D03*
X59144D02*
D03*
D51*
X61444Y76341D02*
D03*
D52*
X46205Y49475D02*
D03*
Y48825D02*
D03*
Y48175D02*
D03*
Y47525D02*
D03*
X48255D02*
D03*
Y48175D02*
D03*
Y48825D02*
D03*
Y49475D02*
D03*
D53*
X68000Y67098D02*
D03*
Y64050D02*
D03*
X56985Y21505D02*
D03*
Y24553D02*
D03*
D54*
X71717Y87970D02*
D03*
X74765D02*
D03*
D55*
X81248Y91175D02*
D03*
X82198Y93175D02*
D03*
X80298D02*
D03*
M02*
